<svg width="193" height="270" viewBox="0 0 193 270" fill="none" xmlns="http://www.w3.org/2000/svg">
<path fill-rule="evenodd" clip-rule="evenodd" d="M53.5055 18.3177C59.0691 15.5368 66.6804 19.4452 70.5067 27.0455C74.3308 34.6458 77.5838 60.2017 72.0203 62.9826C66.4567 65.7634 54.1809 44.7154 50.3567 37.1151C46.5305 29.5147 47.9398 21.0986 53.5055 18.3177Z" fill="#00203F"/>
<path fill-rule="evenodd" clip-rule="evenodd" d="M50.1701 19.7701C55.7358 16.9893 63.3471 20.8976 67.1713 28.4979C70.9954 36.1004 69.5839 44.5145 64.0203 47.2953C58.4546 50.0762 50.8454 46.1678 47.0191 38.5675C43.195 30.9672 44.6043 22.551 50.1701 19.7701Z" fill="#D55147"/>
<path fill-rule="evenodd" clip-rule="evenodd" d="M44.9105 35.8428C42.4696 35.055 41.7313 28.5151 43.7074 25.8641C51.4274 15.5197 67.5078 24.1653 68.8651 35.1589C68.9671 35.9899 72.7543 49.9289 73.1821 51.1192C76.2788 59.7301 84.5699 70.2044 78.0703 77.9497C74.4894 82.2173 69.2581 84.5307 64.3135 86.9718C59.093 89.5471 53.9377 88.6079 50.296 84.0243C46.6868 79.4819 47.9876 70.9575 46.7085 64.6989C45.9333 60.9074 44.3089 55.2093 46.9452 51.803C49.221 48.862 49.9594 32.5252 45.3318 35.3255C44.8584 35.6177 45.0256 35.8795 44.9105 35.8428Z" fill="#00203F"/>
<path fill-rule="evenodd" clip-rule="evenodd" d="M115.378 46.0854C115.195 45.0077 115.095 46.2044 113.425 47.3969C99.8856 57.0596 99.9573 91.049 67.5121 89.7765C58.6999 89.4303 60.118 96.1974 59.334 102.558C59.0734 104.676 60.3243 111.853 62.6543 111.853C78.6826 111.853 92.8476 110.729 102.12 95.4746C112.168 78.9452 109.208 70.6372 115.629 58.4944C117.547 54.8738 115.996 49.7406 115.378 46.0854Z" fill="#41809F"/>
<path fill-rule="evenodd" clip-rule="evenodd" d="M15.0732 107.578C9.40546 106.723 0.439105 107.546 0.0091369 118.676C-0.00389244 119.041 17.2404 113.317 20.3523 113.317C39.8637 113.317 47.8398 100.203 50.0678 82.1371C50.943 75.0497 56.5326 61.022 47.6444 61.0653C22.8517 61.1821 44.5977 105.732 15.0732 107.578Z" fill="#F5988A"/>
<path fill-rule="evenodd" clip-rule="evenodd" d="M186.379 260.693L186.518 259.949L185.593 247.038L179.25 248.098L180.299 257.804L186.379 260.693Z" fill="#ED9689"/>
<path fill-rule="evenodd" clip-rule="evenodd" d="M109.36 262.258L109.501 261.511L108.244 248.436L101.901 249.496L102.95 259.204L109.36 262.258Z" fill="#ED9689"/>
<path fill-rule="evenodd" clip-rule="evenodd" d="M110.06 264.366C110.438 265.554 110.27 267.227 110.446 267.865C110.805 269.181 105.336 268.848 105.206 268.733C103.202 266.98 100.309 269.298 98.3093 269.233C97.9662 269.222 83.4079 269.992 83.4079 269.003C83.4079 268.354 82.5675 266.805 84.4199 266.385C87.206 265.755 88.3048 265.357 91.4818 265.288C92.7544 265.259 101.156 264.995 102.088 264.775C104.201 264.273 105.371 263.948 107.556 263.948C107.662 263.948 109.117 264.32 109.754 264.301C109.782 264.301 110.058 264.355 110.06 264.366Z" fill="#010203"/>
<path fill-rule="evenodd" clip-rule="evenodd" d="M109.238 258.338C110.307 260.037 110.95 263.372 110.231 265.09C110.103 265.393 99.4143 267.488 99.2341 267.499C97.714 267.596 83.3644 267.759 83.3644 267.077C83.3644 262.84 98.2113 262.446 99.3948 260.128C100.19 258.574 101.936 257.319 104.316 257.804C105.925 258.133 105.953 260.156 107.21 259.732C107.423 259.661 109.054 258.044 109.238 258.338Z" fill="#656666"/>
<path fill-rule="evenodd" clip-rule="evenodd" d="M187.454 263.595C187.832 264.785 187.58 266.222 187.756 266.861C188.116 268.177 182.646 267.841 182.516 267.729C180.511 265.976 177.621 268.293 175.619 268.228C175.276 268.218 160.716 268.986 160.716 268.001C160.716 267.352 159.879 265.8 161.727 265.383C164.518 264.751 165.612 264.352 168.794 264.283C170.064 264.257 178.464 263.993 179.4 263.77C181.513 263.268 182.679 262.944 184.868 262.944C184.97 262.944 186.509 263.55 187.146 263.532C187.174 263.528 187.452 263.582 187.454 263.595Z" fill="#010203"/>
<path fill-rule="evenodd" clip-rule="evenodd" d="M186.551 257.332C187.619 259.031 188.262 262.364 187.541 264.084C187.413 264.387 176.726 266.482 176.544 266.493C175.024 266.59 160.676 266.753 160.676 266.071C160.676 261.836 175.523 261.44 176.707 259.122C177.5 257.568 179.25 256.313 181.625 256.798C183.239 257.127 183.265 259.15 184.525 258.726C184.731 258.655 186.366 257.038 186.551 257.332Z" fill="#656666"/>
<path d="M100.083 256.092C105.914 257.203 120.637 257.817 121.002 253.961L138.025 149.212C140.379 163.865 142.257 178.563 143.999 193.273H144.11C151.836 212.445 162.592 230.324 170.618 249.368C171.13 250.587 171.649 251.81 172.192 253.013C172.561 253.829 173.05 255.27 174.205 254.904C177.028 254.006 190.954 252.461 190.481 247.447C189.317 235.081 180.952 207.132 174.724 186.521C174.648 182.922 174.594 179.767 174.583 177.258C174.546 168.046 174.357 158.822 173.919 149.621C173.35 137.675 171.99 116.352 167.691 104.839C166.535 101.746 164.338 97.0372 160.472 96.8598C157.945 96.7429 155.332 96.7732 152.8 96.7667C148.589 96.7559 144.377 96.7646 140.164 96.7819C135.397 96.8014 130.633 96.8295 125.868 96.8793C124.29 96.8966 122.715 96.9139 121.141 96.942C120.353 96.9572 118.711 96.7689 118.305 97.6886C110.998 114.17 94.6566 246.462 100.083 256.092Z" fill="#3A5578"/>
<path d="M137.675 152.084C137.716 152.298 137.923 152.441 138.14 152.402C138.357 152.363 138.496 152.155 138.459 151.941L135.386 132.901C135.347 132.687 135.139 132.544 134.926 132.583C134.709 132.622 134.565 132.83 134.605 133.044L137.675 152.084Z" fill="#437D98"/>
<path fill-rule="evenodd" clip-rule="evenodd" d="M113.632 120.621L113.408 113.142L152.857 117.983L154.583 119.163C143.942 123.459 130.136 123.089 113.632 120.621Z" fill="#865638"/>
<path d="M126.253 14.7904C123.265 22.0835 122.118 29.1666 128.791 32.9559C128.444 34.7846 127.636 38.7038 125.808 39.9481C123.302 41.6513 112.268 46.9879 114.533 47.6047C119.808 53.4305 148.177 53.3158 151.447 45.8475C150.633 44.3737 136.948 39.4006 138.507 31.4324C138.85 29.6816 140.565 30.0257 141.666 28.4719L144.288 24.7669L142.398 17.1623C141.056 11.7737 130.374 4.73169 126.253 14.7904Z" fill="#ED9689"/>
<path fill-rule="evenodd" clip-rule="evenodd" d="M133.232 32.0993C133.84 31.6859 134.807 30.6796 134.17 31.8396C133.795 32.5191 133.05 33.2635 132.4 33.7332C131.775 34.1898 129.347 35.9297 127.69 36.395C127.999 28.1627 125.538 35.3541 133.232 32.0993Z" fill="#D07A5F"/>
<path d="M130.42 20.6748C130.47 20.4064 130.292 20.1489 130.025 20.0991C129.756 20.0494 129.497 20.2247 129.445 20.493C129.402 20.7289 129.226 21.3024 129.028 21.891C128.807 22.5554 128.557 23.2349 128.44 23.499C128.227 23.9664 127.99 24.8342 128.344 25.2778C128.659 25.6674 128.972 25.8968 129.349 26.0115C129.708 26.1218 130.094 26.111 130.57 26.031C130.841 25.9877 131.022 25.7323 130.978 25.464C130.935 25.1956 130.679 25.0138 130.409 25.0571C129.352 25.2346 128.872 24.9035 129.341 23.9015C129.471 23.6093 129.732 22.8908 129.964 22.2005C130.177 21.5642 130.368 20.9431 130.42 20.6748Z" fill="#D07A5F"/>
<path fill-rule="evenodd" clip-rule="evenodd" d="M133.302 19.2569C132.976 19.1964 132.639 19.5426 132.548 20.0274C132.459 20.5143 132.644 20.9579 132.969 21.0185C133.293 21.0791 133.632 20.735 133.721 20.2481C133.81 19.7612 133.623 19.3175 133.302 19.2569Z" fill="#212C3D"/>
<path fill-rule="evenodd" clip-rule="evenodd" d="M127.808 18.935C127.482 18.8744 127.15 19.2185 127.056 19.7054C126.963 20.1901 127.152 20.6338 127.473 20.6944C127.797 20.755 128.136 20.4109 128.227 19.924C128.316 19.4392 128.131 18.9956 127.808 18.935Z" fill="#212C3D"/>
<path fill-rule="evenodd" clip-rule="evenodd" d="M141.91 28.1235C145.384 23.3322 141.541 20.8521 139 26.2645C139.293 24.7129 136.644 25.4898 137.693 25.0137C140.333 23.8191 141.762 17.1796 139.278 14.0893C137.81 12.2671 134.689 11.6612 132.887 13.0397C128.198 16.6148 127.753 9.34776 124.244 21.0945C124.079 21.6528 123.643 20.718 123.619 20.6314C123.152 18.9672 123.119 17.2662 123.497 15.6734C120.481 14.7169 119.304 12.3191 119.304 9.27419C119.304 6.54093 119.688 8.87166 120.809 8.87166C120.865 8.6466 120.526 -2.32107 122.913 1.0744C126.103 5.62118 146.726 -1.12649 150.503 4.88322C159.059 18.5192 141.905 28.13 141.91 28.1235Z" fill="black"/>
<path fill-rule="evenodd" clip-rule="evenodd" d="M112.233 114.569C124.982 117.33 155.643 119.548 168.972 116.586C176.692 112.682 162.444 67.5969 162.637 58.6851C155.91 55.4347 154.563 45.9559 145.347 42.173C136.965 53.0087 123.254 49.9487 125.252 40.3249L125.282 40.2686L112.044 50.1867C111.608 50.9853 111.117 52.4482 110.552 54.1968C109.784 63.6128 109.784 74.9657 110.565 81.2957C112.264 95.0161 112.233 101.874 112.233 114.569Z" fill="#D6EDFB"/>
<path fill-rule="evenodd" clip-rule="evenodd" d="M133.612 26.0543C132.839 27.5237 127.988 28.0799 126.865 27.0627C126.713 26.9242 128.863 30.3002 130.798 29.6337C131.933 29.242 133.575 27.1363 133.601 26.0889L133.612 26.0543Z" fill="#D6EDFB"/>
<path fill-rule="evenodd" clip-rule="evenodd" d="M145.51 42.0557C168.073 46.912 172.735 67.432 172.735 88.2052C172.735 96.2427 180.318 113.155 193 112.073C193 120.539 152.937 135.183 149.58 127.52C137.651 100.264 116.092 66.7221 145.51 42.0557Z" fill="#41809F"/>
<path fill-rule="evenodd" clip-rule="evenodd" d="M124.728 40.8095C118.357 45.8431 111.015 120.933 116.602 124.658C100.746 127.925 102.066 130.224 102.066 117.319C102.066 95.6954 94.6739 49.1586 122.448 41.2293C124.097 40.7575 126.327 39.5478 124.728 40.8095Z" fill="#41809F"/>
<path fill-rule="evenodd" clip-rule="evenodd" d="M139.043 111.976C134.991 114.523 118.639 123.972 129.905 113.967C130.752 113.214 123.273 115.91 121.408 115.629C116.685 114.919 137.766 109.872 124.954 111.619C122.963 111.892 120.472 112.474 118.698 111.08C117.716 110.307 126.192 109.275 127.163 108.823C129.119 107.903 128.068 107.933 126.835 107.879C126.166 107.849 119.388 108.21 119.627 107.479C120.064 106.146 126.198 105.349 127.399 105.391C128.926 105.445 130.075 105.172 131.197 104.932C131.234 104.889 131.267 104.843 131.295 104.804C131.61 104.384 130.103 105.237 126.476 100.203C126.274 99.9219 132.563 103.185 136.904 103.304C137.265 103.313 137.643 103.333 138.036 103.356C142.476 101.121 163.478 94.8926 172.19 93.804C170.731 108.111 157.265 113.151 139.043 111.976Z" fill="#F2AB9E"/>
<path fill-rule="evenodd" clip-rule="evenodd" d="M47.9768 198.146C49.0365 212.814 51.8009 229.285 51.3036 242.53C51.0756 248.537 42.335 257.265 42.461 259.462C44.3676 258.789 46.8215 258.131 48.2157 256.953C50.5045 255.025 54.32 248.706 56.1441 245.821C57.1474 245.659 57.9748 244.936 58.155 243.469C59.2017 235.022 63.0584 209.523 62.1442 204.444C61.7359 202.184 62.6046 197.8 64.0682 192.188L63.8945 192.426C60.5198 197.01 54.6305 179.204 47.4469 178.308L47.9768 198.146Z" fill="#F5988A"/>
<path fill-rule="evenodd" clip-rule="evenodd" d="M56.2286 202.587C62.7412 214.433 72.713 223.641 77.3797 234.893C79.4948 239.996 75.5447 250.615 76.4916 252.402C77.8271 251.115 79.6208 249.628 80.3352 248.115C81.5057 245.633 82.2701 238.903 82.6827 235.799C83.4601 235.28 83.8749 234.362 83.4645 233.068C81.0974 225.615 75.0713 205.595 72.3569 201.702C71.1495 199.97 65.3623 192.939 64.4328 187.693L59.7053 187.369C58.6456 192.48 54.9474 181.136 48.6043 183.123L56.2286 202.587Z" fill="#F5988A"/>
<path fill-rule="evenodd" clip-rule="evenodd" d="M42.4589 259.459C44.3655 258.786 46.8194 258.129 48.2135 256.951C51.0409 254.566 56.2048 245.473 57.0496 244.451L57.8943 243.659C57.9291 243.517 58.0615 243.523 58.1506 243.467C58.4481 244.709 59.3645 246.479 59.8292 247.879C61.0366 251.526 60.5328 250.312 59.6576 252.701L57.8835 263.221L57.2016 263.288L56.8172 254.651C53.9985 255.597 52.1636 260.806 51.0126 263.725L33.6857 264.95C34.7932 263.573 40.068 260.277 42.4589 259.459Z" fill="#E78543"/>
<path fill-rule="evenodd" clip-rule="evenodd" d="M69.788 257.865L79.6859 249.156C79.9465 248.812 80.1702 248.464 80.3352 248.113C81.7815 245.044 82.6067 235.483 82.9194 234.306L83.3211 233.324C83.295 233.192 83.4101 233.148 83.4644 233.064C84.1897 233.988 85.6316 235.118 86.5567 236.109C88.9628 238.695 88.0768 237.873 88.2636 240.201L90.8195 249.66L90.2723 249.979L86.6392 242.911C84.6479 244.776 85.1127 249.825 85.2712 252.701C81.0019 255.246 77.2581 256.458 69.788 257.865Z" fill="#E78543"/>
<path fill-rule="evenodd" clip-rule="evenodd" d="M46.1982 29.7811C43.803 38.3661 43.4512 46.4706 51.4469 49.8531C53.284 66.8933 46.8475 58.8666 45.6054 61.9613C48.0223 70.8709 76.789 76.7486 79.7749 70.306C77.3275 54.6877 58.1005 68.5877 62.1548 46.8666C62.1657 46.7455 65.4708 41.0257 65.651 40.8418C69.3449 37.1152 64.3286 31.8478 61.2189 36.4184C55.2797 22.0401 48.9452 28.0087 46.2069 29.7551L46.1982 29.7811Z" fill="#F5988A"/>
<path fill-rule="evenodd" clip-rule="evenodd" d="M51.056 49.6804C52.8215 49.741 55.4382 49.0744 56.3221 48.3062C56.9475 47.763 57.9008 46.5056 57.3405 47.8906C56.7607 49.3146 52.9561 53.5714 51.7574 54.0648C51.7748 53.1451 51.5229 51.1779 51.4469 49.8513C51.3144 49.7972 51.1863 49.7388 51.056 49.6804Z" fill="#D07A5F"/>
<path d="M50.309 35.9923C50.3264 35.685 50.0962 35.4188 49.79 35.3972C49.4795 35.3755 49.2124 35.6071 49.1906 35.9144C49.1733 36.1849 49.0473 36.8514 48.9061 37.5396C48.7411 38.3165 48.5609 39.1129 48.4588 39.4202C48.2829 39.9742 48.1287 40.9784 48.5869 41.4307C48.9908 41.8289 49.373 42.0453 49.8139 42.1232C50.2287 42.1989 50.6608 42.1383 51.1863 41.9847C51.486 41.8981 51.6532 41.5908 51.5707 41.2943C51.486 41 51.1755 40.8291 50.878 40.9156C50.5088 41.0217 50.2352 41.0693 50.0093 41.0281C49.2058 40.8832 49.334 40.3724 49.5229 39.7557C49.6358 39.4094 49.8313 38.5697 50.005 37.7625C50.1526 37.0224 50.2829 36.2996 50.309 35.9923Z" fill="#D07A5F"/>
<path fill-rule="evenodd" clip-rule="evenodd" d="M48.0115 43.3869C49.6858 44.5577 54.5479 43.0061 54.5479 43.0342C54.4632 46.3864 49.5273 47.8796 47.9442 43.3869H48.0115Z" fill="white"/>
<path d="M51.8378 35.8057C51.7032 35.9507 51.4795 35.9594 51.334 35.8252C51.1885 35.691 51.1798 35.4659 51.3145 35.3209C51.5229 35.0937 51.7444 34.9076 51.9724 34.7583C52.5892 34.3536 53.2385 34.2281 53.8531 34.3147C54.4633 34.3991 55.0367 34.6912 55.5079 35.124C55.7186 35.3188 55.914 35.5439 56.0791 35.797C56.1876 35.9615 56.142 36.1823 55.9792 36.2883C55.812 36.3965 55.5904 36.3511 55.4819 36.1866C55.3537 35.9896 55.1995 35.8057 55.0236 35.6456C54.6588 35.3101 54.2201 35.0829 53.7576 35.0201C53.3037 34.9574 52.8238 35.0504 52.3699 35.3512C52.1875 35.4703 52.0115 35.6196 51.8378 35.8057Z" fill="black"/>
<path d="M46.1201 35.0727C46.0202 35.2415 45.7965 35.3 45.6271 35.1983C45.4577 35.0987 45.3991 34.8801 45.5034 34.7092C45.7705 34.2547 46.0831 33.9647 46.4067 33.8154C46.6369 33.7115 46.8649 33.6747 47.0929 33.6964H47.1038C47.3231 33.718 47.5381 33.7938 47.7357 33.9106C48.196 34.179 48.6065 34.6854 48.9018 35.3238C48.98 35.5034 48.904 35.7155 48.7281 35.7955C48.5478 35.8778 48.3328 35.7999 48.2503 35.6224C48.0158 35.1139 47.7053 34.72 47.3709 34.5252C47.2601 34.4581 47.145 34.4149 47.0343 34.404H47.0256C46.9214 34.3932 46.8128 34.4127 46.7064 34.4603C46.5088 34.5512 46.309 34.7481 46.1201 35.0727Z" fill="black"/>
<path d="M47.6467 61.0632C48.4241 61.0979 48.7889 61.007 49.1776 61.2472C54.1353 64.2942 67.9812 64.7011 70.3373 61.2255C70.6457 60.7711 74.6956 61.6649 77.8726 64.1168C72.2309 68.9492 69.6294 78.2743 72.9258 84.9073C72.6087 86.4936 69.992 95.7754 69.7054 95.8079L90.3352 182.249C79.447 186.531 42.9061 197.239 28.626 183.707C22.4696 176.743 27.7118 73.9981 47.6467 61.0632Z" fill="#703129"/>
<path fill-rule="evenodd" clip-rule="evenodd" d="M65.1363 59.3666C64.5783 59.4272 64.1787 59.9422 64.2417 60.5179C64.3047 61.0935 64.8085 61.5112 65.3644 61.4506C65.9224 61.39 66.322 60.8749 66.259 60.2993C66.196 59.7236 65.6944 59.306 65.1363 59.3666Z" fill="#D55147"/>
<path fill-rule="evenodd" clip-rule="evenodd" d="M61.8595 63.2017C61.3014 63.2623 60.9019 63.7774 60.9648 64.353C61.0278 64.9287 61.5294 65.3463 62.0875 65.2857C62.6456 65.2251 63.0451 64.7101 62.9821 64.1344C62.9192 63.5588 62.4154 63.1411 61.8595 63.2017Z" fill="#D55147"/>
<path fill-rule="evenodd" clip-rule="evenodd" d="M59.421 64.9201C58.8629 64.9807 58.4633 65.4957 58.5262 66.0714C58.5892 66.6471 59.093 67.0647 59.649 67.0041C60.2071 66.9435 60.6067 66.4285 60.5438 65.8528C60.4808 65.2772 59.9769 64.8595 59.421 64.9201Z" fill="#D55147"/>
<path fill-rule="evenodd" clip-rule="evenodd" d="M56.3959 65.7319C55.8378 65.7925 55.4382 66.3076 55.499 66.8832C55.562 67.4589 56.0658 67.8766 56.6217 67.816C57.1798 67.7554 57.5794 67.2403 57.5164 66.6646C57.4556 66.089 56.954 65.6713 56.3959 65.7319Z" fill="#D55147"/>
<path fill-rule="evenodd" clip-rule="evenodd" d="M53.6662 65.2291C53.1082 65.2897 52.7086 65.8048 52.7716 66.3804C52.8346 66.9561 53.3383 67.3737 53.8942 67.3132C54.4523 67.2526 54.8519 66.7375 54.7889 66.1618C54.7259 65.5862 54.2221 65.1685 53.6662 65.2291Z" fill="#D55147"/>
<path fill-rule="evenodd" clip-rule="evenodd" d="M51.4122 63.9698C50.8541 64.0304 50.4545 64.5454 50.5175 65.1211C50.5805 65.6967 51.0821 66.1144 51.6403 66.0538C52.1984 65.9932 52.6002 65.4782 52.535 64.9025C52.4721 64.3268 51.9704 63.9092 51.4122 63.9698Z" fill="#D55147"/>
<path fill-rule="evenodd" clip-rule="evenodd" d="M49.9572 61.9958C49.3991 62.0564 48.9995 62.5715 49.0625 63.1471C49.1255 63.7228 49.6293 64.1405 50.1852 64.0799C50.7432 64.0193 51.1428 63.5042 51.0798 62.9286C51.0168 62.3529 50.5131 61.9352 49.9572 61.9958Z" fill="#D55147"/>
<path fill-rule="evenodd" clip-rule="evenodd" d="M49.5815 59.6852C49.0234 59.7458 48.6239 60.2609 48.6869 60.8365C48.7498 61.4122 49.2536 61.8299 49.8095 61.7693C50.3676 61.7087 50.7671 61.1936 50.7042 60.618C50.6434 60.0423 50.1396 59.6246 49.5815 59.6852Z" fill="#D55147"/>
<path fill-rule="evenodd" clip-rule="evenodd" d="M63.6901 61.4872C63.1321 61.5478 62.7325 62.0629 62.7955 62.6385C62.8585 63.2142 63.3622 63.6319 63.9181 63.5713C64.4762 63.5107 64.8757 62.9956 64.8128 62.42C64.7498 61.8443 64.2482 61.4266 63.6901 61.4872Z" fill="#D55147"/>
<path fill-rule="evenodd" clip-rule="evenodd" d="M141.515 99.6084L146.956 115.296C216.108 106.049 180.003 44.9151 150.392 43.6144C157.158 77.5411 170.963 90.2292 141.515 99.6084Z" fill="#41809F"/>
<path d="M174.657 105.321C174.878 105.137 175.206 105.168 175.391 105.388C175.576 105.609 175.545 105.936 175.324 106.118C171.43 109.355 166.994 111.543 162.199 113.039C157.428 114.527 152.301 115.332 147.004 115.811C146.761 115.832 146.542 115.685 146.466 115.464L140.344 98.0348C140.251 97.7708 140.388 97.4808 140.646 97.3791C144.948 95.7019 148.555 94.4229 151.543 93.3625C158.461 90.9062 162.01 89.6489 163.022 87.4805C164.086 85.1995 162.494 81.5811 159.228 74.1518C158.151 71.702 156.896 68.8497 155.521 65.5516C155.41 65.2854 155.536 64.9824 155.803 64.8721C156.071 64.7617 156.375 64.8872 156.485 65.1534C157.884 68.5034 159.122 71.3211 160.183 73.7362C163.578 81.4534 165.23 85.2146 163.968 87.9154C162.772 90.4821 159.082 91.7892 151.89 94.3428C149.015 95.3643 145.567 96.587 141.495 98.1646L147.315 114.737C152.396 114.261 157.313 113.471 161.888 112.043C166.561 110.587 170.881 108.461 174.657 105.321Z" fill="#39577B"/>
<path fill-rule="evenodd" clip-rule="evenodd" d="M68.3699 73.2258C68.3699 111.236 52.2547 110.931 40.3546 110.676C34.6868 109.821 25.7205 110.643 25.2905 121.773C25.2775 122.139 42.5218 116.415 45.6337 116.415C65.1451 116.415 77.979 101.171 80.2092 83.1049C81.0843 76.0175 82.1506 63.167 73.4404 61.3968C69.8118 60.6589 68.3699 71.1785 68.3699 73.2258Z" fill="#F5988A"/>
</svg>
