<svg width="643" height="494" viewBox="0 0 643 494" fill="none" xmlns="http://www.w3.org/2000/svg">
<path d="M99.1505 492.214C99.1505 492.214 -36.0868 409.82 58.0939 314.751C152.275 219.683 177.226 293.961 227.931 192.75C278.651 91.5404 366.258 75.3665 421.102 92.6002C504.454 118.778 475.159 164.453 564.603 223.922C657.429 285.641 652.153 460.534 567.635 492.229H99.1505V492.214Z" fill="#5DAA96" fill-opacity="0.1"/>
<path d="M468.936 176.853C468.936 176.853 468.936 161.085 510.007 163.96C510.007 163.96 512.427 146.77 540.381 146.407C568.335 146.044 572.124 162.479 572.124 162.479C572.124 162.479 602.162 155.844 619.054 176.853H468.936Z" fill="white"/>
<path d="M16.5711 209.113C16.5711 209.113 16.5711 202.653 32.1221 203.988C32.1221 203.988 34.1189 190.355 56.2722 190.312C74.1406 190.283 79.7372 202.856 79.7372 202.856C79.7372 202.856 95.434 201.143 97.4453 209.128H16.5711V209.113Z" fill="white"/>
<path d="M430.896 13.7928C430.896 13.7928 422.195 6.37372 410.011 7.41907C410.011 7.41907 406.717 0 396.5 0C387.391 0 383.106 7.09966 383.106 7.09966C383.106 7.09966 369.086 7.54974 367.512 13.7928H430.896Z" fill="white"/>
<path d="M1.09308 492.911H641.907" stroke="white" stroke-width="1.5" stroke-miterlimit="10" stroke-linecap="round" stroke-linejoin="round"/>
<path fill-rule="evenodd" clip-rule="evenodd" d="M496.821 328.531L526.145 239.348L483.188 232L476.158 334.161L496.821 328.531Z" fill="#3E8B77"/>
<path fill-rule="evenodd" clip-rule="evenodd" d="M504.881 327.666L488.761 329.391L526.145 239.347L549.983 259.846L504.881 327.666Z" fill="#5DAA96"/>
<path fill-rule="evenodd" clip-rule="evenodd" d="M504.881 327.667L549.983 259.846L565.592 287.819L516.714 327.667H504.881Z" fill="#3E8B77"/>
<path fill-rule="evenodd" clip-rule="evenodd" d="M516.714 327.667L565.592 287.819L566.103 314.64L515.515 327.667H516.714Z" fill="#5DAA96"/>
<path fill-rule="evenodd" clip-rule="evenodd" d="M441.254 443.979H528.032V439.534H441.254V443.979Z" fill="#895737"/>
<path d="M508.677 377.357C509.195 376.801 510.072 376.768 510.629 377.288C511.187 377.804 511.217 378.678 510.699 379.234L449.646 444.863C449.128 445.419 448.251 445.449 447.693 444.932C447.135 444.416 447.105 443.542 447.624 442.986L508.677 377.357Z" fill="#895737"/>
<path d="M427.551 374.424C427.033 373.868 426.157 373.838 425.599 374.355C425.041 374.871 425.011 375.745 425.529 376.301L481.989 410.092C482.507 410.648 483.384 410.678 483.939 410.161C484.496 409.645 484.526 408.771 484.008 408.215L427.551 374.424Z" fill="#895737"/>
<path d="M532.219 375.712C532.714 375.156 533.548 375.126 534.079 375.643C534.61 376.159 534.64 377.033 534.146 377.589L482.909 409.457C482.414 410.013 481.581 410.042 481.049 409.526C480.518 409.01 480.488 408.136 480.983 407.58L532.219 375.712Z" fill="#895737"/>
<path fill-rule="evenodd" clip-rule="evenodd" d="M426.273 412.796C448.006 412.796 465.623 430.354 465.623 452.008C465.623 473.666 448.006 491.22 426.273 491.22C404.54 491.22 386.926 473.663 386.926 452.008C386.926 430.354 404.54 412.796 426.273 412.796Z" fill="black"/>
<path fill-rule="evenodd" clip-rule="evenodd" d="M426.273 420.272C443.861 420.272 458.118 434.48 458.118 452.008C458.118 469.535 443.861 483.744 426.273 483.744C408.685 483.744 394.428 469.535 394.428 452.008C394.428 434.484 408.685 420.272 426.273 420.272Z" fill="white"/>
<path fill-rule="evenodd" clip-rule="evenodd" d="M426.273 442C431.819 442 436.316 446.481 436.316 452.008C436.316 457.535 431.819 462.016 426.273 462.016C420.727 462.016 416.23 457.535 416.23 452.008C416.23 446.481 420.727 442 426.273 442Z" fill="black"/>
<path fill-rule="evenodd" clip-rule="evenodd" d="M425.137 378.979L411.418 341.378H549.645L534.381 378.466L425.137 378.979Z" fill="#5DAA96"/>
<path fill-rule="evenodd" clip-rule="evenodd" d="M408.157 318.135C462.933 333.138 521.742 324.804 566.103 314.64L554.078 341.978C506.82 357.218 458.673 354.16 411.415 341.379L408.157 318.135Z" fill="#3E8B77"/>
<path d="M367.486 257.652C366.936 256.958 367.056 255.946 367.753 255.398C368.45 254.85 369.465 254.97 370.015 255.665L514.262 438.52C514.812 439.215 514.692 440.227 513.995 440.774C513.298 441.322 512.283 441.202 511.733 440.508L367.486 257.652Z" fill="#895737"/>
<path fill-rule="evenodd" clip-rule="evenodd" d="M353.199 262.791L365.992 248.463C367.202 247.108 369.295 246.986 370.645 248.191C371.995 249.397 372.11 251.49 370.9 252.845L358.106 267.173C356.896 268.528 354.804 268.65 353.454 267.444C352.106 266.24 351.989 264.146 353.199 262.791Z" fill="#2D9B4E"/>
<path fill-rule="evenodd" clip-rule="evenodd" d="M526.265 414.746C547.466 414.746 564.655 431.876 564.655 453.005C564.655 474.133 547.466 491.264 526.265 491.264C505.064 491.264 487.874 474.133 487.874 453.005C487.874 431.876 505.064 414.746 526.265 414.746Z" fill="black"/>
<path fill-rule="evenodd" clip-rule="evenodd" d="M526.265 422.04C543.424 422.04 557.336 435.904 557.336 453.005C557.336 470.105 543.424 483.969 526.265 483.969C509.105 483.969 495.193 470.105 495.193 453.005C495.193 435.904 509.105 422.04 526.265 422.04Z" fill="white"/>
<path fill-rule="evenodd" clip-rule="evenodd" d="M526.265 443.238C531.678 443.238 536.065 447.61 536.065 453.005C536.065 458.399 531.678 462.771 526.265 462.771C520.851 462.771 516.464 458.399 516.464 453.005C516.464 447.61 520.851 443.238 526.265 443.238Z" fill="black"/>
<path fill-rule="evenodd" clip-rule="evenodd" d="M553.932 327.667L566.103 314.64L515.515 327.667H553.932Z" fill="#DAEAED" fill-opacity="0.2"/>
<path d="M290.849 446.131L292.219 469.419L314.78 470.116L313.294 447.133L290.849 446.131Z" fill="#F0C6BB"/>
<path d="M315.16 464.541L333.29 474.864L345.271 477.274C350.78 478.377 354.89 482.98 355.371 488.555L355.589 491.168L289.1 491.023L290.98 464.556L315.16 464.541Z" fill="#D36985"/>
<path d="M288.852 491.459L355.852 491.604L355.866 485.869L288.852 485.724V491.459Z" fill="white"/>
<path d="M290.252 474.995C290.252 474.995 303.398 477.593 302.378 488.671" stroke="white" stroke-width="0.75" stroke-miterlimit="10"/>
<path d="M333.29 474.864C333.29 474.864 323.802 477.579 322.359 488.656" stroke="white" stroke-width="0.75" stroke-miterlimit="10"/>
<path d="M306.911 256.052L320.29 362.445L285.836 372.115L257.663 307.129C257.663 307.129 238.629 286.658 245.333 267.551L306.911 256.052Z" fill="#3D363F"/>
<path d="M320.377 361.545L316.603 456.309L281.711 456.658C281.711 456.658 273.549 373.465 285.063 359.31L320.377 361.545Z" fill="#3D363F"/>
<path d="M205.457 419.402L194.599 440.077L213.575 452.243L224.171 431.772L205.457 419.402Z" fill="#F0C6BB"/>
<path d="M216.781 447.656L226.998 465.804L236.02 474.022C240.174 477.797 241.325 483.851 238.847 488.874L237.696 491.226L180.768 457.006L196.056 435.286L216.781 447.656Z" fill="#D36985"/>
<path d="M180.316 457.238L237.696 491.72L240.669 486.813L183.289 452.331L180.316 457.238Z" fill="white"/>
<path d="M190.023 443.837C190.023 443.837 199.948 452.795 193.346 461.768" stroke="white" stroke-width="0.75" stroke-miterlimit="10"/>
<path d="M226.984 465.804C226.984 465.804 217.437 463.263 210.485 472.033" stroke="white" stroke-width="0.75" stroke-miterlimit="10"/>
<path d="M302.407 269.191L286.331 368.427H250.536L241.092 305.038C241.092 305.038 228.354 280.197 239.999 263.616L302.407 269.191Z" fill="#524953"/>
<path d="M286.331 368.427L223.733 441.398L195.401 427.01C195.401 427.01 237.9 356.957 254.661 349.64L286.331 368.427Z" fill="#524953"/>
<path d="M280.778 108.73C280.778 108.73 258.319 115.177 247.126 141.064C235.933 166.951 227.931 273.489 227.931 273.489C227.931 273.489 270.722 288.589 308.703 270.266C308.703 270.266 313.513 152.78 298.589 128.578L280.778 108.73Z" fill="#67B5D5"/>
<path d="M308.893 231.24L287.745 221.483C284.102 219.799 281.143 216.91 279.38 213.309L256.119 163.742L273.521 220.06C274.439 222.92 276.523 225.258 279.278 226.492L308.776 239.849L308.893 231.24Z" fill="#5EA5CA"/>
<path d="M296.592 169.724L308.47 192.997L308.893 201.244L305.832 199.705L296.592 169.724Z" fill="#5EA5CA"/>
<path d="M228.485 265.257C228.485 265.257 272.296 277.859 308.878 263.631" stroke="#508DB1" stroke-miterlimit="10"/>
<path d="M286.944 138.45L306.94 203.262C309.053 210.129 305.701 217.505 299.099 220.423C292.598 223.298 284.976 220.989 281.201 214.978C273.302 202.391 260.141 179.175 250.23 150.167C247.242 141.441 251.032 131.844 259.092 127.343C269.804 121.347 283.329 126.748 286.944 138.45Z" fill="#67B5D5"/>
<path d="M381.722 248.531C378.953 240.096 372.686 237.715 372.686 237.715L362.6 233.461L336.22 221.933L332.693 236.176L357.091 247.094C355.765 252.64 357.237 261.874 363.752 265.678C371.272 270.092 384.491 256.967 381.722 248.531Z" fill="#F0C6BB"/>
<path d="M299.376 196.438L358.417 226.245L347.836 250.564L287.25 220.496C279.467 216.634 277.325 206.558 282.863 199.879C286.871 195.015 293.736 193.592 299.376 196.438Z" fill="#67B5D5"/>
<path d="M351.538 222.775L340.418 246.876" stroke="#508DB1" stroke-miterlimit="10"/>
<path d="M316.268 100.716L296.723 83.0469L279.467 109.152C279.467 109.152 286.885 129.681 297.583 137.202L316.268 100.716Z" fill="#F0C6BB"/>
<path d="M333.334 70.6478L332.154 95.7071C332.766 106.32 321.806 117.645 311.982 113.493L296.635 106.306L310.991 64.7241C312.303 63.2287 330.9 59.8168 333.334 70.6478Z" fill="#F0C6BB"/>
<path d="M331.541 83.8892L337.327 92.8617C337.954 94.0378 337.604 95.3735 336.467 96.1285L332.022 96.9706L331.541 83.8892Z" fill="#F0C6BB"/>
<path d="M318.118 63.345C318.118 63.345 320.348 77.5878 307.828 79.0687L318.118 63.345Z" fill="#6C4934"/>
<path d="M321.966 76.7746C322.068 76.8037 322.17 76.8327 322.272 76.8472L328.729 77.5296C329.574 77.6312 330.347 77.0215 330.449 76.1794C330.551 75.3373 329.953 74.5678 329.093 74.4662L322.637 73.7838C321.791 73.6821 321.019 74.2919 320.917 75.134C320.83 75.86 321.281 76.5423 321.966 76.7746Z" fill="#171E21"/>
<path d="M328.86 84.0488C328.86 84.0488 325.304 82.5097 322.855 84.0488" stroke="#171E21" stroke-miterlimit="10" stroke-linecap="round" stroke-linejoin="round"/>
<path d="M313.178 73.9146L312.507 83.7147L304.112 83.5115L307.202 74.5243L313.178 73.9146Z" fill="#6C4934"/>
<path d="M309.869 112.985C309.869 112.985 299.871 106.712 296.636 99.7725C296.636 99.7725 295.455 110.516 305.249 122.102L309.869 112.985Z" fill="#CD968E"/>
<path d="M338.173 55.4612C332.387 46.6629 321.995 51.396 310.029 50.2925C304.987 49.0439 299.58 49.0149 294.26 51.033C286.273 54.0529 280.982 60.3395 279.131 65.5808C276.625 72.695 279.875 81.4207 282.498 87.7509L286.579 97.5946C303.719 100.731 301.664 87.5476 301.664 87.5476L315.83 67.9618C328.014 72.3465 333.32 70.6623 333.32 70.6623C333.32 70.6623 345.3 66.3212 338.173 55.4612Z" fill="#6C4934"/>
<path d="M308.82 82.6404C309.767 87.5187 305.584 91.7292 300.687 90.829C297.962 90.3354 295.732 88.1285 295.207 85.4135C294.26 80.5352 298.443 76.3248 303.34 77.2249C306.065 77.7331 308.295 79.9399 308.82 82.6404Z" fill="#F0C6BB"/>
<path d="M314.212 98.132C318.803 93.7909 332.43 96.7672 332.43 96.7672C332.911 109.849 324.939 114.48 321.427 115.075C315.568 116.048 305.03 112.506 301.999 105.914C298.967 99.3225 309.359 83.4245 309.359 83.4245L309.446 77.0217L312.944 77.3702L314.212 98.132Z" fill="#6C4934"/>
<path d="M174.545 225.636L229.725 252.466L231.007 238.964C231.007 238.964 203.345 216.358 186.832 204.569C182.518 201.491 175.303 204.859 171.616 208.649C166.544 213.832 168.03 222.427 174.545 225.636Z" fill="#F0C6BB"/>
<path d="M182.649 149.949C182.649 149.949 194.075 155.205 197.092 165.325C197.092 165.325 211.186 192.968 199.409 221.73C187.633 250.491 193.376 302.367 193.376 302.367L162.769 248.488L182.649 149.949Z" fill="#F1CC52"/>
<path d="M72.261 423.075L60.0184 441.282L76.5022 454.567L88.4825 436.52L72.261 423.075Z" fill="#F0C6BB"/>
<path d="M79.9561 450.618L87.6369 468.592L95.2303 477.172C98.7136 481.121 99.18 486.885 96.3671 491.328L95.0554 493.404L45.3707 455.685L61.8691 436.941L79.9561 450.618Z" fill="#493E51"/>
<path d="M44.919 455.873L94.9972 493.883L98.2764 489.6L48.1983 451.59L44.919 455.873Z" fill="white"/>
<path d="M175.609 258.68L151.313 370.677L115.606 358.612C115.606 358.612 111.947 267.202 126.741 244.626L175.609 258.68Z" fill="#455D91"/>
<path d="M151.313 370.677L88.366 442.894L66.1252 427.025L115.606 358.612L151.313 370.677Z" fill="#455D91"/>
<path d="M63.1521 425.689L90.5376 445.594L96.9067 436.955L70.2499 416.615L63.1521 425.689Z" fill="#506DA1"/>
<path d="M195.138 450.022L196.683 471.888L217.875 472.309L216.228 450.734L195.138 450.022Z" fill="#F0C6BB"/>
<path d="M218.181 467.082L235.321 476.577L246.602 478.726C251.79 479.713 255.696 483.982 256.206 489.223L256.439 491.677L193.973 492.243L195.459 467.358L218.181 467.082Z" fill="#493E51"/>
<path d="M193.74 492.635L256.687 492.069L256.643 486.682L193.696 487.249L193.74 492.635Z" fill="white"/>
<path d="M225.337 360.34L219.478 457.021L190.708 459.561L189.688 372.638L225.337 360.34Z" fill="#455D91"/>
<path d="M184.499 275.565L185.213 257.765L175.754 257.402L175.58 257.039L174.763 257.373L166.135 257.039L165.494 261.105L136.666 272.691C138.881 299.55 189.702 372.638 189.702 372.638L225.337 360.34L184.499 275.565Z" fill="#455D91"/>
<path d="M160.743 327.237L166.135 302.367L181.001 293.249L172.315 311.557L171.805 345.415L160.743 327.237Z" fill="#3D5785"/>
<path d="M189.178 459.982L222.962 457.325L222.145 446.639L188.624 448.483L189.178 459.982Z" fill="#506DA1"/>
<path d="M187.093 159.618C187.093 159.618 201.406 181.498 197.806 195.364C194.191 209.229 185.053 230.789 185.213 257.751C185.213 257.751 154.709 262.629 142.335 251.595L156.589 155.829L187.093 159.618Z" fill="white"/>
<path d="M85.057 220.104L65.3667 284.886L75.19 287.558C75.19 287.558 98.8445 246.949 107.91 228.83C110.271 224.097 105.797 217.534 101.439 214.514C95.4778 210.347 87.1994 213.178 85.057 220.104Z" fill="#F0C6BB"/>
<path d="M67.6987 281.605C67.6987 281.605 64.0114 285.162 62.4373 292.262C61.7669 295.311 61.6211 298.316 61.6649 300.755C61.7232 303.921 63.9239 306.621 67.0137 307.332L74.986 309.017C78.5568 309.83 82.1275 307.724 83.1477 304.225C84.6926 298.941 80.466 289.445 76.1374 283.87L67.6987 281.605Z" fill="#F0C6BB"/>
<path d="M86.9516 216.707C86.9516 216.707 102.969 189.687 121.77 176.809L139.143 199.255L104.937 229.846L86.9516 216.707Z" fill="#F0C6BB"/>
<path d="M151.313 148.033C151.313 148.033 124.627 148.018 102.138 188.337L135.004 216.706L151.313 148.033Z" fill="#F1CC52"/>
<path d="M161.588 147.249C161.588 147.249 143.982 146.044 131.186 157.383L122.601 227.523C122.601 227.523 114.265 261.758 98.9904 269.133C98.9904 269.133 113.813 285.278 141.125 286.193C141.111 286.193 192.282 210.333 161.588 147.249Z" fill="#F1CC52"/>
<path d="M124.263 212.568L126.741 210.361L130.224 212.568L145.411 203.32L119.949 236.423C119.949 236.423 123.534 219.871 124.263 212.568Z" fill="#E9A450"/>
<path d="M156.557 83.0263C158.481 71.2658 150.471 60.1778 138.665 58.2606C126.859 56.3434 115.729 64.323 113.804 76.0836C111.88 87.8441 119.89 98.9321 131.696 100.849C143.502 102.767 154.632 94.7869 156.557 83.0263Z" fill="#493E51"/>
<path d="M162.769 83.2647C162.769 83.2647 162.23 78.9382 157.202 79.6496C152.173 80.361 145.309 89.0432 145.629 97.7254C145.965 106.408 161.88 91.7582 161.88 91.7582L162.769 83.2647Z" fill="#6786E6"/>
<path d="M148.034 102.183C147.524 117.355 167.316 130.015 175.609 135.489C188.318 143.866 202.674 119.199 203.184 104.027C203.694 88.8545 193.857 76.2087 178.626 75.715C163.396 75.2069 148.544 87.0106 148.034 102.183Z" fill="#493E51"/>
<path d="M189.79 86.5314C203.082 86.9814 203.024 96.9123 203.024 96.9123L204.539 120.171C204.088 127.402 202.295 133.645 196.174 136.766C192.311 138.741 187.691 138.799 183.552 137.434L171.484 133.441L170.406 93.631C170.391 93.631 176.498 86.0958 189.79 86.5314Z" fill="#F0C6BB"/>
<path d="M202.659 110.269L208.475 117.659C209.203 118.719 208.999 120.055 207.979 120.882L203.111 123.133L202.659 110.269Z" fill="#F0C6BB"/>
<path d="M194.294 105.74C194.396 105.754 194.498 105.769 194.6 105.769L200.896 105.754C201.727 105.769 202.397 105.101 202.412 104.273C202.426 103.446 201.756 102.778 200.925 102.763L194.629 102.778C193.798 102.763 193.128 103.431 193.113 104.259C193.099 104.985 193.609 105.594 194.294 105.74Z" fill="#493E51"/>
<path d="M200.313 111.242C200.313 111.242 198.243 109.703 195.795 111.242" stroke="#171E21" stroke-miterlimit="10" stroke-linecap="round" stroke-linejoin="round"/>
<path d="M204.117 124.077L194.993 123.496C194.993 123.496 196.772 127.3 203.301 127.794C203.316 127.779 203.884 126.385 204.117 124.077Z" fill="white"/>
<path d="M182.634 150.036L187.254 128.273L166.602 112.708L161.589 147.249C161.589 147.249 161.924 148.004 162.565 149.194C166.704 158.776 170.741 183.691 183.975 181.164C197.5 178.58 187.036 157.76 182.634 150.036Z" fill="#F0C6BB"/>
<path d="M185.213 137.898C185.213 137.898 173.845 133.862 172.315 127.619C172.315 127.619 172.49 137.26 183.727 144.867L185.213 137.898Z" fill="#CD968E"/>
<path d="M174.764 117.761C174.764 117.761 172.198 126.734 164.445 127.619L159.868 112.563L174.764 117.761Z" fill="#493E51"/>
<path d="M180.477 115.351C182.736 115.351 184.47 113.347 184.135 111.126L184.762 103.111C184.762 103.111 220.951 97.4346 208.897 81.043C197.384 65.3773 178.786 73.3916 166.121 78.0231C153.456 82.6546 157.041 99.9173 157.041 99.9173L172.301 110.255L180.477 115.351Z" fill="#493E51"/>
<path d="M180.87 112.055C181.337 116.092 178.422 119.736 174.355 120.2C170.304 120.665 166.645 117.761 166.179 113.71C165.713 109.674 168.628 106.03 172.694 105.565C176.746 105.101 180.404 108.005 180.87 112.055Z" fill="#F0C6BB"/>
</svg>
