<svg width="145" height="173" viewBox="0 0 145 173" fill="none" xmlns="http://www.w3.org/2000/svg">
<path d="M3.06938 97.1132C-7.05143 126.265 10.3437 154.286 29.9528 149.888C49.5619 145.49 71.0686 152.401 85.6172 163.71C137.17 193.239 148.24 137.009 144.128 127.585C140.017 118.16 133.059 90.2023 139.068 81.0923C143.875 73.8043 142.758 63.8148 141.598 59.731C135.589 34.9142 92.259 56.2755 85.6172 67.2703C78.9218 78.3538 69.8035 83.5432 63.1617 78.5792C31.2179 54.7048 8.34063 79.1027 3.06938 97.1132Z" fill="url(#paint0_linear)" fill-opacity="0.1"/>
<path fill-rule="evenodd" clip-rule="evenodd" d="M103.624 54.8618L120.29 4.17572L95.8763 0L91.8806 58.0613L103.624 54.8618Z" fill="#3E8B77"/>
<path fill-rule="evenodd" clip-rule="evenodd" d="M108.205 54.3705L99.0434 55.3505L120.29 4.17542L133.838 15.826L108.205 54.3705Z" fill="#5DAA96"/>
<path fill-rule="evenodd" clip-rule="evenodd" d="M108.205 54.3706L133.838 15.826L142.709 31.7239L114.93 54.3706H108.205Z" fill="#3E8B77"/>
<path fill-rule="evenodd" clip-rule="evenodd" d="M114.93 54.3707L142.709 31.724L143 46.9672L114.249 54.3707H114.93Z" fill="#5DAA96"/>
<path fill-rule="evenodd" clip-rule="evenodd" d="M72.0437 120.475H121.362V117.949H72.0437V120.475Z" fill="#895737"/>
<path d="M110.362 82.6115C110.657 82.2955 111.155 82.2766 111.472 82.5719C111.789 82.8654 111.806 83.3619 111.512 83.6779L76.8132 120.977C76.5188 121.293 76.0205 121.31 75.7034 121.017C75.3863 120.723 75.3693 120.227 75.6638 119.911L110.362 82.6115Z" fill="#895737"/>
<path d="M64.2561 80.9448C63.9617 80.6288 63.4634 80.6119 63.1463 80.9053C62.8292 81.1987 62.8122 81.6953 63.1067 82.0113L95.1949 101.216C95.4894 101.532 95.9877 101.549 96.3029 101.255C96.6199 100.962 96.6369 100.465 96.3425 100.149L64.2561 80.9448Z" fill="#895737"/>
<path d="M123.742 81.6765C124.024 81.3605 124.497 81.3436 124.799 81.637C125.101 81.9304 125.118 82.427 124.837 82.743L95.7178 100.855C95.4366 101.171 94.9629 101.188 94.6609 100.894C94.3589 100.601 94.3419 100.104 94.6231 99.7881L123.742 81.6765Z" fill="#895737"/>
<path fill-rule="evenodd" clip-rule="evenodd" d="M63.5295 102.753C75.8809 102.753 85.8937 112.731 85.8937 125.038C85.8937 137.347 75.8809 147.324 63.5295 147.324C51.1781 147.324 41.1671 137.345 41.1671 125.038C41.1671 112.731 51.1781 102.753 63.5295 102.753Z" fill="black"/>
<path fill-rule="evenodd" clip-rule="evenodd" d="M63.5294 107.002C73.5253 107.002 81.6281 115.077 81.6281 125.038C81.6281 135 73.5253 143.075 63.5294 143.075C53.5336 143.075 45.4308 135 45.4308 125.038C45.4308 115.079 53.5336 107.002 63.5294 107.002Z" fill="white"/>
<path fill-rule="evenodd" clip-rule="evenodd" d="M63.5294 119.35C66.6814 119.35 69.237 121.897 69.237 125.038C69.237 128.179 66.6814 130.726 63.5294 130.726C60.3774 130.726 57.8218 128.179 57.8218 125.038C57.8218 121.897 60.3774 119.35 63.5294 119.35Z" fill="black"/>
<path fill-rule="evenodd" clip-rule="evenodd" d="M62.8839 83.5331L55.0869 62.1636H133.646L124.971 83.2415L62.8839 83.5331Z" fill="#5DAA96"/>
<path fill-rule="evenodd" clip-rule="evenodd" d="M53.2335 48.9537C84.3649 57.4801 117.788 52.7438 143 46.9674L136.166 62.5041C109.307 71.1659 81.9433 69.4279 55.0851 62.1637L53.2335 48.9537Z" fill="#3E8B77"/>
<path d="M36.4561 31.7805C36.1767 31.4513 36.2183 30.9566 36.5486 30.6783C36.8789 30.3999 37.3753 30.4413 37.6546 30.7704L110.951 117.413C111.231 117.742 111.189 118.237 110.859 118.515C110.529 118.793 110.032 118.752 109.753 118.423L36.4561 31.7805Z" fill="#895737"/>
<path fill-rule="evenodd" clip-rule="evenodd" d="M29.5273 28.8461H40.4442C41.4766 28.8461 42.3203 29.6869 42.3203 30.7157C42.3203 31.7446 41.4766 32.5854 40.4442 32.5854H29.5273C28.4949 32.5854 27.6512 31.7446 27.6512 30.7157C27.6512 29.6887 28.4949 28.8461 29.5273 28.8461Z" fill="#2D9B4E"/>
<path fill-rule="evenodd" clip-rule="evenodd" d="M120.358 103.86C132.408 103.86 142.177 113.596 142.177 125.604C142.177 137.612 132.408 147.348 120.358 147.348C108.309 147.348 98.5396 137.612 98.5396 125.604C98.5396 113.596 108.309 103.86 120.358 103.86Z" fill="black"/>
<path fill-rule="evenodd" clip-rule="evenodd" d="M120.358 108.006C130.111 108.006 138.017 115.885 138.017 125.604C138.017 135.323 130.111 143.202 120.358 143.202C110.606 143.202 102.699 135.323 102.699 125.604C102.699 115.885 110.606 108.006 120.358 108.006Z" fill="white"/>
<path fill-rule="evenodd" clip-rule="evenodd" d="M120.358 120.053C123.435 120.053 125.928 122.538 125.928 125.604C125.928 128.67 123.435 131.155 120.358 131.155C117.282 131.155 114.788 128.67 114.788 125.604C114.788 122.538 117.282 120.053 120.358 120.053Z" fill="black"/>
<path fill-rule="evenodd" clip-rule="evenodd" d="M136.083 54.3708L143 46.9674L114.249 54.3708H136.083Z" fill="#B7E5ED" fill-opacity="0.2"/>
<defs>
<linearGradient id="paint0_linear" x1="103.568" y1="62.9588" x2="-28.5359" y2="179.016" gradientUnits="userSpaceOnUse">
<stop stop-color="#8B3BF5"/>
<stop offset="1" stop-color="#8B3BF5" stop-opacity="0"/>
</linearGradient>
</defs>
</svg>
