<svg width="221" height="143" viewBox="0 0 221 143" fill="none" xmlns="http://www.w3.org/2000/svg">
<path d="M172.59 109.914C176.981 98.0273 175.411 84.3433 167.554 74.1406C156.411 59.6789 133.166 60.4169 118.987 50.0653C107.607 41.7556 104.547 27.5784 92.4541 19.9736C77.8978 10.82 61.0103 12.2563 47.5069 22.9189C32.8082 34.5247 30.03 58.1268 32.434 75.4611C34.2983 88.9135 41.6592 104.802 53.0003 112.82C59.3911 117.337 68.1097 118.135 75.1196 114.796C81.9408 111.546 88.666 107.389 96.5071 107.796C103.818 108.177 109.554 112.549 114.395 117.738C122.517 126.445 132.848 132.921 145.276 130.853C155.289 129.185 166.226 123.155 170.902 113.81C171.541 112.539 172.103 111.238 172.59 109.914Z" fill="url(#paint0_linear)" fill-opacity="0.1"/>
<path fill-rule="evenodd" clip-rule="evenodd" d="M179.525 132.366C178.626 133.362 175.606 138.714 178.02 139.903C178.638 140.208 179.654 138.859 179.912 138.283C180.736 136.442 181.397 134.544 180.243 132.738C180.071 132.466 179.633 132.247 179.525 132.366Z" fill="#703129"/>
<path fill-rule="evenodd" clip-rule="evenodd" d="M185.862 134.956L185.606 138.078L184.24 138.056L184.894 133.665L185.862 134.956Z" fill="#703129"/>
<path fill-rule="evenodd" clip-rule="evenodd" d="M177.57 140.176L184.718 138.773L184.658 140.457C183.139 141.92 179.763 142.004 177.599 141.496L177.57 140.176Z" fill="#703129"/>
<path fill-rule="evenodd" clip-rule="evenodd" d="M185.494 125.368C185.546 126.1 186.032 126.797 185.977 127.607C185.905 128.649 186.002 130.617 185.967 131.822C185.948 132.45 185.802 137.964 185.605 138.078C185.338 138.233 185.483 133.258 184.956 135.512C184.775 136.291 184.94 139.112 184.445 139.523C182.83 140.861 177.538 141.158 177.568 140.138C177.624 138.203 179.195 136.067 180.523 134.725C181.981 133.251 183.462 129.928 183.736 127.907C183.801 127.425 184.519 125.8 184.739 125.756C184.802 125.52 185.488 125.27 185.494 125.368Z" fill="#BC5B40"/>
<path fill-rule="evenodd" clip-rule="evenodd" d="M181.034 98.6495C180.237 102.884 182.418 119.818 182.218 126.685C182.109 130.444 180.545 132.743 179.76 136.1C179.482 137.29 182.328 137.18 183.388 137.031C183.106 136.789 185.809 127.858 185.871 125.707C186.171 115.418 188.9 111.393 187.823 99.9666C187.761 99.307 189.506 86.2303 189.424 86.226C185.251 86.0115 183.92 85.6367 180.662 87.2257C180.361 87.373 181.092 98.3344 181.034 98.6495Z" fill="#ED9689"/>
<path fill-rule="evenodd" clip-rule="evenodd" d="M168.53 86.1674C166.361 88.1582 163.526 101.332 165.489 105.292C168.197 110.752 178.403 125.217 179.006 128.827C179.496 131.766 177.977 138.005 181.74 134.542C182.417 133.919 182.592 126.215 182.097 125.746C179.887 123.657 178.186 116.611 177.787 113.386C176.801 105.392 170.658 105.492 171.738 100.58C172.618 96.5731 178.886 86.0591 173.422 86.0591C172.8 86.0602 168.753 85.9627 168.53 86.1674Z" fill="#ED9689"/>
<path fill-rule="evenodd" clip-rule="evenodd" d="M171.879 56.5241C168.471 65.9106 165.071 72.0833 160.641 80.7311C160.247 81.499 156.835 86.8974 157.016 86.9938C158.082 87.5635 159.175 92.56 165.964 94.0038C169.039 94.658 173.554 92.7116 176.766 95.205C178.77 96.7604 182.213 96.9554 184.357 95.8311C186.276 94.8248 190.627 94.319 192.599 95.1184C196.179 96.5687 191.482 56.8956 184.943 55.6338C181.793 55.0261 178.164 56.2273 174.453 56.2273C174.003 56.2262 171.909 56.4396 171.879 56.5241Z" fill="#BC5B40"/>
<path fill-rule="evenodd" clip-rule="evenodd" d="M175.453 13.7359C174.971 15.5664 175.021 16.8348 171.971 18.6534C169.01 20.4221 167.459 28.1611 171.283 30.1292C180.801 35.0217 174.938 40.2587 176.983 39.2037C186.658 34.2169 175.272 35.2264 184.111 52.5761C185.658 55.6132 201.699 55.2276 204.451 52.2414C205.675 50.9146 204.031 51.6424 203.616 51.6219C197.664 51.3294 214.406 29.7826 202.742 26.8679C199.928 26.1649 195.912 25.9439 195.098 23.9802C196.204 22.5028 197.715 20.2683 195.961 16.2065C194.79 13.4998 192.676 15.9076 191.442 11.0736C190.33 6.71719 170.92 4.86611 175.366 13.5908C175.396 13.6428 175.422 13.6904 175.453 13.7359Z" fill="#D55147"/>
<path fill-rule="evenodd" clip-rule="evenodd" d="M192.413 35.3779C193.37 39.7863 196.68 46.3631 197.701 47.6358C203.171 54.4563 207.328 60.5294 213.421 66.3697C214.102 67.0218 214.518 67.4182 214.529 67.4247C214.771 67.533 214.997 67.6402 215.206 67.7464C216.887 68.6064 219.926 68.6421 219.795 68.7104C217.43 69.9202 217.02 69.2725 217.058 69.5032C217.061 69.5249 217.066 69.5487 217.071 69.5736C217.454 69.9018 217.839 70.2473 218.433 70.5452C218.9 70.7802 221.09 72.3703 220.998 72.9833C220.947 73.318 218.426 71.7637 218.167 71.6359C217.684 71.3987 217.288 71.168 217.858 71.9349C218.14 72.3151 221.179 74.4857 220.654 74.5831C219.704 74.7586 218.868 74.0112 218.159 73.4892C213.602 70.1336 220.677 76.5035 218.735 75.7962C217.968 75.5168 215.633 72.9043 215.81 73.3744C217.881 78.8615 214.745 74.0806 213.23 71.5764C205.882 63.9749 196.618 57.7014 190.582 48.7937C188.628 45.9103 185.254 39.7105 183.062 33.6763C186.361 33.112 189.659 33.5593 192.413 35.3779Z" fill="#F5988A"/>
<path fill-rule="evenodd" clip-rule="evenodd" d="M167.171 41.0677C167.73 39.5036 165.963 46.0263 165.924 46.0696C165.87 46.1292 163.743 52.5587 162.996 53.788C161.283 56.6052 160.932 57.1956 159.936 60.3691C159.332 62.2949 157.087 72.2175 155.193 72.2175C152.538 72.2175 150.984 74.4553 153.089 74.4553C154.716 74.4553 159.117 73.9906 155.53 76.1049C154.94 76.4526 158.328 76.8382 158.468 75.2384C158.618 73.5162 158.539 72.9703 158.609 72.6281C160.148 71.2221 169.43 58.8582 169.311 56.0528C169.03 49.5226 175.876 44.7763 170.518 39.9618C169.982 39.482 167.66 39.7008 167.171 41.0677Z" fill="#F5988A"/>
<path d="M176.237 14.3446C173.992 18.5244 172.866 22.6934 176.621 25.3752C176.462 27.4137 176.109 28.6799 175.686 29.4533C175.052 30.6761 172.415 29.5529 172.415 30.0446C172.415 30.8732 172.931 32.603 173.868 32.9009C176.945 36.8565 189.555 36.4048 191.506 33.8573C191.916 30.2288 177.936 35.508 182.53 25.0655C182.549 25.0037 184.93 22.4161 185.049 22.3414C187.398 20.8337 185.41 17.5182 183.26 19.5306C181.874 20.8315 183.8 18.7887 182.389 18.1074C180.616 17.2496 181.801 17.6698 180.992 16.3852C180.274 15.2393 176.432 13.894 176.237 14.3446Z" fill="#F7AC9F"/>
<path fill-rule="evenodd" clip-rule="evenodd" d="M179.333 25.1369C179.722 24.9268 180.365 24.3841 179.91 25.0394C179.47 25.6785 176.587 27.8772 176.023 27.9736C177.017 22.4713 173.676 26.4291 179.333 25.1369Z" fill="#D07A5F"/>
<path d="M177.383 18.0165C177.432 17.8606 177.34 17.6938 177.184 17.6483C177.027 17.6006 176.86 17.6905 176.815 17.8476C176.772 17.9862 176.629 18.3177 176.476 18.6588C176.299 19.0423 176.113 19.4344 176.026 19.5838C175.866 19.8481 175.673 20.354 175.856 20.6421C176.02 20.8944 176.192 21.0515 176.413 21.1436C176.62 21.2302 176.85 21.2497 177.144 21.2302C177.307 21.2194 177.432 21.0797 177.423 20.9161C177.41 20.7526 177.271 20.628 177.108 20.6388C176.901 20.6518 176.754 20.6432 176.64 20.5966C176.239 20.4244 176.367 20.1796 176.536 19.8795C176.637 19.7127 176.837 19.299 177.017 18.9004C177.183 18.5343 177.337 18.1747 177.383 18.0165Z" fill="#D07A5F"/>
<path fill-rule="evenodd" clip-rule="evenodd" d="M178.804 17.3037C178.619 17.2473 178.393 17.4326 178.309 17.7185C178.222 18.0034 178.304 18.2807 178.495 18.337C178.685 18.3933 178.911 18.2081 178.994 17.9221C179.078 17.6362 178.996 17.3589 178.804 17.3037Z" fill="#212C3D"/>
<path fill-rule="evenodd" clip-rule="evenodd" d="M176.419 16.4763C176.229 16.4199 176.007 16.6052 175.92 16.8911C175.833 17.176 175.92 17.4533 176.106 17.5096C176.296 17.5659 176.522 17.3807 176.605 17.0947C176.693 16.8099 176.606 16.5315 176.419 16.4763Z" fill="#212C3D"/>
<path fill-rule="evenodd" clip-rule="evenodd" d="M175.592 21.619C176.327 22.4205 179.032 22.1779 179.026 22.192C178.591 23.9229 175.857 24.1276 175.558 21.6104L175.592 21.619Z" fill="#D6EDFB"/>
<path fill-rule="evenodd" clip-rule="evenodd" d="M173.281 29.9635C174.681 31.9229 175.656 33.1652 177.999 34.2852C184.634 37.4555 189.419 33.0667 191.525 33.2324C193.64 33.748 196.647 40.1471 196.689 41.2314C196.648 41.3094 192.136 48.9487 188.453 46.3492C187.605 45.7502 185.189 51.4248 186.305 53.4297C191.472 62.7046 169.45 58.2637 171.534 56.3238C172.582 53.3062 167.979 38.7705 164.528 38.7705C164.528 36.1623 168.298 31.8958 170.57 30.4552C171.658 29.7653 172.561 28.9562 173.281 29.9635Z" fill="#60C6D0"/>
<path fill-rule="evenodd" clip-rule="evenodd" d="M183.008 30.5192C182.551 30.5192 182.18 30.8571 182.18 31.2741C182.18 31.6911 182.551 32.0291 183.008 32.0291C183.466 32.0291 183.837 31.6911 183.837 31.2741C183.837 30.8571 183.466 30.5192 183.008 30.5192Z" fill="#D6EFFD"/>
<path fill-rule="evenodd" clip-rule="evenodd" d="M182.054 32.1135C181.597 32.1135 181.226 32.4515 181.226 32.8685C181.226 33.2855 181.597 33.6234 182.054 33.6234C182.512 33.6234 182.882 33.2855 182.882 32.8685C182.882 32.4515 182.512 32.1135 182.054 32.1135Z" fill="#D6EFFD"/>
<path fill-rule="evenodd" clip-rule="evenodd" d="M180.356 33.1478C179.899 33.1478 179.528 33.4858 179.528 33.9028C179.528 34.3198 179.899 34.6577 180.356 34.6577C180.814 34.6577 181.185 34.3198 181.185 33.9028C181.185 33.4858 180.814 33.1478 180.356 33.1478Z" fill="#D6EFFD"/>
<path fill-rule="evenodd" clip-rule="evenodd" d="M178.336 33.2876C177.878 33.2876 177.508 33.6255 177.508 34.0425C177.508 34.4596 177.878 34.7975 178.336 34.7975C178.794 34.7975 179.164 34.4596 179.164 34.0425C179.164 33.6255 178.794 33.2876 178.336 33.2876Z" fill="#D6EFFD"/>
<path fill-rule="evenodd" clip-rule="evenodd" d="M176.383 32.5977C175.925 32.5977 175.555 32.9356 175.555 33.3526C175.555 33.7696 175.925 34.1075 176.383 34.1075C176.84 34.1075 177.211 33.7696 177.211 33.3526C177.21 32.9356 176.839 32.5977 176.383 32.5977Z" fill="#D6EFFD"/>
<path fill-rule="evenodd" clip-rule="evenodd" d="M175.193 30.8547C174.735 30.8547 174.365 31.1927 174.365 31.6097C174.365 32.0267 174.735 32.3646 175.193 32.3646C175.65 32.3646 176.021 32.0267 176.021 31.6097C176.021 31.1927 175.65 30.8547 175.193 30.8547Z" fill="#D6EFFD"/>
<path fill-rule="evenodd" clip-rule="evenodd" d="M174.904 28.8955C174.446 28.8955 174.075 29.2334 174.075 29.6505C174.075 30.0675 174.446 30.4054 174.904 30.4054C175.361 30.4054 175.732 30.0675 175.732 29.6505C175.731 29.2334 175.36 28.8955 174.904 28.8955Z" fill="#D6EFFD"/>
<path d="M174.704 46.2701C174.537 46.0838 174.252 46.0675 174.065 46.2332C173.878 46.399 173.861 46.6838 174.028 46.8701L180.409 54.0004C180.575 54.1867 180.861 54.203 181.048 54.0373C181.235 53.8715 181.251 53.5867 181.085 53.4004L174.704 46.2701Z" fill="#41809F"/>
<path d="M174.647 48.2837C174.481 48.0974 174.195 48.0812 174.008 48.2469C173.821 48.4126 173.805 48.6975 173.971 48.8838L177.226 52.5199C177.393 52.7062 177.678 52.7224 177.865 52.5567C178.052 52.391 178.069 52.1061 177.902 51.9198L174.647 48.2837Z" fill="#41809F"/>
<path fill-rule="evenodd" clip-rule="evenodd" d="M129.749 89.0995L139.346 59.9123L125.288 57.5077L122.987 90.9419L129.749 89.0995Z" fill="#3E8B77"/>
<path fill-rule="evenodd" clip-rule="evenodd" d="M132.387 88.8167L127.112 89.381L139.346 59.9121L147.148 66.6211L132.387 88.8167Z" fill="#5DAA96"/>
<path fill-rule="evenodd" clip-rule="evenodd" d="M132.387 88.8168L147.148 66.6211L152.256 75.7758L136.26 88.8168H132.387Z" fill="#3E8B77"/>
<path fill-rule="evenodd" clip-rule="evenodd" d="M136.26 88.8167L152.256 75.7758L152.424 84.5535L135.867 88.8167H136.26Z" fill="#5DAA96"/>
<path fill-rule="evenodd" clip-rule="evenodd" d="M111.564 126.882H139.964V125.428H111.564V126.882Z" fill="#895737"/>
<path d="M133.629 105.079C133.799 104.897 134.086 104.886 134.269 105.056C134.451 105.225 134.461 105.511 134.291 105.693L114.31 127.172C114.141 127.354 113.854 127.363 113.671 127.194C113.489 127.025 113.479 126.739 113.648 126.558L133.629 105.079Z" fill="#895737"/>
<path d="M107.079 104.119C106.91 103.937 106.623 103.928 106.44 104.097C106.258 104.266 106.248 104.552 106.418 104.733L124.895 115.792C125.065 115.974 125.352 115.984 125.533 115.815C125.716 115.646 125.726 115.36 125.556 115.178L107.079 104.119Z" fill="#895737"/>
<path d="M141.334 104.541C141.496 104.359 141.769 104.349 141.943 104.518C142.117 104.687 142.127 104.973 141.965 105.155L125.196 115.584C125.035 115.766 124.762 115.776 124.588 115.607C124.414 115.438 124.404 115.152 124.566 114.97L141.334 104.541Z" fill="#895737"/>
<path fill-rule="evenodd" clip-rule="evenodd" d="M106.661 116.677C113.773 116.677 119.539 122.423 119.539 129.51C119.539 136.598 113.773 142.343 106.661 142.343C99.5485 142.343 93.7838 136.597 93.7838 129.51C93.7838 122.423 99.5485 116.677 106.661 116.677Z" fill="black"/>
<path fill-rule="evenodd" clip-rule="evenodd" d="M106.661 119.124C112.417 119.124 117.083 123.774 117.083 129.51C117.083 135.247 112.417 139.896 106.661 139.896C100.905 139.896 96.239 135.247 96.239 129.51C96.239 123.775 100.905 119.124 106.661 119.124Z" fill="white"/>
<path fill-rule="evenodd" clip-rule="evenodd" d="M106.661 126.235C108.476 126.235 109.948 127.701 109.948 129.51C109.948 131.319 108.476 132.786 106.661 132.786C104.846 132.786 103.374 131.319 103.374 129.51C103.374 127.701 104.846 126.235 106.661 126.235Z" fill="black"/>
<path fill-rule="evenodd" clip-rule="evenodd" d="M106.289 105.61L101.799 93.3042H147.037L142.042 105.442L106.289 105.61Z" fill="#5DAA96"/>
<path fill-rule="evenodd" clip-rule="evenodd" d="M100.732 85.6974C118.659 90.6073 137.905 87.8799 152.424 84.5536L148.488 93.5003C133.022 98.4882 117.264 97.4874 101.798 93.3043L100.732 85.6974Z" fill="#3E8B77"/>
<path d="M91.0709 75.8083C90.9101 75.6188 90.934 75.3339 91.1242 75.1736C91.3144 75.0133 91.6002 75.0372 91.7611 75.2267L133.969 125.119C134.129 125.309 134.106 125.594 133.915 125.754C133.725 125.914 133.439 125.89 133.278 125.701L91.0709 75.8083Z" fill="#895737"/>
<path fill-rule="evenodd" clip-rule="evenodd" d="M87.081 74.1185H93.3675C93.962 74.1185 94.4478 74.6027 94.4478 75.1952C94.4478 75.7876 93.962 76.2718 93.3675 76.2718H87.081C86.4865 76.2718 86.0007 75.7876 86.0007 75.1952C86.0007 74.6038 86.4865 74.1185 87.081 74.1185Z" fill="#2D9B4E"/>
<path fill-rule="evenodd" clip-rule="evenodd" d="M139.386 117.315C146.324 117.315 151.95 122.921 151.95 129.836C151.95 136.751 146.324 142.357 139.386 142.357C132.447 142.357 126.821 136.751 126.821 129.836C126.821 122.921 132.447 117.315 139.386 117.315Z" fill="black"/>
<path fill-rule="evenodd" clip-rule="evenodd" d="M139.386 119.702C145.001 119.702 149.554 124.24 149.554 129.836C149.554 135.433 145.001 139.97 139.386 139.97C133.77 139.97 129.217 135.433 129.217 129.836C129.217 124.24 133.77 119.702 139.386 119.702Z" fill="white"/>
<path fill-rule="evenodd" clip-rule="evenodd" d="M139.386 126.64C141.157 126.64 142.593 128.071 142.593 129.836C142.593 131.602 141.157 133.033 139.386 133.033C137.614 133.033 136.178 131.602 136.178 129.836C136.178 128.071 137.614 126.64 139.386 126.64Z" fill="black"/>
<path fill-rule="evenodd" clip-rule="evenodd" d="M148.44 88.8168L152.424 84.5536L135.867 88.8168H148.44Z" fill="#C4E4E9" fill-opacity="0.2"/>
<path fill-rule="evenodd" clip-rule="evenodd" d="M71.5576 9.17975C68.7036 7.75322 64.7992 9.75813 62.8364 13.6569C60.8747 17.5557 59.2059 30.6653 62.0599 32.0918C64.9139 33.5184 71.2111 22.7212 73.1728 18.8224C75.1356 14.9236 74.4127 10.6063 71.5576 9.17975Z" fill="#00203F"/>
<path fill-rule="evenodd" clip-rule="evenodd" d="M73.2686 9.92486C70.4135 8.49834 66.509 10.5032 64.5473 14.402C62.5856 18.3019 63.3097 22.6181 66.1637 24.0447C69.0188 25.4712 72.9221 23.4663 74.8849 19.5675C76.8466 15.6687 76.1237 11.3514 73.2686 9.92486Z" fill="#D55147"/>
<path fill-rule="evenodd" clip-rule="evenodd" d="M75.9666 18.1697C77.2187 17.7656 77.5974 14.4108 76.5837 13.0509C72.6236 7.74441 64.3747 12.1794 63.6784 17.8189C63.6261 18.2452 61.6833 25.3956 61.4639 26.0061C59.8754 30.4234 55.6222 35.7964 58.9563 39.7696C60.7933 41.9588 63.4768 43.1455 66.0133 44.3978C68.6913 45.7188 71.3358 45.237 73.204 42.8857C75.0554 40.5556 74.3881 36.1828 75.0442 32.9722C75.4419 31.0273 76.2752 28.1043 74.9228 26.3569C73.7554 24.8483 73.3766 16.4679 75.7505 17.9044C75.9933 18.0542 75.9076 18.1886 75.9666 18.1697Z" fill="#00203F"/>
<path fill-rule="evenodd" clip-rule="evenodd" d="M39.8186 23.424C39.9122 22.8711 39.9634 23.485 40.82 24.0967C47.7656 29.0535 47.7288 46.4893 64.3725 45.8365C68.8929 45.6589 68.1655 49.1303 68.5677 52.393C68.7013 53.4798 68.0597 57.161 66.8644 57.161C58.6423 57.161 51.3759 56.5849 46.6193 48.7595C41.465 40.2803 42.9834 36.0185 39.6894 29.7895C38.7058 27.9322 39.5011 25.299 39.8186 23.424Z" fill="#41809F"/>
<path fill-rule="evenodd" clip-rule="evenodd" d="M91.2725 54.9683C94.1799 54.5298 98.7794 54.9517 99 60.6611C99.0067 60.8487 90.1607 57.9124 88.5644 57.9124C78.5555 57.9124 74.4639 51.185 73.321 41.9176C72.8721 38.2819 70.0047 31.086 74.5642 31.1082C87.2823 31.1682 76.1271 54.0214 91.2725 54.9683Z" fill="#F5988A"/>
<path fill-rule="evenodd" clip-rule="evenodd" d="M3.39647 133.513L3.32517 133.131L3.79972 126.508L7.05362 127.052L6.51557 132.031L3.39647 133.513Z" fill="#ED9689"/>
<path fill-rule="evenodd" clip-rule="evenodd" d="M42.9053 134.315L42.8329 133.932L43.4779 127.225L46.7318 127.769L46.1937 132.749L42.9053 134.315Z" fill="#ED9689"/>
<path fill-rule="evenodd" clip-rule="evenodd" d="M42.5465 135.397C42.3527 136.006 42.4385 136.864 42.3482 137.192C42.1644 137.867 44.9694 137.696 45.0363 137.637C46.0645 136.738 47.5483 137.927 48.5742 137.893C48.7502 137.888 56.2183 138.283 56.2183 137.776C56.2183 137.443 56.6494 136.648 55.6992 136.433C54.27 136.109 53.7063 135.905 52.0765 135.87C51.4238 135.855 47.1138 135.72 46.6359 135.607C45.552 135.349 44.9516 135.182 43.8309 135.182C43.7764 135.182 43.03 135.373 42.7036 135.363C42.6891 135.363 42.5477 135.391 42.5465 135.397Z" fill="#010203"/>
<path fill-rule="evenodd" clip-rule="evenodd" d="M42.9678 132.305C42.4198 133.176 42.09 134.887 42.4588 135.769C42.5245 135.924 48.0074 136.999 48.0998 137.004C48.8796 137.054 56.2406 137.137 56.2406 136.788C56.2406 134.614 48.6245 134.412 48.0174 133.223C47.6097 132.426 46.7141 131.782 45.4932 132.031C44.6677 132.199 44.6532 133.237 44.0083 133.02C43.8991 132.983 43.0625 132.154 42.9678 132.305Z" fill="#656666"/>
<path fill-rule="evenodd" clip-rule="evenodd" d="M2.84506 135.002C2.65123 135.612 2.78044 136.349 2.69021 136.677C2.5053 137.352 5.31136 137.18 5.3782 137.122C6.40639 136.223 7.88907 137.412 8.91614 137.378C9.09215 137.373 16.5613 137.767 16.5613 137.262C16.5613 136.929 16.9901 136.133 16.0421 135.918C14.6107 135.594 14.0493 135.39 12.4173 135.355C11.7656 135.341 7.45685 135.206 6.97673 135.091C5.89285 134.834 5.29466 134.667 4.17179 134.667C4.11943 134.667 3.32962 134.978 3.00323 134.969C2.98875 134.967 2.84617 134.995 2.84506 135.002Z" fill="#010203"/>
<path fill-rule="evenodd" clip-rule="evenodd" d="M3.30844 131.789C2.76037 132.66 2.43063 134.37 2.80047 135.252C2.86619 135.408 8.348 136.482 8.44158 136.488C9.22135 136.538 16.5813 136.621 16.5813 136.272C16.5813 134.099 8.96514 133.896 8.35803 132.707C7.95143 131.91 7.05358 131.266 5.8349 131.515C5.00723 131.683 4.99386 132.721 4.34776 132.504C4.24194 132.467 3.40313 131.638 3.30844 131.789Z" fill="#656666"/>
<path d="M47.6642 131.153C44.6732 131.722 37.1205 132.038 36.9334 130.059L28.201 76.3254C26.9935 83.8421 26.0299 91.3822 25.1365 98.9278H25.0797C21.1162 108.762 15.5988 117.934 11.4816 127.704C11.2187 128.329 10.9525 128.956 10.674 129.573C10.4846 129.992 10.234 130.731 9.64133 130.543C8.19318 130.083 1.04934 129.29 1.29219 126.718C1.88927 120.374 6.18025 106.037 9.37509 95.4642C9.41408 93.618 9.44193 91.9994 9.4475 90.7128C9.46644 85.9869 9.56335 81.2555 9.78837 76.5352C10.0802 70.4073 10.7776 59.4691 12.9832 53.5632C13.5758 51.9768 14.7032 49.5611 16.686 49.4701C17.9827 49.4102 19.3228 49.4257 20.6216 49.4224C22.7816 49.4168 24.9427 49.4213 27.1038 49.4301C29.5489 49.4401 31.993 49.4546 34.437 49.4801C35.2468 49.489 36.0545 49.4979 36.8621 49.5123C37.2664 49.5201 38.1086 49.4235 38.3169 49.8953C42.0654 58.3501 50.4479 126.213 47.6642 131.153Z" fill="#3A5578"/>
<path d="M28.3804 77.7989C28.3593 77.9088 28.2534 77.982 28.142 77.9621C28.0306 77.9421 27.9593 77.8355 27.9783 77.7256L29.5545 67.9586C29.5746 67.8487 29.6815 67.7754 29.7907 67.7954C29.9021 67.8154 29.9756 67.922 29.9556 68.0319L28.3804 77.7989Z" fill="#437D98"/>
<path fill-rule="evenodd" clip-rule="evenodd" d="M40.7141 61.6593L40.8289 57.8226L20.5927 60.306L19.7071 60.9111C25.1655 63.1147 32.248 62.9249 40.7141 61.6593Z" fill="#865638"/>
<path d="M34.2399 7.37023C35.7727 11.1114 36.3609 14.7449 32.9377 16.6887C33.1159 17.6268 33.5303 19.6372 34.4682 20.2756C35.7537 21.1492 41.4138 23.8868 40.2519 24.2032C37.5461 27.1917 22.9933 27.1329 21.3157 23.3018C21.7334 22.5458 28.7536 19.9947 27.9538 15.9072C27.7778 15.0091 26.8978 15.1856 26.333 14.3885L24.9884 12.488L25.9576 8.58694C26.646 5.8227 32.1256 2.21032 34.2399 7.37023Z" fill="#ED9689"/>
<path fill-rule="evenodd" clip-rule="evenodd" d="M30.6596 16.2493C30.3477 16.0372 29.8519 15.521 30.1783 16.1161C30.3711 16.4646 30.7532 16.8465 31.0862 17.0874C31.4071 17.3217 32.6525 18.2142 33.5024 18.4529C33.3442 14.2299 34.6064 17.9189 30.6596 16.2493Z" fill="#D07A5F"/>
<path d="M32.1021 10.3889C32.0765 10.2512 32.1678 10.1191 32.3048 10.0936C32.443 10.068 32.5756 10.158 32.6023 10.2956C32.6246 10.4166 32.7148 10.7108 32.8162 11.0128C32.9298 11.3536 33.0579 11.7022 33.1181 11.8376C33.2272 12.0774 33.3487 12.5225 33.1671 12.7501C33.0056 12.9499 32.8451 13.0676 32.6513 13.1265C32.4675 13.1831 32.2692 13.1775 32.0252 13.1365C31.886 13.1142 31.7935 12.9833 31.8158 12.8456C31.8381 12.7079 31.9695 12.6147 32.1077 12.6369C32.6502 12.7279 32.8964 12.5581 32.6558 12.0441C32.5889 11.8942 32.4552 11.5256 32.336 11.1715C32.2269 10.8451 32.1288 10.5265 32.1021 10.3889Z" fill="#D07A5F"/>
<path fill-rule="evenodd" clip-rule="evenodd" d="M30.624 9.66149C30.791 9.63041 30.9637 9.80803 31.0105 10.0567C31.0562 10.3065 30.9615 10.5341 30.7944 10.5651C30.6284 10.5962 30.4546 10.4197 30.409 10.1699C30.3633 9.92015 30.4591 9.69257 30.624 9.66149Z" fill="#212C3D"/>
<path fill-rule="evenodd" clip-rule="evenodd" d="M33.4422 9.49635C33.6093 9.46526 33.7798 9.64177 33.8277 9.89156C33.8756 10.1402 33.7787 10.3678 33.6138 10.3989C33.4478 10.43 33.274 10.2535 33.2272 10.0037C33.1815 9.75501 33.2762 9.52743 33.4422 9.49635Z" fill="#212C3D"/>
<path fill-rule="evenodd" clip-rule="evenodd" d="M26.2082 14.2099C24.4259 11.752 26.3976 10.4798 27.7009 13.2563C27.5505 12.4603 28.9096 12.8588 28.3715 12.6146C27.0169 12.0018 26.2839 8.59592 27.5583 7.01065C28.3114 6.07591 29.9121 5.76508 30.8367 6.47223C33.2418 8.30618 33.4701 4.57834 35.2703 10.6042C35.3549 10.8906 35.5788 10.411 35.5911 10.3666C35.8306 9.51289 35.8473 8.64033 35.6535 7.82327C37.2008 7.33259 37.8045 6.10256 37.8045 4.5406C37.8045 3.1385 37.6074 4.33411 37.0326 4.33411C37.0036 4.21866 37.1774 -1.40751 35.9531 0.334295C34.3167 2.66669 23.7374 -0.794713 21.8003 2.28813C17.4113 9.2831 26.2104 14.2132 26.2082 14.2099Z" fill="black"/>
<path fill-rule="evenodd" clip-rule="evenodd" d="M41.4316 58.5544C34.8915 59.9709 19.1634 61.1088 12.3259 59.589C8.36579 57.5863 15.6745 34.4589 15.5754 29.8873C19.0264 28.2199 19.7171 23.3575 24.4447 21.417C28.7446 26.9754 35.7782 25.4057 34.7533 20.4689L34.7377 20.4401L41.5285 25.5278C41.7524 25.9375 42.0041 26.6879 42.2938 27.5849C42.6881 32.4151 42.6881 38.2389 42.2871 41.486C41.416 48.5243 41.4316 52.0423 41.4316 58.5544Z" fill="#D6EDFB"/>
<path fill-rule="evenodd" clip-rule="evenodd" d="M30.4647 13.1483C30.8612 13.9021 33.3498 14.1874 33.9257 13.6656C34.0037 13.5946 32.9009 15.3264 31.9084 14.9845C31.3258 14.7835 30.4836 13.7034 30.4703 13.1661L30.4647 13.1483Z" fill="#D6EDFB"/>
<path fill-rule="evenodd" clip-rule="evenodd" d="M24.3612 21.3568C12.7872 23.848 10.3955 34.3743 10.3955 45.0304C10.3955 49.1535 6.50555 57.8292 1.33514e-05 57.2741C1.33514e-05 61.617 20.5515 69.1293 22.2737 65.1983C28.3927 51.2161 39.4521 34.0101 24.3612 21.3568Z" fill="#41809F"/>
<path fill-rule="evenodd" clip-rule="evenodd" d="M35.0218 20.7175C38.2902 23.2996 42.0565 61.8191 39.1903 63.7296C47.3244 65.406 46.6471 66.5849 46.6471 59.9652C46.6471 48.8727 50.4391 25.0004 36.1915 20.9328C35.346 20.6908 34.2019 20.0703 35.0218 20.7175Z" fill="#41809F"/>
<path fill-rule="evenodd" clip-rule="evenodd" d="M27.6786 57.2243C29.7573 58.5309 38.1454 63.3777 32.3662 58.2456C31.9317 57.8593 35.7682 59.2425 36.7251 59.0982C39.148 58.734 28.3336 56.1452 34.906 57.0411C35.9275 57.181 37.2052 57.4796 38.1153 56.7647C38.6188 56.3683 34.271 55.8388 33.7731 55.6068C32.7694 55.135 33.3086 55.1505 33.9413 55.1228C34.2844 55.1072 37.7611 55.2926 37.6385 54.9174C37.4146 54.2336 34.2677 53.825 33.6517 53.8461C32.8686 53.8739 32.2793 53.734 31.7034 53.6108C31.6844 53.5886 31.6677 53.5653 31.6532 53.5453C31.4917 53.3299 32.2648 53.7673 34.1251 51.1851C34.2287 51.0408 31.0027 52.7149 28.7759 52.776C28.591 52.7804 28.3971 52.7904 28.1955 52.8026C25.9175 51.6558 15.1444 48.4609 10.6751 47.9025C11.4237 55.2416 18.3314 57.8271 27.6786 57.2243Z" fill="#F2AB9E"/>
<path fill-rule="evenodd" clip-rule="evenodd" d="M74.3937 101.428C73.8501 108.952 72.432 117.401 72.6871 124.195C72.804 127.277 77.2878 131.754 77.2232 132.881C76.2451 132.536 74.9863 132.198 74.2711 131.595C73.097 130.605 71.1397 127.364 70.204 125.884C69.6894 125.801 69.2649 125.43 69.1725 124.677C68.6355 120.344 66.6571 107.264 67.1261 104.658C67.3355 103.499 66.8899 101.25 66.1391 98.3715L66.2282 98.4936C67.9594 100.845 70.9805 91.7107 74.6655 91.2511L74.3937 101.428Z" fill="#F5988A"/>
<path fill-rule="evenodd" clip-rule="evenodd" d="M70.1606 103.706C66.8199 109.783 61.7045 114.506 59.3106 120.278C58.2256 122.895 60.2519 128.343 59.7662 129.26C59.0811 128.599 58.161 127.837 57.7945 127.061C57.1941 125.787 56.802 122.335 56.5903 120.743C56.1915 120.476 55.9787 120.006 56.1893 119.342C57.4035 115.519 60.4948 105.249 61.8872 103.252C62.5066 102.363 65.4753 98.7566 65.9521 96.0656L68.3772 95.8991C68.9208 98.5213 70.8179 92.7019 74.0718 93.721L70.1606 103.706Z" fill="#F5988A"/>
<path fill-rule="evenodd" clip-rule="evenodd" d="M77.2243 132.88C76.2462 132.535 74.9874 132.197 74.2723 131.593C72.8219 130.37 70.1729 125.705 69.7395 125.181L69.3062 124.775C69.2884 124.702 69.2204 124.705 69.1748 124.676C69.0221 125.313 68.5521 126.221 68.3137 126.94C67.6943 128.81 67.9527 128.188 68.4017 129.413L69.3118 134.809L69.6616 134.844L69.8587 130.413C71.3047 130.898 72.246 133.571 72.8364 135.068L81.7247 135.696C81.1565 134.99 78.4507 133.3 77.2243 132.88Z" fill="#E78543"/>
<path fill-rule="evenodd" clip-rule="evenodd" d="M63.205 132.062L58.1276 127.595C57.9939 127.418 57.8792 127.239 57.7945 127.06C57.0526 125.485 56.6293 120.581 56.4689 119.977L56.2628 119.473C56.2762 119.405 56.2171 119.383 56.1893 119.34C55.8172 119.814 55.0776 120.393 54.603 120.902C53.3687 122.228 53.8232 121.806 53.7274 123.001L52.4163 127.853L52.697 128.017L54.5607 124.391C55.5822 125.348 55.3438 127.938 55.2625 129.413C57.4525 130.719 59.373 131.34 63.205 132.062Z" fill="#E78543"/>
<path fill-rule="evenodd" clip-rule="evenodd" d="M75.306 15.0602C76.5347 19.4641 76.7152 23.6215 72.6136 25.3567C71.6712 34.0979 74.973 29.9804 75.6102 31.5679C74.3703 36.1383 59.6136 39.1535 58.0819 35.8486C59.3374 27.8367 69.2004 34.9671 67.1206 23.8247C67.1151 23.7625 65.4196 20.8284 65.3272 20.7341C63.4323 18.8224 66.0056 16.1203 67.6008 18.465C70.6474 11.0892 73.8969 14.151 75.3016 15.0468L75.306 15.0602Z" fill="#F5988A"/>
<path fill-rule="evenodd" clip-rule="evenodd" d="M72.8141 25.2681C71.9085 25.2992 70.5661 24.9573 70.1127 24.5632C69.7919 24.2845 69.3029 23.6395 69.5903 24.35C69.8877 25.0805 71.8394 27.2641 72.4543 27.5173C72.4454 27.0454 72.5746 26.0363 72.6136 25.3558C72.6815 25.3281 72.7473 25.2981 72.8141 25.2681Z" fill="#D07A5F"/>
<path d="M73.1973 18.2463C73.1884 18.0887 73.3065 17.9521 73.4635 17.941C73.6228 17.9299 73.7598 18.0487 73.771 18.2063C73.7799 18.3451 73.8445 18.687 73.9169 19.0401C74.0016 19.4386 74.094 19.8471 74.1464 20.0048C74.2366 20.289 74.3157 20.8041 74.0807 21.0361C73.8735 21.2404 73.6774 21.3514 73.4513 21.3913C73.2385 21.4302 73.0168 21.3991 72.7473 21.3203C72.5935 21.2759 72.5077 21.1182 72.5501 20.9661C72.5935 20.8152 72.7528 20.7275 72.9054 20.7719C73.0948 20.8263 73.2352 20.8507 73.351 20.8296C73.7632 20.7552 73.6975 20.4932 73.6005 20.1768C73.5426 19.9992 73.4424 19.5685 73.3532 19.1544C73.2775 18.7747 73.2107 18.404 73.1973 18.2463Z" fill="#D07A5F"/>
<path fill-rule="evenodd" clip-rule="evenodd" d="M74.3759 22.0397C73.517 22.6402 71.0229 21.8443 71.0229 21.8587C71.0663 23.5783 73.5983 24.3443 74.4104 22.0397H74.3759Z" fill="white"/>
<path d="M72.413 18.1507C72.4821 18.2251 72.5969 18.2296 72.6715 18.1607C72.7461 18.0919 72.7506 17.9765 72.6815 17.9021C72.5746 17.7855 72.461 17.69 72.344 17.6134C72.0276 17.4059 71.6945 17.3415 71.3792 17.3859C71.0662 17.4292 70.7721 17.579 70.5304 17.8011C70.4223 17.901 70.322 18.0164 70.2374 18.1463C70.1817 18.2307 70.2051 18.3439 70.2886 18.3983C70.3744 18.4538 70.488 18.4305 70.5437 18.3461C70.6095 18.2451 70.6886 18.1507 70.7788 18.0686C70.9659 17.8965 71.191 17.78 71.4283 17.7478C71.6611 17.7156 71.9073 17.7633 72.1401 17.9176C72.2337 17.9787 72.3239 18.0553 72.413 18.1507Z" fill="black"/>
<path d="M75.3461 17.7746C75.3974 17.8612 75.5121 17.8912 75.599 17.839C75.6859 17.788 75.716 17.6758 75.6625 17.5881C75.5255 17.355 75.3651 17.2063 75.1991 17.1297C75.081 17.0764 74.9641 17.0575 74.8471 17.0686H74.8415C74.729 17.0797 74.6187 17.1186 74.5174 17.1785C74.2812 17.3162 74.0707 17.5759 73.9192 17.9034C73.8791 17.9956 73.9181 18.1043 74.0083 18.1454C74.1007 18.1876 74.211 18.1476 74.2534 18.0566C74.3737 17.7957 74.533 17.5937 74.7045 17.4938C74.7613 17.4594 74.8204 17.4372 74.8772 17.4316H74.8816C74.9351 17.4261 74.9908 17.4361 75.0454 17.4605C75.1467 17.5071 75.2492 17.6081 75.3461 17.7746Z" fill="black"/>
<path d="M74.563 31.1072C74.1642 31.1249 73.9771 31.0783 73.7777 31.2015C71.2345 32.7646 64.1319 32.9733 62.9232 31.1904C62.765 30.9573 60.6875 31.4158 59.0578 32.6736C61.9519 35.1525 63.2864 39.9361 61.5954 43.3387C61.758 44.1524 63.1003 48.9138 63.2474 48.9304L52.6648 93.2725C58.2502 95.4695 76.9948 100.962 84.3202 94.0208C87.4783 90.4484 84.7892 37.7425 74.563 31.1072Z" fill="#703129"/>
<path fill-rule="evenodd" clip-rule="evenodd" d="M65.5912 30.2369C65.8775 30.268 66.0824 30.5322 66.0501 30.8275C66.0178 31.1228 65.7594 31.337 65.4742 31.3059C65.188 31.2749 64.983 31.0106 65.0153 30.7154C65.0476 30.4201 65.3049 30.2058 65.5912 30.2369Z" fill="#D55147"/>
<path fill-rule="evenodd" clip-rule="evenodd" d="M67.2722 32.2042C67.5584 32.2353 67.7634 32.4995 67.7311 32.7948C67.6988 33.0901 67.4415 33.3043 67.1552 33.2732C66.8689 33.2422 66.6639 32.9779 66.6963 32.6826C66.7286 32.3873 66.987 32.1731 67.2722 32.2042Z" fill="#D55147"/>
<path fill-rule="evenodd" clip-rule="evenodd" d="M68.523 33.0856C68.8094 33.1167 69.0143 33.3809 68.982 33.6762C68.9497 33.9715 68.6913 34.1858 68.4061 34.1547C68.1198 34.1236 67.9148 33.8594 67.9471 33.5641C67.9794 33.2688 68.2379 33.0546 68.523 33.0856Z" fill="#D55147"/>
<path fill-rule="evenodd" clip-rule="evenodd" d="M70.0749 33.5021C70.3612 33.5332 70.5661 33.7974 70.535 34.0927C70.5026 34.388 70.2442 34.6023 69.959 34.5712C69.6727 34.5401 69.4678 34.2759 69.5001 33.9806C69.5313 33.6853 69.7886 33.4711 70.0749 33.5021Z" fill="#D55147"/>
<path fill-rule="evenodd" clip-rule="evenodd" d="M71.4751 33.2442C71.7614 33.2753 71.9664 33.5395 71.9341 33.8348C71.9018 34.1301 71.6433 34.3444 71.3582 34.3133C71.0719 34.2822 70.8669 34.018 70.8992 33.7227C70.9315 33.4274 71.19 33.2131 71.4751 33.2442Z" fill="#D55147"/>
<path fill-rule="evenodd" clip-rule="evenodd" d="M72.6313 32.5982C72.9177 32.6293 73.1226 32.8935 73.0903 33.1888C73.058 33.4841 72.8007 33.6984 72.5144 33.6673C72.2281 33.6362 72.022 33.372 72.0554 33.0767C72.0877 32.7814 72.345 32.5671 72.6313 32.5982Z" fill="#D55147"/>
<path fill-rule="evenodd" clip-rule="evenodd" d="M73.3778 31.5856C73.6641 31.6167 73.869 31.8809 73.8367 32.1762C73.8044 32.4715 73.546 32.6858 73.2608 32.6547C72.9746 32.6236 72.7696 32.3594 72.8019 32.0641C72.8342 31.7688 73.0926 31.5546 73.3778 31.5856Z" fill="#D55147"/>
<path fill-rule="evenodd" clip-rule="evenodd" d="M73.5705 30.4003C73.8568 30.4314 74.0617 30.6956 74.0294 30.9909C73.9971 31.2862 73.7387 31.5005 73.4535 31.4694C73.1672 31.4383 72.9623 31.1741 72.9946 30.8788C73.0258 30.5835 73.2842 30.3693 73.5705 30.4003Z" fill="#D55147"/>
<path fill-rule="evenodd" clip-rule="evenodd" d="M66.3331 31.3248C66.6193 31.3559 66.8243 31.6201 66.792 31.9154C66.7597 32.2107 66.5013 32.4249 66.2161 32.3938C65.9298 32.3628 65.7249 32.0985 65.7572 31.8032C65.7895 31.5079 66.0468 31.2937 66.3331 31.3248Z" fill="#D55147"/>
<path fill-rule="evenodd" clip-rule="evenodd" d="M26.4109 50.88L23.6193 58.9274C-11.8538 54.1838 6.66701 22.8236 21.857 22.1564C18.3859 39.56 11.3044 46.0687 26.4109 50.88Z" fill="#41809F"/>
<path d="M9.40959 53.8106C9.29596 53.7163 9.12775 53.7318 9.03307 53.845C8.93838 53.9583 8.95398 54.1259 9.06761 54.2192C11.0649 55.8799 13.3408 57.0023 15.8004 57.7694C18.2478 58.5331 20.8778 58.9461 23.5948 59.1915C23.7196 59.2026 23.8321 59.1271 23.8711 59.0138L27.0113 50.0728C27.0592 49.9374 26.989 49.7886 26.8565 49.7364C24.6497 48.8761 22.7994 48.22 21.2666 47.676C17.7175 46.416 15.8973 45.771 15.3782 44.6587C14.8324 43.4886 15.6489 41.6324 17.3243 37.8213C17.8768 36.5647 18.5207 35.1015 19.2258 33.4097C19.2826 33.2731 19.218 33.1177 19.081 33.0611C18.944 33.0045 18.788 33.0688 18.7312 33.2054C18.0138 34.9239 17.3789 36.3693 16.8342 37.6082C15.093 41.5669 14.2453 43.4964 14.8925 44.8818C15.5063 46.1984 17.3989 46.8689 21.0884 48.1789C22.5633 48.7029 24.3322 49.3301 26.4209 50.1394L23.4355 58.6408C20.8288 58.3966 18.3068 57.9914 15.9597 57.2587C13.5624 56.5116 11.3468 55.4214 9.40959 53.8106Z" fill="#39577B"/>
<path fill-rule="evenodd" clip-rule="evenodd" d="M63.9325 37.3463C63.9325 56.8447 72.1992 56.6881 78.3037 56.5571C81.2111 56.1186 85.8107 56.5405 86.0312 62.2499C86.0379 62.4375 77.192 59.5012 75.5957 59.5012C65.5867 59.5012 59.0032 51.6814 57.8592 42.414C57.4103 38.7783 56.8633 32.1864 61.3314 31.2783C63.1928 30.8997 63.9325 36.2961 63.9325 37.3463Z" fill="#F5988A"/>
<defs>
<linearGradient id="paint0_linear" x1="72.5855" y1="27.8794" x2="198.179" y2="143.303" gradientUnits="userSpaceOnUse">
<stop stop-color="#8B3BF5"/>
<stop offset="1" stop-color="#8B3BF5" stop-opacity="0"/>
</linearGradient>
</defs>
</svg>
