<svg width="144" height="166" viewBox="0 0 144 166" fill="none" xmlns="http://www.w3.org/2000/svg">
<path d="M2.40975 129.557C-1.981 117.67 -0.411454 103.986 7.4462 93.7832C18.5886 79.3215 41.8338 80.0594 56.0126 69.7079C67.3935 61.3982 70.4531 47.221 82.5459 39.6162C97.1022 30.4626 113.99 31.8988 127.493 42.5615C142.192 54.1673 144.97 77.7694 142.566 95.1036C140.702 108.556 133.341 124.444 122 132.463C115.609 136.98 106.89 137.777 99.8804 134.438C93.0592 131.189 86.334 127.032 78.4929 127.439C71.1816 127.82 65.4464 132.191 60.6054 137.38C52.4828 146.087 42.1516 152.563 29.7244 150.495C19.7111 148.827 8.77402 142.798 4.0985 133.452C3.45942 132.181 2.89651 130.881 2.40975 129.557Z" fill="url(#paint0_linear)" fill-opacity="0.1"/>
<path d="M92.4897 143.705C92.4897 143.705 94.4459 146.947 95.676 149.578C96.9015 152.205 97.4287 160.27 97.4287 160.27C97.4287 160.27 77.8392 165.177 68.1832 165.177C58.5272 165.177 56.2057 162.162 56.2057 162.162C56.2057 162.162 55.7155 149.518 56.6543 146.48C57.5884 143.442 59.8082 141.106 59.8082 141.106C59.8082 141.106 91.2272 141.518 92.4897 143.705Z" fill="#1F227C"/>
<path opacity="0.69" d="M94.0389 146.549C94.0389 146.549 74.7269 149.777 69.4364 152.113C64.1459 154.448 56.1409 159.826 56.1409 159.826C56.1409 159.826 55.9975 150.328 56.3259 148.404C56.6542 146.48 57.3248 144.797 57.3248 144.797L91.796 142.924C91.7913 142.919 93.0261 144.149 94.0389 146.549Z" fill="url(#paint1_linear)"/>
<path d="M43.4651 79.1514C43.4651 79.1514 43.8166 109.854 45.9207 119.006C45.9207 119.006 51.706 131.33 58.5364 134.65C65.3715 137.975 61.1632 116.3 61.1632 116.3L52.2286 86.4535L43.4651 79.1514Z" fill="url(#paint2_linear)"/>
<path d="M67.9982 5.05752C73.9315 3.15221 89.9601 6.03792 92.9984 11.1388C96.0367 16.2396 94.5152 21.6133 94.284 23.6019C94.0482 25.5858 92.6469 31.4127 92.7672 32.7075C92.8828 34.0024 93.5857 34.8672 93.5857 35.954C93.5857 37.0407 89.0305 49.2911 83.5366 52.9768C83.5366 52.9768 78.2785 52.5005 73.6078 49.9108C73.6078 49.9108 72.3221 57.6291 72.2065 62.2305C72.2065 62.2305 62.976 63.9369 60.1735 62.2305C60.1735 62.2305 64.3772 50.438 64.6131 47.5939C64.8489 44.7498 57.7179 31.8983 56.7838 28.8599C55.8496 25.8216 57.7179 8.36405 67.9982 5.05752Z" fill="url(#paint3_linear)"/>
<path d="M94.3672 23.0282C94.3672 23.0282 89.6687 30.7835 88.3831 32.8276C87.0975 34.8716 82.718 41.4153 81.8394 43.9865C80.9653 46.5578 80.3225 48.7174 80.378 49.5961C80.4381 50.4701 82.4221 52.3246 83.5319 52.9766C83.5319 52.9766 77.4368 52.2228 73.6031 49.9106L73.2609 52.1118C73.2609 52.1118 67.0409 53.7674 63.0499 53.6379C63.0499 53.6379 64.6084 48.8377 64.8396 46.3867L82.0151 22.0848L94.8065 19.8003L94.3672 23.0282Z" fill="url(#paint4_linear)"/>
<path d="M99.6808 13.7422C99.834 14.2257 99.8268 14.7469 99.6399 15.2184C98.4516 18.2157 96.2624 20.2535 95.2073 21.1086C94.9767 21.2955 94.66 21.1087 94.6939 20.8138C94.732 20.4835 94.35 20.3117 94.1441 20.5728C92.4613 22.7065 89.9175 26.9832 89.2063 28.9754C89.198 28.9985 89.1896 29.0217 89.1812 29.0449C88.7161 30.327 86.8792 29.8844 86.0524 28.7997C85.1136 27.5742 82.7227 27.3383 82.1354 27.5742C81.5527 27.8054 80.0312 29.091 78.8659 31.4865C78.2237 32.8013 78.2864 35.0481 78.4738 36.8078C78.6533 38.4939 78.5803 40.2448 77.6148 41.6388C76.8205 42.7854 75.6041 44.1754 73.8436 45.3323C69.6031 48.1104 64.4424 45.1784 62.1197 40.6723C61.7422 39.9399 61.3441 39.2575 60.932 38.673C59.2255 36.2514 56.9636 31.8334 56.2857 30.486C56.159 30.2343 55.92 30.0591 55.6417 30.015C55.2498 29.953 54.9472 29.6348 54.934 29.2382C54.854 26.8323 55.4413 23.8737 56.0851 21.4168C56.8748 18.4028 54.6598 15.0366 55.4981 12.0358C55.9097 10.5744 64.4373 3.33241 69.1682 1.5196C73.8991 -0.293215 82.0799 -0.233096 82.6672 0.409713C82.9326 0.700964 83.2432 1.22974 83.5039 1.72184C83.6278 1.95582 83.2648 2.24755 83.0141 2.16241C82.1868 1.88664 82.0461 2.75306 82.889 2.97654C83.293 3.08363 83.76 3.2021 84.2997 3.33241C86.1021 3.76578 88.6177 3.9684 90.576 4.06314C92.528 4.15757 94.4971 4.73235 95.7414 6.23934C97.9648 8.93223 99.2099 12.279 99.6808 13.7422Z" fill="#6C4934"/>
<path d="M117.3 91.9752C117.3 91.9752 116.833 85.2049 116.13 81.57C116.13 81.57 114.35 81.903 112.246 79.9746C110.141 78.0461 107.515 74.8968 106.724 73.7546C105.933 72.6123 103.219 70.6885 102.52 69.8099C101.817 68.9312 101.471 67.7057 101.729 67.2664C101.993 66.8271 103.219 66.7901 103.746 67.6872C104.273 68.5844 105.85 70.5637 106.548 71.0215C107.251 71.4747 107.774 70.4527 107.422 69.87C107.071 69.2873 104.883 66.0548 104.005 64.2512C103.131 62.4523 103.131 61.1065 103.39 60.2001C103.653 59.2937 104.398 59.2937 105.036 59.733C105.67 60.1724 107.834 64.3761 109.466 66.1287C111.103 67.8814 107.422 56.9583 107.686 54.3593C107.949 51.7604 111.191 47.9636 111.191 47.9636C111.191 47.9636 114.082 50.669 115.395 54.0634C116.708 57.4578 117.411 62.2303 118.285 64.487C119.159 66.7438 120.214 66.7484 120.214 66.7484C120.214 66.7484 121.351 65.7218 121.263 64.7876C121.263 64.7876 120.126 62.6835 119.95 60.2001C119.774 57.7167 122.142 55.7513 123.543 56.2091C123.543 56.2091 122.753 61.5736 123.543 65.6062C124.334 69.6388 125.472 71.4747 125.472 72.8759C125.472 74.2818 121.615 78.9248 121.527 80.1503C121.439 81.3758 123.719 91.0041 123.719 91.0041C123.719 91.0041 118.674 92.5856 117.3 91.9752Z" fill="url(#paint5_linear)"/>
<path d="M102.363 77.607C102.363 77.607 111.224 79.0637 116.509 79.6788C116.509 79.6788 121.892 61.398 125.083 46.9371L124.242 45.6238C124.242 45.6238 115.668 44.537 108.528 44.6896L101.72 76.1179L102.363 77.607Z" fill="#542A8D"/>
<path d="M128.505 109.895C128.478 110.344 128.154 111.56 127.659 113.035V113.04C126.563 116.286 124.63 120.791 123.146 121.151C120.981 121.679 113.564 116.365 111.459 114.376C109.36 112.393 104.685 105.613 102.701 103.981C100.712 102.343 92.7671 99.7306 92.7671 99.7306C92.7671 99.7306 90.5474 106.025 89.8491 113.123C89.6872 114.774 89.6548 116.823 89.7057 118.992C89.8676 126.155 90.8988 134.655 90.8988 134.655C90.8988 134.655 75.5917 140.195 58.0693 136.926C58.0693 136.926 51.2944 123.464 47.5532 106.829C43.8166 90.1948 43.3495 76.0993 43.3495 74.8507C43.3495 73.9026 48.0388 69.1856 51.9927 66.0594C53.2598 65.0605 54.4483 64.2235 55.3825 63.7287C55.3825 63.7287 57.3849 58.8544 59.0451 56.1537C59.059 56.1352 59.0636 56.1213 59.0636 56.1213C59.0636 56.1213 62.2175 56.8381 67.1242 56.6624C72.0308 56.4867 75.3604 56.1213 75.3604 56.1213C75.3604 56.1213 78.778 61.8326 79.5641 64.2004C79.5641 64.2004 80.3549 64.8016 81.5527 65.671C83.9436 67.419 87.9438 70.2446 90.3948 71.4701C90.7693 71.6597 91.1023 71.8077 91.3937 71.9141C91.981 72.1268 92.6099 72.3257 93.2481 72.5106C96.0459 73.3199 99.0287 73.9119 99.4542 74.3882C99.9814 74.9755 103.487 80.9735 104.537 83.6234C105.591 86.2779 109.36 93.728 111.459 96.8819C112.583 98.5652 114.336 99.8693 115.733 100.729C115.737 100.729 115.737 100.729 115.737 100.729C116.953 101.474 117.897 101.876 117.897 101.876C117.897 101.876 117.888 101.724 117.864 101.46C117.864 101.395 117.86 101.321 117.851 101.238C117.846 101.173 117.841 101.104 117.837 101.035C117.698 99.0878 117.333 94.2228 117.009 91.5683C116.995 91.4804 116.986 91.3926 116.977 91.3093C116.972 91.3047 116.972 91.3001 116.972 91.2908C116.963 91.1845 116.949 91.092 116.935 90.9995C116.921 90.907 116.912 90.8238 116.898 90.7451C116.893 90.6943 116.884 90.6388 116.875 90.5925C116.875 90.5694 116.87 90.5463 116.866 90.5232C116.866 90.5 116.861 90.4769 116.856 90.4631C116.852 90.4492 116.852 90.4399 116.852 90.4399C116.412 87.9011 116.19 87.1565 116.19 87.1565C116.19 87.1565 114.789 85.1865 114.789 84.7888C114.789 84.3957 117.42 82.2499 119.261 81.8984C121.097 81.547 122.151 81.8984 122.151 81.8984C122.151 81.8984 123.83 91.8874 125.795 97.7559C127.756 103.629 128.589 108.448 128.505 109.895Z" fill="url(#paint6_linear)"/>
<path d="M74.306 48.2458C74.306 48.2458 79.7953 51.9732 83.5366 52.9767C83.5366 52.9767 77.2611 52.3108 73.6077 49.9107C73.6077 49.9061 74.0887 48.5881 74.306 48.2458Z" fill="#BF5B71"/>
<path d="M85.2893 29.6182C85.2893 29.6182 83.2268 30.0852 82.1354 32.4206C80.7295 35.4266 81.1411 38.0302 81.7284 39.7227C81.7284 39.7227 81.4371 36.296 82.6024 33.7247C83.7678 31.1535 85.2893 29.6182 85.2893 29.6182Z" fill="url(#paint7_linear)"/>
<path d="M83.2453 31.8981C83.2453 31.8981 83.8788 33.5907 83.236 35.8104C82.7366 37.5308 81.7238 37.688 81.7238 37.688C81.7238 37.688 82.4267 38.1874 83.5366 37.2117C84.9979 35.9261 84.4106 30.668 84.4106 30.668L83.2453 31.8981Z" fill="url(#paint8_linear)"/>
<path d="M85.6685 28.4158C85.6685 28.4158 82.7782 30.0852 81.7238 31.2552C80.674 32.4252 79.6196 36.9804 79.6196 36.9804C79.6196 36.9804 78.704 33.8866 78.926 32.0738C79.1479 30.2609 81.3122 28.1614 82.1308 27.5741C82.1354 27.5741 85.0581 27.6435 85.6685 28.4158Z" fill="url(#paint9_linear)"/>
<path d="M80.9099 39.7228C80.9099 39.7228 82.2325 40.7402 83.1296 40.25C83.1296 40.25 82.7782 41.6512 81.7284 41.6512C80.674 41.6512 80.9099 39.7228 80.9099 39.7228Z" fill="url(#paint10_linear)"/>
<path d="M80.8867 42.1183C80.8867 42.1183 79.4485 40.9483 78.8658 39.3713C78.8658 39.3713 77.1085 42.4883 75.9616 43.686C75.9616 43.686 78.8057 42.6316 80.8867 42.1183Z" fill="#BF5B71"/>
<path opacity="0.69" d="M81.5527 65.671L77.9964 68.9868L51.9927 68.4919V66.0594C53.2599 65.0605 54.4484 64.2235 55.3825 63.7287C55.3825 63.7287 57.3849 58.8544 59.0451 56.1537C58.8047 56.6532 56.0577 62.4801 58.7723 63.7379C61.6025 65.0467 72.9095 65.4213 74.5558 64.2235C76.1975 63.0257 75.3605 56.1213 75.3605 56.1213C75.3605 56.1213 78.778 61.8326 79.5641 64.2004C79.5641 64.2004 80.3549 64.8016 81.5527 65.671Z" fill="url(#paint11_linear)"/>
<path opacity="0.69" d="M92.7671 99.7306L86.6073 102.723L88.1334 106.321L90.3115 109.817C90.3115 109.821 91.2318 103.907 92.7671 99.7306Z" fill="url(#paint12_linear)"/>
<path d="M93.9372 142.766C93.9372 142.766 85.7564 145.92 75.7212 145.92C65.686 145.92 57.1352 145.338 56.571 144.403C56.0392 143.52 58.0601 140.944 58.2867 140.662C58.296 140.653 58.3006 140.644 58.3006 140.639C58.3052 140.634 58.3052 140.634 58.3052 140.634C58.3052 140.634 58.1017 140.13 57.7503 139.252C55.7062 134.156 48.6908 116.416 47.4977 110.288C46.0965 103.102 42.8824 75.1235 43.0582 74.3651C43.2339 73.602 43.701 73.2552 43.701 73.2552C45.9207 70.3325 53.9212 63.8489 53.9212 63.8489C53.9212 63.8489 54.0969 63.0905 54.4484 62.9888C54.7998 62.8824 55.9375 62.4246 55.9375 62.4246L55.3825 63.7287C55.3825 63.7287 55.6137 64.5472 57.8936 64.9588C60.1735 65.3658 70.0423 66.0687 73.6078 65.4259C77.1733 64.7831 79.0739 62.9888 79.0739 62.9888C79.0739 62.9888 80.3272 62.5032 80.6185 62.9888C80.9099 63.4697 80.6185 64.3761 80.6185 64.3761C80.6185 64.3761 84.1979 67.5624 86.168 68.4642C88.138 69.366 92.3001 69.8053 92.3001 69.8053C93.003 71.151 93.2481 72.5106 93.2481 72.5106C93.2481 72.5106 89.9647 73.602 89.382 74.6564C88.7947 75.7108 84.3552 92.7614 85.9275 100.235C87.1067 105.821 90.3162 109.821 90.3162 109.821L90.6353 107.86L92.4157 110.053C92.4157 110.053 91.7174 113.211 91.3659 117.766C91.0145 122.321 93.2481 138.997 93.2481 138.997C94.4274 140.14 93.9372 142.766 93.9372 142.766Z" fill="#67B5D5"/>
<path opacity="0.69" d="M93.9372 142.766C93.9372 142.766 85.7564 145.92 75.7212 145.92C65.686 145.92 57.1352 145.338 56.571 144.403C56.0392 143.52 58.0601 140.944 58.2867 140.662C58.1757 140.866 57.5052 142.123 57.7179 142.766C57.9538 143.469 72.7892 144.87 79.8 144.168C79.8 144.168 66.9253 142.919 59.7342 140.14C58.4948 139.659 57.519 138.683 57.0288 137.448C54.4067 130.844 48.5752 115.824 47.4977 110.288C46.0965 103.102 42.8824 75.1234 43.0582 74.365C43.2339 73.6019 43.701 73.2551 43.701 73.2551C45.9207 70.3324 53.9212 63.8488 53.9212 63.8488C53.9212 63.8488 54.0969 63.0904 54.4484 62.9886C54.4484 62.9886 54.4715 64.8431 54.9247 65.4258C55.3825 66.0085 62.5089 67.8398 66.7727 67.6825C70.9024 67.5346 80.0266 64.5702 80.5908 64.3853C80.1006 64.6119 73.3072 67.701 71.6238 68.1311C69.8711 68.5797 61.5748 69.9856 57.6023 69.8052C53.6298 69.6295 44.3438 73.2736 44.3438 73.2736C44.3438 73.2736 43.738 87.4986 45.2548 94.5649C46.5774 100.702 50.5915 112.582 52.4598 117.299C54.3281 122.016 58.6058 136.778 60.2383 137.961C61.8754 139.15 82.399 141.841 85.6685 136.116C88.9427 130.391 88.2074 110.524 88.2074 110.524C88.2074 110.524 84.702 102.82 83.9991 96.3315C83.3008 89.8479 88.0918 71.0399 92.2955 69.8098C92.9984 71.1556 93.2435 72.5152 93.2435 72.5152C93.2435 72.5152 89.9601 73.6066 89.3774 74.6609C88.7901 75.7153 84.3505 92.766 85.9229 100.239C87.1021 105.826 90.3115 109.826 90.3115 109.826L90.6306 107.865L92.4111 110.057C92.4111 110.057 91.7128 113.216 91.3613 117.771C91.0098 122.326 93.2435 139.002 93.2435 139.002C94.4274 140.14 93.9372 142.766 93.9372 142.766Z" fill="#61ABC9"/>
<path d="M75.2448 66.7439C75.2448 66.7439 85.1136 73.5373 88.6791 74.5038C88.6791 74.5038 90.256 70.5637 92.3001 69.8053C92.3001 69.8053 87.9993 69.3521 86.6073 68.6446C85.2153 67.937 80.5908 64.3854 80.5908 64.3854C80.5908 64.3854 76.0125 66.4202 75.2448 66.7439Z" fill="url(#paint13_linear)"/>
<path d="M124.242 45.6237C124.242 45.6237 117.152 75.2299 116.015 77.6948L101.72 76.1178L108.528 44.6896C108.528 44.6896 118.762 44.6156 124.242 45.6237Z" fill="url(#paint14_linear)"/>
<path d="M108.657 46.8493C107.723 47.7834 102.349 73.986 102.525 74.6565C102.701 75.3271 115.483 76.7283 116.107 76.1132C116.727 75.5028 123.03 48.6852 123.03 47.6354C123.025 46.9695 109.115 46.3914 108.657 46.8493Z" fill="url(#paint15_linear)"/>
<path d="M121.536 80.1459C121.536 80.1459 118.549 78.444 118.026 74.3883C117.504 70.3326 118.688 68.4921 119.081 67.9233C119.474 67.3544 121.185 65.8931 121.273 64.7832C121.273 64.7832 120.135 63.1461 120.047 60.8246C119.959 58.5031 121.078 56.7782 122.017 56.3573C122.956 55.9365 123.553 56.2047 123.553 56.2047C123.553 56.2047 122.84 60.7969 123.289 63.6409C123.738 66.485 125.564 72.4275 125.481 72.8715C125.393 73.3154 121.536 80.1459 121.536 80.1459Z" fill="url(#paint16_linear)"/>
<path opacity="0.69" d="M65.6628 134.576C65.6628 134.576 75.9015 133.494 79.1341 130.807C82.3666 128.121 84.8222 120.791 84.8222 120.791C84.8222 120.791 79.8092 126.747 75.8876 129.203C71.9707 131.658 65.6628 134.576 65.6628 134.576Z" fill="#67B5D5"/>
<path opacity="0.69" d="M116.19 87.1564C116.19 87.1564 119.085 83.7759 122.457 83.6233C122.457 83.6233 118.253 85.4407 116.782 90.0653L116.19 87.1564Z" fill="url(#paint17_linear)"/>
<path opacity="0.69" d="M112.629 45.5636C112.629 45.5636 116.519 45.6283 118.886 45.8781L118.618 46.1648L112.703 45.8133L112.629 45.5636Z" fill="url(#paint18_linear)"/>
<path d="M115.178 81.5284C115.178 81.5284 117.152 79.6185 117.374 79.4012C117.592 79.1838 118.026 74.3882 118.026 74.3882L116.509 79.6786L111.214 78.9757C111.219 78.9757 112.421 80.6914 115.178 81.5284Z" fill="url(#paint19_linear)"/>
<path d="M122.572 53.6427L123.756 49.1338H123.946C123.946 49.1338 123.95 51.4368 122.762 53.7352L122.572 53.6427Z" fill="url(#paint20_linear)"/>
<path opacity="0.69" d="M44.5704 85.5981C44.5704 85.5981 46.8503 91.906 48.4272 93.8344C50.0042 95.7628 56.0207 100.669 61.3343 101.719C61.3343 101.719 54.6935 98.1352 50.5083 94.0472C46.3231 89.9591 44.5704 85.5981 44.5704 85.5981Z" fill="#67B5D5"/>
<path d="M44.5704 85.5981C44.5704 85.5981 49.5602 91.3233 54.3651 95.3235C59.1746 99.3284 61.3343 101.719 61.3343 101.719C61.3343 101.719 56.9548 99.3006 52.95 96.1883C48.9498 93.076 47.6272 90.8609 46.878 89.7047C46.1335 88.5532 44.5704 85.5981 44.5704 85.5981Z" fill="#67B5D5"/>
<path opacity="0.69" d="M92.7672 99.7305C92.7672 99.7305 91.8515 98.9444 90.626 97.4553C89.4005 95.9662 91.1023 84.8766 91.6943 81.5284C92.2862 78.1802 93.8955 76.5432 95.1811 75.7847C96.4668 75.0263 99.4542 74.3881 99.4542 74.3881L98.9779 74.0922C98.9779 74.0922 95.1118 75.3778 94.0343 75.9605C92.9614 76.5432 91.2642 79.9931 90.8572 82.1527C90.4503 84.3124 89.5115 96.2298 89.9231 97.5755C90.33 98.9212 92.4851 100.572 92.4851 100.572L92.7672 99.7305Z" fill="url(#paint21_linear)"/>
<path opacity="0.69" d="M117.897 101.876C117.897 101.876 119.913 102.635 121.111 104.582C122.304 106.529 123.104 114.732 123.104 114.732C123.104 114.732 123.136 108.281 122.591 106.311C122.04 104.341 117.703 99.2588 117.703 99.2588L117.897 101.876Z" fill="url(#paint22_linear)"/>
<path opacity="0.69" d="M92.7671 99.7306C92.7671 99.7306 99.912 101.613 102.543 102.584C105.175 103.555 107.233 105.65 107.233 105.65L103.991 104.776L104.305 105.65C104.305 105.65 103.103 104.221 102.368 103.731C101.623 103.241 92.7671 99.7306 92.7671 99.7306Z" fill="url(#paint23_linear)"/>
<path d="M88.8502 107.62C88.8502 107.62 89.8028 109.812 89.9508 110.043C90.0988 110.279 91.0514 110.658 91.0514 110.658C91.0514 110.658 90.7555 117.318 90.8572 121.642C90.9451 125.498 93.2527 138.997 93.2527 138.997C93.2527 138.997 91.6804 126.285 91.4029 121.188C91.1208 116.092 92.4203 110.052 92.4203 110.052L90.6399 107.86L90.3208 109.821L88.8502 107.62Z" fill="url(#paint24_linear)"/>
<path opacity="0.69" d="M123.617 120.911C123.617 120.911 124.075 118.058 124.69 115.958C125.305 113.854 128.427 110.385 128.427 110.385C128.427 110.385 127.659 113.327 126.323 116.522C125.291 118.996 123.617 120.911 123.617 120.911Z" fill="url(#paint25_linear)"/>
<path d="M93.2481 138.997C93.2481 138.997 92.1105 140.709 88.1981 142.05C83.7771 143.566 79.8 144.168 79.8 144.168C79.8 144.168 83.088 143.923 87.8744 143.104C92.6608 142.285 93.9742 140.639 93.9742 140.639C93.9742 140.639 93.9742 139.483 93.2481 138.997Z" fill="url(#paint26_linear)"/>
<path d="M53.9211 63.8489C53.9211 63.8489 45.6063 71.6689 44.575 74.0922C43.5391 76.5108 45.6525 97.0437 45.6525 97.0437C45.6525 97.0437 42.813 76.779 43.0628 74.3697C43.3032 71.9557 53.9211 63.8489 53.9211 63.8489Z" fill="url(#paint27_linear)"/>
<path d="M108.813 49.5491C108.545 50.7607 107.759 54.3678 107.218 56.976C107.153 57.2998 107.384 57.605 107.713 57.6281L112.152 57.9564C112.425 57.9749 112.67 57.79 112.726 57.5217L114.284 49.9745C114.349 49.6647 114.136 49.3687 113.826 49.3271C113.105 49.2253 111.671 49.082 109.341 49.1236C109.086 49.1282 108.864 49.304 108.813 49.5491Z" fill="#CFE0FF"/>
<path d="M112.19 58.0174C112.176 58.0174 112.162 58.0174 112.144 58.0174L107.704 57.6891C107.529 57.6752 107.371 57.5919 107.265 57.4532C107.159 57.3145 107.122 57.1387 107.154 56.9723C107.681 54.4195 108.444 50.928 108.749 49.5406C108.81 49.2678 109.045 49.0736 109.328 49.0689C111.598 49.032 113.027 49.1614 113.823 49.2724C113.989 49.2955 114.137 49.3834 114.234 49.5221C114.331 49.6609 114.364 49.8274 114.331 49.9892L112.773 57.5364C112.722 57.8185 112.472 58.0174 112.19 58.0174ZM108.87 49.5638C108.565 50.9465 107.801 54.438 107.274 56.9908C107.247 57.1295 107.279 57.2682 107.362 57.3792C107.445 57.4902 107.575 57.5596 107.714 57.5734L112.153 57.9018C112.398 57.9203 112.616 57.7538 112.666 57.5133L114.225 49.9661C114.253 49.832 114.225 49.6979 114.146 49.5869C114.068 49.4759 113.952 49.4019 113.813 49.3834C113.018 49.2678 111.598 49.1429 109.337 49.1799C109.11 49.1846 108.916 49.3418 108.87 49.5638Z" fill="#95A2FF"/>
<path d="M106.497 60.9439C106.228 62.1556 105.442 65.7627 104.901 68.3709C104.836 68.6946 105.068 68.9999 105.396 69.023L109.836 69.3513C110.108 69.3698 110.354 69.1849 110.409 68.9166L111.967 61.3694C112.032 61.0596 111.819 60.7636 111.51 60.722C110.788 60.6202 109.355 60.4769 107.024 60.5185C106.769 60.5231 106.552 60.6988 106.497 60.9439Z" fill="#CFE0FF"/>
<path d="M109.878 69.4122C109.864 69.4122 109.85 69.4122 109.832 69.4122L105.392 69.0838C105.216 69.07 105.059 68.9821 104.953 68.848C104.851 68.7092 104.809 68.5335 104.846 68.367C105.378 65.8004 106.137 62.3182 106.442 60.9354C106.502 60.6626 106.738 60.4683 107.02 60.4637C109.286 60.4267 110.72 60.5562 111.515 60.6672C111.681 60.6903 111.829 60.7782 111.927 60.9169C112.024 61.0557 112.056 61.2175 112.024 61.384L110.465 68.9312C110.41 69.2133 110.16 69.4122 109.878 69.4122ZM107.788 60.5701C107.543 60.5701 107.288 60.5701 107.025 60.5747C106.798 60.5793 106.604 60.7366 106.557 60.9539C106.257 62.332 105.494 65.8143 104.962 68.3809C104.934 68.515 104.967 68.6584 105.05 68.7694C105.133 68.8804 105.263 68.9497 105.401 68.9636L109.841 69.2919C110.081 69.3104 110.303 69.144 110.354 68.9035L111.913 61.3563C111.94 61.2221 111.913 61.088 111.834 60.977C111.755 60.8661 111.64 60.7921 111.501 60.7736C110.923 60.6996 109.721 60.5701 107.788 60.5701Z" fill="#95A2FF"/>
<path d="M112.897 61.6238C112.629 62.8354 111.843 66.4425 111.301 69.0507C111.237 69.3745 111.468 69.6797 111.796 69.7028L116.236 70.0311C116.509 70.0496 116.754 69.8647 116.809 69.5964L118.368 62.0492C118.432 61.7394 118.22 61.4434 117.91 61.4018C117.188 61.3 115.755 61.1567 113.424 61.1983C113.17 61.2029 112.948 61.374 112.897 61.6238Z" fill="#CFE0FF"/>
<path d="M116.274 70.092C116.26 70.092 116.246 70.092 116.227 70.092L111.788 69.7636C111.612 69.7498 111.455 69.6619 111.348 69.5232C111.247 69.3844 111.205 69.2087 111.242 69.0422C111.774 66.4756 112.532 62.9933 112.838 61.6106C112.898 61.3377 113.134 61.1435 113.416 61.1389C115.686 61.1019 117.115 61.2314 117.911 61.3424C118.077 61.3655 118.225 61.458 118.322 61.5921C118.419 61.7308 118.452 61.8927 118.419 62.0592L116.861 69.6064C116.805 69.8885 116.556 70.092 116.274 70.092ZM114.206 61.2499C113.957 61.2499 113.693 61.2499 113.42 61.2545C113.194 61.2591 112.999 61.4164 112.953 61.6337C112.653 63.0118 111.89 66.4941 111.358 69.0607C111.33 69.1948 111.362 69.3382 111.446 69.4492C111.529 69.5602 111.658 69.6295 111.802 69.6434L116.241 69.9717C116.477 69.9856 116.704 69.8237 116.755 69.5833L118.313 62.0361C118.341 61.9019 118.313 61.7678 118.234 61.6568C118.156 61.5458 118.04 61.4719 117.901 61.4534C117.203 61.3609 116.019 61.2499 114.206 61.2499Z" fill="#95A2FF"/>
<path d="M115.215 49.6423L115.039 50.4377C115.039 50.4377 118.937 50.5765 121.601 51.0713L121.731 50.2897C121.731 50.2897 117.989 49.5544 115.215 49.6423Z" fill="#CFE0FF"/>
<path d="M114.988 50.928L114.835 51.7141L120.413 52.357L120.621 51.5847L114.988 50.928Z" fill="#CFE0FF"/>
<path d="M112.014 56.8844C112.014 56.8844 112.241 56.556 112.449 56.7503C112.694 56.9769 112.297 57.5226 111.94 57.6844C111.94 57.6844 111.631 57.4902 111.473 57.1989C111.316 56.9029 111.496 56.6578 111.668 56.6578C111.843 56.6532 112.014 56.8844 112.014 56.8844Z" fill="#CFE0FF"/>
<path d="M109.531 68.1868C109.531 68.1868 109.758 67.8584 109.966 68.0526C110.211 68.2792 109.813 68.8249 109.457 68.9868C109.457 68.9868 109.147 68.7926 108.99 68.5012C108.833 68.2099 109.013 67.9602 109.184 67.9602C109.36 67.9555 109.531 68.1868 109.531 68.1868Z" fill="#CFE0FF"/>
<path d="M116.135 68.9499C116.135 68.9499 116.361 68.6216 116.57 68.8158C116.815 69.0424 116.417 69.5881 116.061 69.7499C116.061 69.7499 115.751 69.5557 115.594 69.2644C115.437 68.9684 115.617 68.7233 115.788 68.7233C115.964 68.714 116.135 68.9499 116.135 68.9499Z" fill="#CFE0FF"/>
<path d="M103.181 74.0916C102.922 73.9899 103.269 72.2464 103.444 72.1308C103.62 72.0152 115.158 73.0789 115.653 73.2592C116.148 73.4396 115.39 75.9831 115.39 75.9831L115.01 75.4281C115.01 75.4281 103.736 74.3044 103.181 74.0916Z" fill="#CFE0FF"/>
<path d="M115.409 76.1178L114.974 75.4843C114.225 75.4103 103.704 74.3559 103.158 74.1432C103.094 74.1154 103.052 74.0368 103.038 73.8981C102.987 73.4171 103.237 72.1963 103.413 72.0806C103.547 71.9882 107.667 72.3627 109.434 72.5246C112.352 72.7928 115.413 73.1073 115.672 73.2044C116.195 73.394 115.575 75.5675 115.446 76.0022L115.409 76.1178ZM103.2 74.0368C103.741 74.2449 114.9 75.3594 115.016 75.3733L115.043 75.3779L115.367 75.8543C115.645 74.8877 115.945 73.431 115.631 73.3154C115.182 73.1535 103.815 72.0945 103.464 72.1824C103.371 72.2517 103.089 73.4033 103.154 73.9027C103.168 74.0229 103.2 74.0368 103.2 74.0368Z" fill="#95A2FF"/>
<defs>
<linearGradient id="paint0_linear" x1="102.415" y1="47.522" x2="-23.1793" y2="162.945" gradientUnits="userSpaceOnUse">
<stop stop-color="#8B3BF5"/>
<stop offset="1" stop-color="#8B3BF5" stop-opacity="0"/>
</linearGradient>
<linearGradient id="paint1_linear" x1="75.0724" y1="159.827" x2="75.0724" y2="142.92" gradientUnits="userSpaceOnUse">
<stop stop-color="#979DD3"/>
<stop offset="1" stop-color="#9486A4"/>
</linearGradient>
<linearGradient id="paint2_linear" x1="52.9545" y1="135.002" x2="52.9545" y2="79.1522" gradientUnits="userSpaceOnUse">
<stop stop-color="#B9ACF4"/>
<stop offset="1" stop-color="#E1D1F5"/>
</linearGradient>
<linearGradient id="paint3_linear" x1="75.721" y1="62.9878" x2="75.721" y2="4.46771" gradientUnits="userSpaceOnUse">
<stop offset="0.016" stop-color="#FFC2A9"/>
<stop offset="1" stop-color="#FF9595"/>
</linearGradient>
<linearGradient id="paint4_linear" x1="78.932" y1="53.6431" x2="78.932" y2="19.7963" gradientUnits="userSpaceOnUse">
<stop offset="0.00558659" stop-color="#F48781"/>
<stop offset="1" stop-color="#EF7A8E"/>
</linearGradient>
<linearGradient id="paint5_linear" x1="113.563" y1="92.1141" x2="113.563" y2="47.9603" gradientUnits="userSpaceOnUse">
<stop offset="0.016" stop-color="#FFC2A9"/>
<stop offset="1" stop-color="#FF9595"/>
</linearGradient>
<linearGradient id="paint6_linear" x1="85.9293" y1="137.959" x2="85.9293" y2="56.1224" gradientUnits="userSpaceOnUse">
<stop stop-color="#B9ACF4"/>
<stop offset="1" stop-color="#E1D1F5"/>
</linearGradient>
<linearGradient id="paint7_linear" x1="83.2375" y1="39.7238" x2="83.2375" y2="29.618" gradientUnits="userSpaceOnUse">
<stop stop-color="#DB5F69"/>
<stop offset="1" stop-color="#DC505E"/>
</linearGradient>
<linearGradient id="paint8_linear" x1="83.1277" y1="37.8158" x2="83.1277" y2="30.6705" gradientUnits="userSpaceOnUse">
<stop stop-color="#DB5F69"/>
<stop offset="1" stop-color="#DC505E"/>
</linearGradient>
<linearGradient id="paint9_linear" x1="82.2836" y1="36.9783" x2="82.2836" y2="27.5734" gradientUnits="userSpaceOnUse">
<stop stop-color="#FF9595"/>
<stop offset="0.984" stop-color="#FFC2A9"/>
</linearGradient>
<linearGradient id="paint10_linear" x1="82.0071" y1="41.6515" x2="82.0071" y2="39.7238" gradientUnits="userSpaceOnUse">
<stop offset="0.016" stop-color="#FFC2A9"/>
<stop offset="1" stop-color="#FF9595"/>
</linearGradient>
<linearGradient id="paint11_linear" x1="66.7717" y1="68.9878" x2="66.7717" y2="56.1224" gradientUnits="userSpaceOnUse">
<stop stop-color="#AF8BC2"/>
<stop offset="1" stop-color="#CCB8FF"/>
</linearGradient>
<linearGradient id="paint12_linear" x1="86.6079" y1="104.777" x2="92.7662" y2="104.777" gradientUnits="userSpaceOnUse">
<stop stop-color="#CCB8FF"/>
<stop offset="1" stop-color="#AF8BC2"/>
</linearGradient>
<linearGradient id="paint13_linear" x1="76.451" y1="64.5653" x2="90.7965" y2="72.5172" gradientUnits="userSpaceOnUse">
<stop stop-color="#AF8BC2"/>
<stop offset="1" stop-color="#CCB8FF"/>
</linearGradient>
<linearGradient id="paint14_linear" x1="112.981" y1="77.6937" x2="112.981" y2="44.6879" gradientUnits="userSpaceOnUse">
<stop stop-color="#8642A0"/>
<stop offset="1" stop-color="#6456C0"/>
</linearGradient>
<linearGradient id="paint15_linear" x1="112.772" y1="76.2672" x2="112.772" y2="46.6857" gradientUnits="userSpaceOnUse">
<stop stop-color="white"/>
<stop offset="1" stop-color="#C0D6FF"/>
</linearGradient>
<linearGradient id="paint16_linear" x1="121.69" y1="80.1472" x2="121.69" y2="56.1205" gradientUnits="userSpaceOnUse">
<stop offset="0.016" stop-color="#FFC2A9"/>
<stop offset="1" stop-color="#FF9595"/>
</linearGradient>
<linearGradient id="paint17_linear" x1="116.189" y1="86.8469" x2="122.457" y2="86.8469" gradientUnits="userSpaceOnUse">
<stop stop-color="#CCB8FF"/>
<stop offset="1" stop-color="#AF8BC2"/>
</linearGradient>
<linearGradient id="paint18_linear" x1="112.628" y1="45.8648" x2="118.883" y2="45.8648" gradientUnits="userSpaceOnUse">
<stop stop-color="#7E2CA9"/>
<stop offset="1" stop-color="#CCB8FF"/>
</linearGradient>
<linearGradient id="paint19_linear" x1="114.622" y1="81.5305" x2="114.622" y2="74.3902" gradientUnits="userSpaceOnUse">
<stop stop-color="#FF817F"/>
<stop offset="1" stop-color="#CF6074"/>
</linearGradient>
<linearGradient id="paint20_linear" x1="123.257" y1="53.7356" x2="123.257" y2="49.1337" gradientUnits="userSpaceOnUse">
<stop stop-color="#8642A0"/>
<stop offset="1" stop-color="#6456C0"/>
</linearGradient>
<linearGradient id="paint21_linear" x1="94.6383" y1="100.572" x2="94.6383" y2="74.0914" gradientUnits="userSpaceOnUse">
<stop stop-color="#CCB8FF"/>
<stop offset="1" stop-color="#AF8BC2"/>
</linearGradient>
<linearGradient id="paint22_linear" x1="120.402" y1="114.731" x2="120.402" y2="99.2536" gradientUnits="userSpaceOnUse">
<stop stop-color="#CCB8FF"/>
<stop offset="1" stop-color="#AF8BC2"/>
</linearGradient>
<linearGradient id="paint23_linear" x1="92.7661" y1="102.691" x2="107.23" y2="102.691" gradientUnits="userSpaceOnUse">
<stop stop-color="#CCB8FF"/>
<stop offset="1" stop-color="#AF8BC2"/>
</linearGradient>
<linearGradient id="paint24_linear" x1="91.0478" y1="138.998" x2="91.0478" y2="107.622" gradientUnits="userSpaceOnUse">
<stop stop-color="#905995"/>
<stop offset="1" stop-color="#009CFF"/>
</linearGradient>
<linearGradient id="paint25_linear" x1="126.023" y1="120.91" x2="126.023" y2="110.385" gradientUnits="userSpaceOnUse">
<stop stop-color="#CCB8FF"/>
<stop offset="1" stop-color="#AF8BC2"/>
</linearGradient>
<linearGradient id="paint26_linear" x1="86.8865" y1="144.169" x2="86.8865" y2="138.999" gradientUnits="userSpaceOnUse">
<stop stop-color="#8642A0"/>
<stop offset="0.5223" stop-color="#6365D1"/>
<stop offset="1" stop-color="#64ABFE"/>
</linearGradient>
<linearGradient id="paint27_linear" x1="43.0419" y1="80.4454" x2="53.9202" y2="80.4454" gradientUnits="userSpaceOnUse">
<stop stop-color="#009CFF"/>
<stop offset="1" stop-color="#905995"/>
</linearGradient>
</defs>
</svg>
