<svg width="192" height="382" viewBox="0 0 192 382" fill="none" xmlns="http://www.w3.org/2000/svg">
<path fill-rule="evenodd" clip-rule="evenodd" d="M9.00134 4.21669C30.4843 5.25181 51.6511 9.98667 71.5633 18.2346C94.2512 27.6323 114.866 41.4066 132.231 58.7713C149.595 76.1359 163.369 96.7507 172.767 119.439C182.165 142.127 187.001 166.443 187.001 191.001C187.001 215.558 182.164 239.875 172.767 262.563C163.369 285.25 149.594 305.865 132.23 323.23C114.865 340.594 94.2501 354.368 71.5621 363.766C51.6502 372.014 30.4838 376.748 9.00134 377.783V378H3.05176e-05L0 382C1.33411 382 2.66751 381.986 4 381.958C27.7199 381.461 51.152 376.549 73.0928 367.461C96.2661 357.863 117.322 343.794 135.058 326.058C152.794 308.322 166.863 287.267 176.462 264.093C186.061 240.92 191.001 216.083 191.001 191.001C191.001 165.918 186.061 141.081 176.463 117.908C166.864 94.7347 152.795 73.6789 135.059 55.9428C117.323 38.2068 96.2673 24.1378 73.094 14.5391C51.1534 5.45092 27.7212 0.53872 4.00134 0.0418866C2.66885 0.0139764 1.33545 0 0.00134277 0V4H9.00134V4.21669Z" fill="#EBEBEB"/>
</svg>
