<svg width="254" height="264" viewBox="0 0 254 264" fill="none" xmlns="http://www.w3.org/2000/svg">
<path fill-rule="evenodd" clip-rule="evenodd" d="M209.703 160.114L228.411 103.216L201.005 98.5285L196.52 163.705L209.703 160.114Z" fill="#3E8B77"/>
<path fill-rule="evenodd" clip-rule="evenodd" d="M214.845 159.562L204.561 160.662L228.411 103.216L243.62 116.294L214.845 159.562Z" fill="#5DAA96"/>
<path fill-rule="evenodd" clip-rule="evenodd" d="M214.845 159.563L243.62 116.294L253.578 134.14L222.394 159.563H214.845Z" fill="#3E8B77"/>
<path fill-rule="evenodd" clip-rule="evenodd" d="M222.394 159.563L253.578 134.141L253.904 151.252L221.629 159.563H222.394Z" fill="#5DAA96"/>
<path fill-rule="evenodd" clip-rule="evenodd" d="M246.139 159.563L253.904 151.252L221.629 159.563H246.139Z" fill="#9AD8E2"/>
<path fill-rule="evenodd" clip-rule="evenodd" d="M81.0333 244.458C82.7855 246.399 88.6735 256.832 83.9678 259.15C82.7622 259.746 80.7812 257.115 80.2791 255.991C78.673 252.404 77.3848 248.703 79.6328 245.183C79.9697 244.653 80.8236 244.226 81.0333 244.458Z" fill="#703129"/>
<path fill-rule="evenodd" clip-rule="evenodd" d="M68.681 249.507L69.1789 255.592L71.8422 255.55L70.5667 246.99L68.681 249.507Z" fill="#703129"/>
<path fill-rule="evenodd" clip-rule="evenodd" d="M84.8449 259.682L70.9099 256.948L71.0265 260.231C73.9885 263.082 80.5693 263.246 84.7877 262.256L84.8449 259.682Z" fill="#703129"/>
<path fill-rule="evenodd" clip-rule="evenodd" d="M69.3972 230.816C69.2955 232.244 68.3484 233.601 68.4565 235.181C68.5963 237.212 68.4077 241.048 68.4755 243.396C68.5115 244.621 68.7976 255.371 69.1811 255.592C69.7023 255.894 69.4184 246.196 70.446 250.59C70.7998 252.108 70.4777 257.609 71.4418 258.409C74.5902 261.019 84.9064 261.597 84.8492 259.608C84.7391 255.837 81.6775 251.673 79.0884 249.057C76.245 246.184 73.3592 239.706 72.8253 235.766C72.6982 234.826 71.2977 231.659 70.8697 231.572C70.7468 231.112 69.4099 230.624 69.3972 230.816Z" fill="#BC5B40"/>
<path fill-rule="evenodd" clip-rule="evenodd" d="M78.0925 178.731C79.6455 186.984 75.3932 219.997 75.7831 233.384C75.997 240.711 79.0459 245.193 80.5757 251.737C81.1181 254.057 75.5691 253.842 73.5033 253.551C74.052 253.08 68.7827 235.671 68.6619 231.477C68.0772 211.418 62.757 203.572 64.8567 181.298C64.9774 180.012 61.5769 154.52 61.7358 154.512C69.8717 154.094 72.4651 153.363 78.8171 156.461C79.404 156.748 77.9781 178.116 78.0925 178.731Z" fill="#ED9689"/>
<path fill-rule="evenodd" clip-rule="evenodd" d="M102.467 154.398C106.696 158.279 112.221 183.961 108.395 191.68C103.117 202.324 83.2199 230.521 82.0461 237.558C81.0905 243.289 84.0504 255.451 76.7153 248.7C75.3953 247.484 75.0542 232.467 76.0204 231.553C80.3278 227.48 83.6436 213.745 84.4212 207.457C86.3429 191.874 98.3181 192.069 96.2142 182.493C94.498 174.683 82.2791 154.187 92.9301 154.187C94.1441 154.189 102.032 153.999 102.467 154.398Z" fill="#ED9689"/>
<path fill-rule="evenodd" clip-rule="evenodd" d="M95.9387 96.6111C102.583 114.909 109.21 126.942 117.846 143.8C118.613 145.297 125.266 155.821 124.913 156.009C122.834 157.119 120.705 166.86 107.469 169.674C101.475 170.949 92.6737 167.155 86.4128 172.016C82.5058 175.048 75.7936 175.428 71.6133 173.236C67.8738 171.275 59.3903 170.289 55.5469 171.847C48.5677 174.674 57.725 97.3353 70.4713 94.8754C76.6115 93.6909 83.686 96.0325 90.9215 96.0325C91.7986 96.0304 95.8793 96.4464 95.9387 96.6111Z" fill="#BC5B40"/>
<path fill-rule="evenodd" clip-rule="evenodd" d="M88.9723 13.1997C89.9109 16.7681 89.8134 19.2406 95.7586 22.7858C101.532 26.2338 104.556 41.3202 97.0998 45.1568C78.5459 54.6943 89.9744 64.9033 85.9891 62.8467C67.128 53.1255 89.324 55.0934 72.0943 88.9149C69.0772 94.8355 37.8066 94.0838 32.442 88.2624C30.0563 85.6759 33.2619 87.0948 34.0713 87.0547C45.6736 86.4846 13.0364 44.4811 35.7748 38.7992C41.2602 37.4288 49.089 36.9981 50.6759 33.17C48.519 30.2899 45.574 25.934 48.9936 18.016C51.2755 12.7394 55.3965 17.4332 57.8034 8.0097C59.9709 -0.482636 97.8075 -4.09114 89.1418 12.9168C89.0825 13.0181 89.0316 13.111 88.9723 13.1997Z" fill="#D55147"/>
<path fill-rule="evenodd" clip-rule="evenodd" d="M55.9092 55.3887C54.0447 63.9824 47.591 76.8032 45.6015 79.2842C34.9379 92.5801 26.8337 104.419 14.956 115.804C13.6296 117.075 12.8181 117.848 12.797 117.861C12.3245 118.072 11.8838 118.281 11.477 118.488C8.19927 120.164 2.27525 120.234 2.53162 120.367C7.14202 122.726 7.94078 121.463 7.86663 121.913C7.86027 121.955 7.8518 122.001 7.8412 122.05C7.0954 122.69 6.34325 123.363 5.18641 123.944C4.27535 124.402 0.00607362 127.502 0.186167 128.697C0.285748 129.349 5.19912 126.319 5.7055 126.07C6.64623 125.608 7.41745 125.158 6.30723 126.653C5.75635 127.394 -0.167664 131.625 0.855691 131.815C2.70748 132.158 4.33891 130.701 5.72034 129.683C14.6042 123.142 0.811197 135.559 4.5974 134.18C6.09324 133.636 10.6443 128.543 10.299 129.459C6.26274 140.156 12.3753 130.836 15.3289 125.954C29.6537 111.136 47.7118 98.9061 59.4793 81.5414C63.2888 75.9206 69.8654 63.8346 74.1389 52.0716C67.7064 50.9715 61.2781 51.8436 55.9092 55.3887Z" fill="#F5988A"/>
<path fill-rule="evenodd" clip-rule="evenodd" d="M105.117 66.4805C104.026 63.4315 107.471 76.1468 107.547 76.2312C107.653 76.3473 111.8 88.881 113.255 91.2775C116.594 96.7695 117.279 97.9202 119.22 104.107C120.398 107.861 124.775 127.204 128.466 127.204C133.642 127.204 136.672 131.566 132.568 131.566C129.396 131.566 120.817 130.661 127.809 134.782C128.959 135.46 122.355 136.212 122.082 133.093C121.79 129.736 121.944 128.672 121.807 128.004C118.806 125.264 100.712 101.161 100.945 95.6926C101.492 82.9626 88.1459 73.7101 98.5914 64.3247C99.6359 63.3893 104.164 63.8158 105.117 66.4805Z" fill="#F5988A"/>
<path d="M87.4425 14.3862C91.8198 22.5344 94.0149 30.6615 86.6946 35.8895C87.0039 39.8632 87.6925 42.3315 88.5167 43.8391C89.7541 46.223 94.8941 44.0334 94.8941 44.992C94.8941 46.6073 93.8877 49.9793 92.0614 50.5599C86.0632 58.271 61.4815 57.3906 57.6784 52.4244C56.8775 45.351 84.1309 55.6423 75.175 35.2856C75.139 35.1652 70.4968 30.1209 70.2658 29.9752C65.6851 27.0361 69.5603 20.5729 73.7533 24.496C76.4547 27.0318 72.7003 23.0496 75.4504 21.7215C78.9061 20.0492 76.5966 20.8685 78.173 18.3643C79.5735 16.1303 87.0632 13.5079 87.4425 14.3862Z" fill="#F7AC9F"/>
<path fill-rule="evenodd" clip-rule="evenodd" d="M81.4084 35.4249C80.6499 35.0152 79.3955 33.9574 80.2833 35.2348C81.1414 36.4806 86.7603 40.7669 87.86 40.9548C85.9234 30.2286 92.4365 37.9438 81.4084 35.4249Z" fill="#D07A5F"/>
<path d="M85.2094 21.5443C85.114 21.2403 85.292 20.9151 85.5971 20.8264C85.9022 20.7335 86.2285 20.9088 86.3154 21.2149C86.4001 21.4852 86.6798 22.1313 86.9764 22.7964C87.3218 23.5439 87.6841 24.3082 87.8536 24.5996C88.1671 25.1148 88.5422 26.1009 88.1862 26.6625C87.8663 27.1545 87.5315 27.4607 87.0993 27.6402C86.6967 27.8091 86.2476 27.8471 85.6755 27.8091C85.3577 27.788 85.114 27.5156 85.131 27.1967C85.1564 26.8779 85.4276 26.6351 85.7454 26.6562C86.148 26.6815 86.4361 26.6646 86.6565 26.5739C87.4383 26.2381 87.1904 25.7609 86.8599 25.1761C86.6628 24.8509 86.273 24.0443 85.9234 23.2673C85.5992 22.5536 85.2984 21.8526 85.2094 21.5443Z" fill="#D07A5F"/>
<path fill-rule="evenodd" clip-rule="evenodd" d="M82.438 20.1547C82.8004 20.0449 83.2411 20.4059 83.4042 20.9634C83.5737 21.5187 83.4127 22.0592 83.0419 22.169C82.6711 22.2788 82.2304 21.9177 82.0694 21.3603C81.9041 20.8029 82.0651 20.2624 82.438 20.1547Z" fill="#212C3D"/>
<path fill-rule="evenodd" clip-rule="evenodd" d="M87.0887 18.5418C87.4595 18.432 87.8917 18.793 88.0612 19.3504C88.2307 19.9058 88.0612 20.4463 87.6989 20.5561C87.3281 20.6659 86.8874 20.3048 86.7264 19.7474C86.5548 19.1921 86.7243 18.6494 87.0887 18.5418Z" fill="#212C3D"/>
<path fill-rule="evenodd" clip-rule="evenodd" d="M88.701 28.567C87.2667 30.1295 81.9952 29.6565 82.0058 29.684C82.8533 33.0581 88.1841 33.4572 88.7667 28.5501L88.701 28.567Z" fill="#D6EDFB"/>
<path fill-rule="evenodd" clip-rule="evenodd" d="M93.2056 44.8338C90.4766 48.6534 88.5761 51.0753 84.0081 53.2586C71.0731 59.4388 61.7464 50.8832 57.6403 51.2062C53.5172 52.2113 47.6567 64.6859 47.5741 66.7994C47.6546 66.9515 56.4495 81.8437 63.63 76.7761C65.2826 75.6085 69.9926 86.6705 67.8166 90.5788C57.7441 108.659 100.674 100.002 96.6104 96.2207C94.5679 90.3381 103.541 62.0022 110.268 62.0022C110.268 56.9177 102.92 48.6007 98.4897 45.7924C96.3688 44.4474 94.6082 42.8701 93.2056 44.8338Z" fill="#60C6D0"/>
<path fill-rule="evenodd" clip-rule="evenodd" d="M74.2427 45.917C75.1347 45.917 75.8572 46.5758 75.8572 47.3887C75.8572 48.2016 75.1347 48.8604 74.2427 48.8604C73.3507 48.8604 72.6282 48.2016 72.6282 47.3887C72.6282 46.5758 73.3507 45.917 74.2427 45.917Z" fill="#D6EFFD"/>
<path fill-rule="evenodd" clip-rule="evenodd" d="M76.103 49.025C76.995 49.025 77.7175 49.6837 77.7175 50.4967C77.7175 51.3096 76.995 51.9684 76.103 51.9684C75.211 51.9684 74.4885 51.3096 74.4885 50.4967C74.4885 49.6837 75.211 49.025 76.103 49.025Z" fill="#D6EFFD"/>
<path fill-rule="evenodd" clip-rule="evenodd" d="M79.4125 51.0414C80.3045 51.0414 81.027 51.7002 81.027 52.5131C81.027 53.3261 80.3045 53.9848 79.4125 53.9848C78.5205 53.9848 77.798 53.3261 77.798 52.5131C77.798 51.7002 78.5205 51.0414 79.4125 51.0414Z" fill="#D6EFFD"/>
<path fill-rule="evenodd" clip-rule="evenodd" d="M83.3512 51.3137C84.2432 51.3137 84.9657 51.9725 84.9657 52.7854C84.9657 53.5983 84.2432 54.2571 83.3512 54.2571C82.4592 54.2571 81.7368 53.5983 81.7368 52.7854C81.7368 51.9725 82.4592 51.3137 83.3512 51.3137Z" fill="#D6EFFD"/>
<path fill-rule="evenodd" clip-rule="evenodd" d="M87.1586 49.9689C88.0506 49.9689 88.7731 50.6277 88.7731 51.4406C88.7731 52.2535 88.0506 52.9123 87.1586 52.9123C86.2667 52.9123 85.5442 52.2535 85.5442 51.4406C85.5463 50.6277 86.2688 49.9689 87.1586 49.9689Z" fill="#D6EFFD"/>
<path fill-rule="evenodd" clip-rule="evenodd" d="M89.4786 46.5714C90.3706 46.5714 91.0931 47.2301 91.0931 48.043C91.0931 48.856 90.3706 49.5147 89.4786 49.5147C88.5867 49.5147 87.8642 48.856 87.8642 48.043C87.8642 47.2301 88.5867 46.5714 89.4786 46.5714Z" fill="#D6EFFD"/>
<path fill-rule="evenodd" clip-rule="evenodd" d="M90.0422 42.7518C90.9342 42.7518 91.6567 43.4105 91.6567 44.2235C91.6567 45.0364 90.9342 45.6952 90.0422 45.6952C89.1502 45.6952 88.4277 45.0364 88.4277 44.2235C88.4299 43.4105 89.1524 42.7518 90.0422 42.7518Z" fill="#D6EFFD"/>
<path d="M90.4321 76.6218C90.7562 76.2586 91.3135 76.2269 91.6779 76.55C92.0423 76.873 92.0741 77.4284 91.7499 77.7915L79.3108 91.6914C78.9866 92.0545 78.4294 92.0862 78.065 91.7632C77.7005 91.4401 77.6688 90.8848 77.9929 90.5216L90.4321 76.6218Z" fill="#41809F"/>
<path d="M90.5423 80.5472C90.8664 80.184 91.4237 80.1523 91.7881 80.4754C92.1525 80.7985 92.1843 81.3538 91.8601 81.717L85.5145 88.8052C85.1903 89.1684 84.6331 89.2 84.2687 88.877C83.9042 88.5539 83.8724 87.9986 84.1966 87.6354L90.5423 80.5472Z" fill="#41809F"/>
<path fill-rule="evenodd" clip-rule="evenodd" d="M174.252 233.768H229.615V230.932H174.252V233.768Z" fill="#895737"/>
<path d="M217.267 191.264C217.597 190.909 218.157 190.888 218.513 191.22C218.868 191.549 218.888 192.107 218.557 192.461L179.606 234.332C179.275 234.686 178.716 234.705 178.36 234.376C178.004 234.047 177.985 233.489 178.316 233.134L217.267 191.264Z" fill="#895737"/>
<path d="M165.51 189.393C165.179 189.039 164.62 189.02 164.264 189.349C163.908 189.678 163.889 190.236 164.22 190.591L200.24 212.149C200.571 212.504 201.13 212.523 201.484 212.193C201.84 211.864 201.859 211.306 201.529 210.952L165.51 189.393Z" fill="#895737"/>
<path d="M232.286 190.215C232.602 189.86 233.134 189.841 233.473 190.17C233.812 190.5 233.831 191.057 233.515 191.412L200.827 211.743C200.512 212.098 199.98 212.117 199.641 211.788C199.302 211.458 199.283 210.901 199.598 210.546L232.286 190.215Z" fill="#895737"/>
<path fill-rule="evenodd" clip-rule="evenodd" d="M164.694 213.874C178.559 213.874 189.799 225.075 189.799 238.89C189.799 252.708 178.559 263.907 164.694 263.907C150.829 263.907 139.591 252.706 139.591 238.89C139.591 225.075 150.829 213.874 164.694 213.874Z" fill="black"/>
<path fill-rule="evenodd" clip-rule="evenodd" d="M164.694 218.644C175.915 218.644 185.011 227.708 185.011 238.89C185.011 250.073 175.915 259.137 164.694 259.137C153.473 259.137 144.378 250.073 144.378 238.89C144.378 227.71 153.473 218.644 164.694 218.644Z" fill="white"/>
<path fill-rule="evenodd" clip-rule="evenodd" d="M164.694 232.505C168.232 232.505 171.101 235.364 171.101 238.89C171.101 242.417 168.232 245.276 164.694 245.276C161.156 245.276 158.287 242.417 158.287 238.89C158.287 235.364 161.156 232.505 164.694 232.505Z" fill="black"/>
<path fill-rule="evenodd" clip-rule="evenodd" d="M163.97 192.299L155.217 168.31H243.404L233.666 191.972L163.97 192.299Z" fill="#5DAA96"/>
<path fill-rule="evenodd" clip-rule="evenodd" d="M153.136 153.482C188.083 163.053 225.602 157.736 253.904 151.252L246.232 168.693C216.082 178.416 185.365 176.465 155.215 168.31L153.136 153.482Z" fill="#3E8B77"/>
<path d="M134.303 134.204C133.989 133.834 134.036 133.279 134.407 132.967C134.777 132.654 135.335 132.701 135.648 133.07L217.928 230.331C218.241 230.7 218.195 231.255 217.824 231.568C217.453 231.88 216.896 231.834 216.582 231.464L134.303 134.204Z" fill="#895737"/>
<path fill-rule="evenodd" clip-rule="evenodd" d="M126.525 130.91H138.78C139.939 130.91 140.886 131.854 140.886 133.009C140.886 134.164 139.939 135.107 138.78 135.107H126.525C125.366 135.107 124.419 134.164 124.419 133.009C124.419 131.856 125.366 130.91 126.525 130.91Z" fill="#2D9B4E"/>
<path fill-rule="evenodd" clip-rule="evenodd" d="M228.488 215.117C242.014 215.117 252.98 226.046 252.98 239.526C252.98 253.006 242.014 263.935 228.488 263.935C214.961 263.935 203.995 253.006 203.995 239.526C203.995 226.046 214.961 215.117 228.488 215.117Z" fill="black"/>
<path fill-rule="evenodd" clip-rule="evenodd" d="M228.488 219.771C239.435 219.771 248.311 228.616 248.311 239.526C248.311 250.436 239.435 259.281 228.488 259.281C217.54 259.281 208.665 250.436 208.665 239.526C208.665 228.616 217.54 219.771 228.488 219.771Z" fill="white"/>
<path fill-rule="evenodd" clip-rule="evenodd" d="M228.488 233.295C231.941 233.295 234.74 236.084 234.74 239.526C234.74 242.968 231.941 245.757 228.488 245.757C225.034 245.757 222.235 242.968 222.235 239.526C222.235 236.084 225.034 233.295 228.488 233.295Z" fill="black"/>
</svg>
