<svg width="210" height="161" viewBox="0 0 210 161" fill="none" xmlns="http://www.w3.org/2000/svg">
<path d="M209.764 159.953H0.226866C0.0995026 159.953 0 159.85 0 159.727C0 159.6 0.103483 159.501 0.226866 159.501H209.768C209.895 159.501 209.994 159.604 209.994 159.727C209.994 159.85 209.891 159.953 209.764 159.953Z" fill="#CE9B9B"/>
<path d="M147.149 9.14026H65.027V153.467H147.149V9.14026Z" fill="#EAEAEA"/>
<path d="M147.153 14.468H65.027V1.87644C65.027 0.841025 65.8708 0 66.9096 0H145.266C146.305 0 147.149 0.841025 147.149 1.87644V14.468H147.153Z" fill="#694582"/>
<path d="M116.609 7.6209H96.3146C95.8728 7.6209 95.5146 7.26386 95.5146 6.82351C95.5146 6.38316 95.8728 6.02612 96.3146 6.02612H116.609C117.051 6.02612 117.409 6.38316 117.409 6.82351C117.409 7.26386 117.051 7.6209 116.609 7.6209Z" fill="#FCA054"/>
<path d="M144.677 159.954H67.5026C66.1335 159.954 65.027 158.851 65.027 157.486V142.189H147.149V157.486C147.153 158.851 146.042 159.954 144.677 159.954Z" fill="#694582"/>
<path d="M147.149 145.426H65.027V145.831H147.149V145.426Z" fill="#422D51"/>
<path d="M105.847 157.435C108.337 157.435 110.356 155.422 110.356 152.94C110.356 150.457 108.337 148.445 105.847 148.445C103.356 148.445 101.338 150.457 101.338 152.94C101.338 155.422 103.356 157.435 105.847 157.435Z" fill="#FCA054"/>
<path d="M98.1853 23.3663C98.9766 23.3663 99.6181 22.7269 99.6181 21.9382C99.6181 21.1494 98.9766 20.51 98.1853 20.51C97.3939 20.51 96.7524 21.1494 96.7524 21.9382C96.7524 22.7269 97.3939 23.3663 98.1853 23.3663Z" fill="#694582"/>
<path d="M107.523 21.9382C107.523 22.7276 106.882 23.3663 106.09 23.3663C105.298 23.3663 104.657 22.7276 104.657 21.9382C104.657 21.1487 105.298 20.51 106.09 20.51C106.882 20.51 107.523 21.1487 107.523 21.9382Z" fill="#694582"/>
<path d="M113.994 23.3663C114.786 23.3663 115.427 22.7269 115.427 21.9382C115.427 21.1494 114.786 20.51 113.994 20.51C113.203 20.51 112.561 21.1494 112.561 21.9382C112.561 22.7269 113.203 23.3663 113.994 23.3663Z" fill="#694582"/>
<path d="M88.0081 59.0225H74.4121C74.1852 59.0225 74.0021 58.84 74.0021 58.6139V45.0623C74.0021 44.8362 74.1852 44.6537 74.4121 44.6537H88.0081C88.235 44.6537 88.4181 44.8362 88.4181 45.0623V58.6139C88.4141 58.84 88.231 59.0225 88.0081 59.0225ZM74.822 58.2053H87.5982V45.4709H74.822V58.2053Z" fill="#1C1C1C"/>
<path d="M85.6559 47.407H76.7643V56.2695H85.6559V47.407Z" fill="#1C1C1C"/>
<path d="M88.0081 105.275H74.4121C74.1852 105.275 74.0021 105.092 74.0021 104.866V91.3147C74.0021 91.0886 74.1852 90.9061 74.4121 90.9061H88.0081C88.235 90.9061 88.4181 91.0886 88.4181 91.3147V104.866C88.4141 105.092 88.231 105.275 88.0081 105.275ZM74.822 104.462H87.5982V91.7273H74.822V104.462Z" fill="#1C1C1C"/>
<path d="M85.6559 93.6593H76.7643V102.522H85.6559V93.6593Z" fill="#1C1C1C"/>
<path d="M137.684 105.275H124.088C123.861 105.275 123.678 105.092 123.678 104.866V91.3147C123.678 91.0886 123.861 90.9061 124.088 90.9061H137.684C137.911 90.9061 138.094 91.0886 138.094 91.3147V104.866C138.09 105.092 137.907 105.275 137.684 105.275ZM124.498 104.462H137.274V91.7273H124.498V104.462Z" fill="#1C1C1C"/>
<path d="M135.332 93.6593H126.44V102.522H135.332V93.6593Z" fill="#1C1C1C"/>
<path d="M131.447 53.8773H105.608V58.6656H131.447V53.8773Z" fill="#1C1C1C"/>
<path d="M119.793 60.7284H105.608V65.5167H119.793V60.7284Z" fill="#1C1C1C"/>
<path d="M119.59 72.114H108.347V76.9023H119.59V72.114Z" fill="#1C1C1C"/>
<path d="M116.151 76.3589H104.195V81.1472H116.151V76.3589Z" fill="#1C1C1C"/>
<path d="M109.393 90.0968H95.2082V94.8851H109.393V90.0968Z" fill="#1C1C1C"/>
<path d="M116.916 98.4753H101.568V103.264H116.916V98.4753Z" fill="#1C1C1C"/>
<path d="M119.59 83.6781H108.613V88.4664H119.59V83.6781Z" fill="#1C1C1C"/>
<path d="M124.47 64.8304H117.377V69.6187H124.47V64.8304Z" fill="#1C1C1C"/>
<path d="M138.468 84.7294H127.933V89.5177H138.468V84.7294Z" fill="#1C1C1C"/>
<path d="M138.504 60.7284H130.591V65.5167H138.504V60.7284Z" fill="#1C1C1C"/>
<path d="M85.4649 62.4343H73.6439V67.2226H85.4649V62.4343Z" fill="#1C1C1C"/>
<path d="M109.728 67.7303H87.2201V72.5186H109.728V67.7303Z" fill="#1C1C1C"/>
<path d="M100.478 83.6781H80.3743V88.4664H100.478V83.6781Z" fill="#1C1C1C"/>
<path d="M138.536 78.14H121.839V82.9283H138.536V78.14Z" fill="#1C1C1C"/>
<path d="M107.391 44.3523H91.037V49.1406H107.391V44.3523Z" fill="#1C1C1C"/>
<path d="M138.476 44.376H123.153V49.4023H138.476V44.376Z" fill="#1C1C1C"/>
<path d="M134.333 49.1405H119.793V53.9288H134.333V49.1405Z" fill="#1C1C1C"/>
<path d="M102.213 56.2694H97.3733V94.8812H102.213V56.2694Z" fill="#1C1C1C"/>
<path d="M119.797 60.7284H114.957V94.0084H119.797V60.7284Z" fill="#1C1C1C"/>
<path d="M95.1883 53.1791H90.2808V69.3648H95.1883V53.1791Z" fill="#1C1C1C"/>
<path d="M131.447 53.8773H126.54V65.5168H131.447V53.8773Z" fill="#1C1C1C"/>
<path d="M85.0987 70.8684H80.1912V78.1441H85.0987V70.8684Z" fill="#1C1C1C"/>
<path d="M116.896 98.9158H111.988V105.922H116.896V98.9158Z" fill="#1C1C1C"/>
<path d="M131.348 71.8046H126.44V80.9091H131.348V71.8046Z" fill="#1C1C1C"/>
<path d="M138.5 63.1801H133.592V80.913H138.5V63.1801Z" fill="#1C1C1C"/>
<path d="M97.4649 83.8804H92.5574V105.414H97.4649V83.8804Z" fill="#1C1C1C"/>
<path d="M78.5514 66.9608H73.6439V83.6782H78.5514V66.9608Z" fill="#1C1C1C"/>
<path d="M116.219 44.2571H111.312V57.1859H116.219V44.2571Z" fill="#1C1C1C"/>
<path d="M194.178 157.883C194.178 157.883 192.976 158.827 189.588 159.069C185.616 159.355 185.011 158.744 185.011 158.744L184.51 148.913C183.75 133.922 181.899 119.005 178.981 104.279L177.748 98.0549L180.669 98.3683L185.68 95.159C185.851 95.0519 185.982 94.8892 186.054 94.7027C186.408 93.7903 187.336 91.6877 187.479 92.6557L190.281 111.591C191.646 120.81 192.593 130.081 193.123 139.384L194.178 157.883Z" fill="#694582"/>
<path d="M162.094 159.113C162.014 159.319 162.138 159.549 162.357 159.597C162.755 159.684 163.328 159.803 163.566 159.835C165.748 160.112 167.423 160.124 168.824 160.096C170.651 160.057 173.509 159.358 173.509 159.358L173.501 159.954H176.382C176.382 159.954 176.657 156.752 176.235 155.721C176.016 155.181 174.619 153.777 174.619 153.777L174.205 154.761L168.406 153.297C168.406 153.297 170.496 155.879 167.972 156.764C167.929 156.784 167.881 156.812 167.829 156.835C167.706 156.895 167.646 157.026 167.503 157.081C167.451 157.105 166.934 157.196 166.755 157.252C166.703 157.272 166.647 157.284 166.599 157.3C166.571 157.307 166.54 157.319 166.512 157.323C166.456 157.339 166.4 157.355 166.345 157.371C166.106 157.438 165.851 157.498 165.572 157.553C165.565 157.557 165.557 157.557 165.545 157.557C165.493 157.569 165.445 157.581 165.393 157.589H165.389C165.362 157.597 165.326 157.605 165.294 157.609C163.26 157.99 162.468 158.434 162.229 158.791C162.209 158.815 162.197 158.839 162.185 158.863C162.189 158.867 162.146 158.982 162.094 159.113Z" fill="#0C0C0C"/>
<path d="M189.143 65.7666L186.866 85.5862L168.757 86.8676L168.558 86.8834L168.518 86.4153L166.273 67.0241L165.99 58.0426C165.891 56.9041 166.619 55.8567 167.726 55.5552L176.681 53.1155L182.337 53.7819L185.994 54.6071L189.143 65.7666Z" fill="white"/>
<path d="M174.317 55.7456L174.118 55.7533L175.289 86.14L175.487 86.1323L174.317 55.7456Z" fill="#C8BDD1"/>
<path d="M180.237 54.7848L180.038 54.7903L180.906 86.1338L181.105 86.1283L180.237 54.7848Z" fill="#C8BDD1"/>
<path d="M135.877 156.716C135.877 156.716 126.368 157.296 126.372 159.513C126.376 161.727 136.82 160.584 136.82 160.584L135.877 156.716Z" fill="#FCA054"/>
<path d="M130.106 160.588H130.102C130.014 160.584 127.905 160.457 127.34 159.616C127.252 159.489 127.236 159.351 127.292 159.22C127.578 158.529 129.831 158.061 130.09 158.01C130.146 157.998 130.197 158.034 130.205 158.089C130.217 158.141 130.181 158.196 130.126 158.204C129.457 158.339 127.682 158.791 127.475 159.295C127.443 159.366 127.455 159.434 127.503 159.505C128.016 160.263 130.09 160.39 130.114 160.39C130.169 160.394 130.209 160.442 130.209 160.493C130.201 160.549 130.157 160.588 130.106 160.588Z" fill="#B56326"/>
<path d="M131.933 160.588C131.885 160.588 131.841 160.553 131.833 160.501L131.495 157.819C131.487 157.764 131.527 157.716 131.582 157.708C131.642 157.704 131.686 157.74 131.694 157.795L132.032 160.477C132.04 160.533 132 160.58 131.945 160.588C131.941 160.588 131.937 160.588 131.933 160.588Z" fill="#B56326"/>
<path d="M133.672 160.426C133.624 160.426 133.58 160.39 133.572 160.338L133.234 157.657C133.226 157.601 133.266 157.554 133.322 157.546C133.381 157.538 133.425 157.577 133.433 157.633L133.771 160.315C133.779 160.37 133.74 160.418 133.684 160.426C133.68 160.422 133.676 160.426 133.672 160.426Z" fill="#B56326"/>
<path d="M148.838 147.825L130.403 147.386L130.224 154.854L148.659 155.293L148.838 147.825Z" fill="#383838"/>
<path d="M142.134 149.354C142.177 149.373 148.526 149.215 148.741 149.215C153.72 149.139 157.899 148.81 159.714 150.96C161.716 153.329 160.008 156.935 158.209 157.621C156.41 158.311 136.737 160.592 136.737 160.592L135.395 154.868L147.686 151.781L142.134 149.354Z" fill="#383838"/>
<path d="M136.454 149.246C136.41 149.266 130.062 149.052 129.847 149.048C124.872 148.929 120.693 148.56 118.858 150.694C116.832 153.047 118.512 156.665 120.303 157.371C122.098 158.077 141.748 160.533 141.748 160.533L143.141 154.82L130.878 151.623L136.454 149.246Z" fill="#383838"/>
<path d="M142.675 156.855C142.667 156.855 142.659 156.855 142.647 156.851L126.918 152.42C126.866 152.404 126.834 152.349 126.85 152.297C126.866 152.246 126.918 152.214 126.973 152.23L142.703 156.661C142.754 156.677 142.786 156.732 142.77 156.784C142.758 156.828 142.719 156.855 142.675 156.855Z" fill="#161616"/>
<path d="M140.263 156.177C140.219 156.177 140.179 156.149 140.167 156.105C140.152 156.054 140.183 155.998 140.235 155.983L153.226 152.4C153.278 152.384 153.334 152.416 153.35 152.468C153.365 152.519 153.334 152.575 153.282 152.591L140.291 156.173C140.283 156.177 140.271 156.177 140.263 156.177Z" fill="#161616"/>
<path d="M129.696 153.198C129.672 153.198 129.648 153.19 129.628 153.174L128.247 151.964C128.207 151.928 128.203 151.865 128.239 151.825C128.275 151.785 128.339 151.781 128.378 151.817L129.759 153.027C129.799 153.063 129.803 153.126 129.767 153.166C129.748 153.186 129.72 153.198 129.696 153.198Z" fill="#161616"/>
<path d="M150.95 153.198C150.922 153.198 150.894 153.186 150.874 153.166C150.838 153.126 150.842 153.063 150.882 153.027L152.263 151.817C152.303 151.781 152.366 151.785 152.402 151.825C152.438 151.865 152.434 151.928 152.394 151.964L151.013 153.174C150.997 153.19 150.973 153.198 150.95 153.198Z" fill="#161616"/>
<path d="M148.008 149.159L144.048 149.346L134.289 149.266L133.568 149.262C133.568 149.262 132.78 148.386 131.252 147.711C131.025 147.612 130.508 132.279 133.162 128.74C133.202 128.685 133.246 128.629 133.286 128.582C133.334 128.526 133.381 128.475 133.429 128.427C133.449 128.407 133.469 128.387 133.489 128.368C133.576 128.284 133.66 128.217 133.752 128.165C133.771 128.149 133.787 128.141 133.811 128.13C133.903 128.078 133.998 128.03 134.09 127.987C134.094 127.983 134.098 127.979 134.102 127.979C134.114 127.967 134.13 127.963 134.142 127.955C134.158 127.947 134.169 127.939 134.185 127.935C138.197 125.936 142.623 127.173 142.623 127.173C142.894 127.34 143.499 127.499 144.203 127.776C144.331 127.832 144.462 127.888 144.589 127.943C144.757 128.018 144.924 128.098 145.091 128.193C145.151 128.221 145.214 128.256 145.274 128.292C145.545 128.447 145.811 128.625 146.062 128.832L146.078 128.848C146.353 129.07 146.603 129.332 146.826 129.637C148.084 131.363 148.008 149.159 148.008 149.159Z" fill="#DAA0F2"/>
<path d="M49.5762 132.017C49.4847 131.97 52.3742 130.081 49.5762 129.569C47.0687 129.109 52.1195 119.223 52.1195 119.223L49.3135 111.797C49.3135 111.797 44.6847 124.793 42.7065 128.812C42.3125 129.613 42.7225 131.763 43.4787 132.243C43.8727 132.493 44.3424 132.795 44.8876 133.14C45.5603 131.684 48.9235 133.485 49.5762 132.017Z" fill="#FFBD9C"/>
<path d="M47.3394 127.173C46.6827 128.649 46.018 132.021 45.3414 133.489C48.3822 135.429 59.3474 141.391 59.3474 141.391L60.5494 138.079C60.5494 138.083 52.3902 127.637 47.3394 127.173Z" fill="#FFBD9C"/>
<path d="M60.02 112.745L59.3593 113.915L51.829 127.697L51.7175 127.899L51.5304 128.209C51.5304 128.209 50.7424 134.409 50.1096 136.944C49.2976 140.189 44.1274 150.821 44.1274 150.821L41.7752 157.01L39.017 154.312L49.0548 111.908L49.3175 111.103C49.3175 111.103 60.1195 112.475 60.02 112.745Z" fill="#FFBD9C"/>
<path d="M42.9056 158.438H39.4031V159.954H42.9056V158.438Z" fill="#362349"/>
<path d="M40.0399 154.88C38.8379 155.423 37.6837 156.074 36.6249 156.859C35.6419 157.589 34.1692 158.474 32.7802 158.517C29.9384 158.609 29.7075 159.906 30.9652 159.965C31.9682 160.013 34.0498 160.124 36.5414 159.958C38.7185 159.811 40.9195 159.41 42.0618 159.311C42.5354 159.271 42.8538 159.093 42.9692 158.339C43.1523 157.153 42.9613 156.07 42.3165 155.352C41.7513 154.721 40.8478 154.519 40.0717 154.868L40.0399 154.88Z" fill="#563B6B"/>
<path d="M42.3444 155.487C41.7752 157.01 38.826 158.886 31.9244 158.589C31.9244 158.589 38.7503 156.657 39.017 154.312C39.0727 153.82 41.2578 154.586 42.1852 154.939C42.4081 155.023 42.428 155.264 42.3444 155.487Z" fill="#FFBD9C"/>
<path d="M63.5025 137.505L63.5375 140.996L65.0578 140.981L65.0228 137.49L63.5025 137.505Z" fill="#362349"/>
<path d="M59.9643 140.384C60.5215 141.578 61.1862 142.717 61.9862 143.768C62.7265 144.744 63.63 146.2 63.6857 147.584C63.8051 150.413 65.1066 150.635 65.1544 149.377C65.1902 148.374 65.2817 146.303 65.0907 143.819C64.9235 141.649 64.4977 139.46 64.3862 138.325C64.3424 137.853 64.1593 137.54 63.3991 137.428C62.2051 137.258 61.1225 137.46 60.4101 138.107C59.7812 138.674 59.5902 139.579 59.9484 140.348L59.9643 140.384Z" fill="#563B6B"/>
<path d="M60.5494 138.039C62.0817 138.591 63.9962 141.554 63.7653 148.437C63.7653 148.437 61.5205 142.598 59.4031 141.411C58.9693 141.169 59.7534 138.821 60.0917 137.893C60.1792 137.666 60.3265 137.96 60.5494 138.039Z" fill="#FFBD9C"/>
<path d="M44.1473 132.731C44.1394 132.731 44.1314 132.731 44.1235 132.727C44.0717 132.715 44.0359 132.66 44.0518 132.608L49.0668 111.94C49.0787 111.888 49.1344 111.852 49.1862 111.868C49.2379 111.88 49.2737 111.936 49.2578 111.987L44.2429 132.656C44.2349 132.704 44.1951 132.731 44.1473 132.731Z" fill="#D89682"/>
<path d="M64.7643 93.346C65.035 97.5511 61.5205 100.895 57.2936 100.788C53.0668 100.681 50.0817 97.1346 50.1892 92.9215C50.221 91.6917 50.5872 88.5379 51.0449 86.7765C52.1593 82.5118 54.3324 79.2548 57.3255 79.3342C61.5563 79.4413 64.4817 88.9346 64.7643 93.346Z" fill="#694582"/>
<path d="M64.7285 94.6709C63.1046 109.127 58.4598 115.562 58.4598 115.562L48.824 113.888L48.7046 113.868L48.6568 113.86L48.6051 113.852L48.617 113.673L48.6449 113.166L50.1892 92.9214C50.1931 92.9214 65.1424 90.9815 64.7285 94.6709Z" fill="#694582"/>
<path d="M48.6847 113.899C48.6767 113.899 48.6688 113.899 48.6608 113.895C48.6091 113.88 48.5772 113.828 48.5892 113.772C48.613 113.689 50.8339 105.251 51.2041 102.561C51.212 102.506 51.2598 102.47 51.3155 102.478C51.3712 102.486 51.4071 102.538 51.3991 102.589C51.029 105.291 48.8041 113.737 48.7802 113.824C48.7683 113.872 48.7285 113.899 48.6847 113.899Z" fill="#442D56"/>
<path d="M46.6031 127.622C46.5474 127.622 46.5036 127.578 46.5036 127.523C46.5036 127.467 46.5474 127.423 46.6031 127.423C47.7334 127.423 48.1792 125.015 48.1832 124.992C48.1911 124.936 48.2429 124.9 48.2986 124.912C48.3543 124.92 48.3902 124.972 48.3782 125.027C48.3583 125.134 47.9006 127.622 46.6031 127.622Z" fill="#D89682"/>
<path d="M56.9155 90.6245C56.7643 90.6245 56.617 90.5848 56.4817 90.5055C56.2867 90.3904 56.1474 90.204 56.0917 89.9858L54.9096 85.3601C54.8976 85.3085 54.9295 85.253 54.9812 85.2411L59.1603 84.1779C59.1842 84.17 59.2121 84.1739 59.2359 84.1898C59.2598 84.2017 59.2757 84.2255 59.2797 84.2493L60.4618 88.875C60.5175 89.0932 60.4857 89.3233 60.3703 89.5176C60.2548 89.712 60.0678 89.8509 59.8489 89.9064L59.825 89.8112L59.8489 89.9064L57.1225 90.6007C57.0588 90.6126 56.9872 90.6245 56.9155 90.6245ZM55.1285 85.4077L56.2867 89.9342C56.3305 90.1008 56.4339 90.2436 56.5852 90.3309C56.7324 90.4182 56.9076 90.4459 57.0787 90.4023L59.8051 89.7081C59.9723 89.6644 60.1155 89.5613 60.2031 89.4105C60.2907 89.2598 60.3185 89.0892 60.2747 88.9186L59.1165 84.3921L55.1285 85.4077Z" fill="#442D56"/>
<path d="M58.3126 90.2357C57.9344 90.2357 57.5882 89.9818 57.4887 89.597L56.3066 84.9714C56.2986 84.9476 56.3026 84.9198 56.3185 84.896C56.3305 84.8722 56.3543 84.8563 56.3782 84.8524L60.5573 83.7931C60.6131 83.7812 60.6648 83.813 60.6767 83.8646L61.8588 88.4902C61.9743 88.9424 61.6996 89.4026 61.2459 89.5177L61.222 89.4225L61.2459 89.5177L58.5195 90.2119C58.4519 90.2278 58.3802 90.2357 58.3126 90.2357ZM56.5255 85.0229L57.6837 89.5494C57.7713 89.8945 58.1255 90.1048 58.4757 90.0175L61.2021 89.3233C61.3693 89.2796 61.5126 89.1765 61.6001 89.0258C61.6877 88.875 61.7155 88.7044 61.6718 88.5338L60.5136 84.0074L56.5255 85.0229Z" fill="#442D56"/>
<path d="M167.909 96.8211L167.503 157.081L176.47 157.875L178.4 98.3564L169.76 93.9767L167.909 96.8211Z" fill="#694582"/>
<path d="M187.901 100.008C187.813 100.695 182.83 101.496 177.489 101.294C172.148 101.087 167.666 100.667 167.905 96.8266C168.39 89.0075 167.893 86.8017 170.946 87.7102C174.337 88.7218 186.942 86.532 186.942 86.532C186.942 86.532 188.072 98.7189 187.901 100.008Z" fill="#694582"/>
<path d="M178.213 91.5568C177.823 91.5568 177.497 91.2513 177.477 90.8586L177.258 86.467L177.457 86.4551L177.676 90.8467C177.692 91.1402 177.947 91.3703 178.241 91.3584L179.121 91.3187L179.129 91.5171L178.249 91.5568C178.237 91.5568 178.225 91.5568 178.213 91.5568Z" fill="#432254"/>
<path d="M179.188 93.461C179.137 93.461 179.089 93.4173 179.089 93.3658L178.898 87.7126C178.898 87.6571 178.938 87.6135 178.993 87.6095C179.049 87.6135 179.093 87.6492 179.097 87.7047L179.288 93.3578C179.292 93.4134 179.248 93.457 179.188 93.461C179.188 93.461 179.192 93.461 179.188 93.461Z" fill="#432254"/>
<path d="M173.843 46.5697C174.369 49.2079 173.744 51.6873 172.701 53.528C172.084 54.619 172.967 55.94 174.209 55.7536L181.919 54.6031C181.919 54.6031 177.783 49.8426 179.352 44.6338L173.62 45.4986C173.616 45.4986 173.696 45.8239 173.843 46.5697Z" fill="#FFBD9C"/>
<path d="M173.592 47.3157C173.592 47.3157 177.127 49.2754 178.353 48.363L179.025 47.756C179.089 48.5534 177.708 49.8982 176.713 49.8387C175.626 49.7753 174.062 48.6526 173.592 47.3157Z" fill="#C48362"/>
<path d="M174.774 47.9345C171.141 47.4426 169.863 43.0431 169.509 39.3101C169.409 38.3143 169.381 37.3583 169.393 36.545C169.393 36.5133 169.393 36.4815 169.397 36.4538C169.465 32.6533 171.781 30.7689 175.304 30.7173C180.179 30.642 182.297 32.8437 182.257 36.6958C182.205 40.5518 183.925 49.1763 174.774 47.9345Z" fill="#2D2D2D"/>
<path d="M181.803 41.246C181.756 45.2567 179.491 49.2437 176.605 49.2119C173.72 49.1762 170.556 44.5823 170.603 40.5716C170.651 36.5608 172.653 31.5147 175.539 31.5464C178.424 31.5821 181.851 37.2352 181.803 41.246Z" fill="#FFBD9C"/>
<path d="M183.069 53.9488L181.525 56.3171L177.083 55.3888L173.003 56.7059L170.695 54.7422L171.169 54.3574L171.324 54.2265L171.614 53.9924L171.897 53.7583L173.091 52.7904C173.091 52.7904 178.508 53.917 180.331 52.1477L182.118 53.2942L182.416 53.5005L182.424 53.5045L182.587 53.6195L183.069 53.9488Z" fill="#FF9648"/>
<path d="M176.749 45.2924C176.725 45.2885 176.705 45.2766 176.689 45.2528C176.661 45.2131 176.673 45.1536 176.713 45.1258C176.924 44.983 177.163 44.86 177.37 44.7489C177.553 44.6537 177.775 44.5347 177.839 44.4673C176.856 43.9079 176.41 42.8884 176.645 41.73C176.653 41.6824 176.705 41.6506 176.753 41.6586C176.8 41.6665 176.832 41.7181 176.824 41.7657C176.605 42.8566 177.023 43.8087 177.943 44.3165C178.026 44.3602 178.038 44.4236 178.038 44.4593C178.038 44.5982 177.859 44.6974 177.457 44.9116C177.25 45.0187 177.019 45.1417 176.816 45.2805C176.796 45.2924 176.772 45.2964 176.749 45.2924Z" fill="#C48362"/>
<path d="M177.791 59.8755C177.791 60.3992 177.604 60.8236 177.373 60.8236C177.143 60.8236 176.956 60.3992 176.956 59.8755C176.956 59.3518 177.143 58.9274 177.373 58.9274C177.604 58.9274 177.791 59.3518 177.791 59.8755Z" fill="#C8BDD1"/>
<path d="M178.002 65.1398C178.002 65.6634 177.815 66.0879 177.584 66.0879C177.354 66.0879 177.167 65.6634 177.167 65.1398C177.167 64.6161 177.354 64.1917 177.584 64.1917C177.815 64.1917 178.002 64.6161 178.002 65.1398Z" fill="#C8BDD1"/>
<path d="M178.209 70.4041C178.209 70.9277 178.022 71.3522 177.791 71.3522C177.561 71.3522 177.373 70.9277 177.373 70.4041C177.373 69.8804 177.561 69.4559 177.791 69.4559C178.022 69.4559 178.209 69.8804 178.209 70.4041Z" fill="#694582"/>
<path d="M178.42 75.6646C178.42 76.1882 178.233 76.6127 178.002 76.6127C177.772 76.6127 177.584 76.1882 177.584 75.6646C177.584 75.1409 177.772 74.7164 178.002 74.7164C178.233 74.7204 178.42 75.1449 178.42 75.6646Z" fill="#694582"/>
<path d="M178.631 80.9567C178.631 81.4803 178.444 81.9048 178.213 81.9048C177.982 81.9048 177.795 81.4803 177.795 80.9567C177.795 80.433 177.982 80.0085 178.213 80.0085C178.444 80.0085 178.631 80.433 178.631 80.9567Z" fill="#C8BDD1"/>
<path d="M172.287 42.1942C173.338 43.3605 173.807 44.6498 173.334 45.0743C172.86 45.4987 171.622 44.8957 170.571 43.7294C169.521 42.5631 169.051 41.2738 169.525 40.8493C169.998 40.4288 171.236 41.0278 172.287 42.1942Z" fill="#FFBD9C"/>
<path d="M169.72 41.7578C169.688 41.7499 169.66 41.73 169.652 41.6983C169.58 41.4881 169.596 41.3175 169.692 41.1945C169.851 40.9882 170.173 41.0041 170.185 41.0041C170.233 41.008 170.273 41.0477 170.273 41.0993C170.269 41.1508 170.229 41.1865 170.177 41.1865C170.11 41.1826 169.919 41.1985 169.839 41.3056C169.783 41.3809 169.779 41.492 169.827 41.6428C169.843 41.6904 169.815 41.7419 169.768 41.7578C169.752 41.7618 169.736 41.7618 169.72 41.7578Z" fill="#C48362"/>
<path d="M171.141 43.6064C171.133 43.6064 171.125 43.6025 171.117 43.5985C170.532 43.293 169.903 42.2933 169.879 42.2497C169.851 42.206 169.867 42.1505 169.907 42.1227C169.951 42.095 170.006 42.1108 170.034 42.1505C170.042 42.1624 170.663 43.1502 171.204 43.4358C171.248 43.4596 171.268 43.5152 171.244 43.5588C171.22 43.5945 171.18 43.6144 171.141 43.6064Z" fill="#C48362"/>
<path d="M181.226 39.4726C181.17 39.2306 179.137 38.6991 178.193 39.1275C177.254 39.5559 177.33 40.2938 177.529 40.155C177.728 40.0161 178.715 39.6353 179.272 39.6353C179.825 39.6353 181.262 39.6353 181.226 39.4726Z" fill="#2D2D2D"/>
<path d="M171.204 40.8572C171.188 40.6112 172.995 39.5322 174.018 39.6789C175.041 39.8297 175.172 40.5557 174.946 40.4803C174.719 40.4009 173.66 40.3097 173.127 40.4684C172.593 40.6271 171.212 41.0238 171.204 40.8572Z" fill="#2D2D2D"/>
<path d="M180.168 40.9961L178.492 41.1786L178.556 41.5872L180.355 41.246L180.168 40.9961Z" fill="#2D2D2D"/>
<path d="M179.009 41.8687C179.069 42.2536 179.308 42.5352 179.535 42.4995C179.766 42.4638 179.901 42.1226 179.837 41.7378C179.777 41.353 179.539 41.0714 179.312 41.1071C179.085 41.1388 178.95 41.4839 179.009 41.8687Z" fill="#2D2D2D"/>
<path d="M172.749 41.8609L174.392 41.484L174.468 41.8887L172.653 42.1624L172.749 41.8609Z" fill="#2D2D2D"/>
<path d="M174.118 42.3488C174.15 42.7376 173.99 43.0669 173.76 43.0867C173.529 43.1065 173.314 42.809 173.282 42.4202C173.25 42.0314 173.409 41.7022 173.64 41.6823C173.871 41.6625 174.086 41.96 174.118 42.3488Z" fill="#2D2D2D"/>
<path d="M176.108 46.4469C175.702 46.3676 175.403 46.2406 175.383 46.2327C175.336 46.2129 175.316 46.1613 175.336 46.1137C175.356 46.0661 175.407 46.0463 175.455 46.0661C175.463 46.0701 176.239 46.3954 176.972 46.3239C177.911 46.2327 178.476 45.7487 178.48 45.7408C178.516 45.7091 178.575 45.7091 178.607 45.7487C178.639 45.7844 178.635 45.8439 178.599 45.8757C178.575 45.8955 177.986 46.4073 176.987 46.5025C176.681 46.5342 176.375 46.4985 176.108 46.4469Z" fill="#C48362"/>
<path d="M171.168 36.5569L170.77 38.6436C170.173 38.961 169.441 38.5484 169.413 37.874C169.393 37.398 169.389 36.9497 169.397 36.5371C169.421 36.5252 169.425 36.5212 169.449 36.5093C169.712 36.7196 170.126 36.2118 171.168 36.5569Z" fill="#191919"/>
<path d="M181.644 40.516L180.542 37.2749L180.53 37.2352L180.518 37.1956C180.518 37.1956 180.454 37.2194 180.339 37.2511C180.172 37.3027 179.885 37.39 179.519 37.4971C179.515 37.4971 179.515 37.4971 179.511 37.4971C177.214 38.1556 171.658 39.5639 170.098 38.223C168.856 37.1559 167.594 34.5178 170.229 32.4707C174.794 28.9123 179.105 31.7686 180.848 34.3075C182.591 36.8425 182.11 37.0289 182.249 38.0604C182.388 39.0879 181.644 40.516 181.644 40.516Z" fill="#2D2D2D"/>
<path d="M180.518 37.1915C180.518 37.1915 180.454 37.2153 180.339 37.2471C180.171 37.2987 179.885 37.3859 179.519 37.493C179.515 37.493 179.515 37.493 179.511 37.493C179.793 37.1558 180.741 35.4539 180.697 34.8073C180.693 34.7795 180.693 34.7637 180.693 34.7557C180.693 34.7042 180.733 34.6605 180.788 34.6605C180.832 34.6605 180.876 34.7002 180.88 34.7518V34.7954C180.971 36.2474 180.757 36.8702 180.518 37.1915Z" fill="#161616"/>
<path d="M176.772 47.4188C176.518 47.3672 176.351 47.2561 176.347 47.2522C176.307 47.2244 176.295 47.1689 176.323 47.1252C176.351 47.0856 176.406 47.0737 176.45 47.1014C176.474 47.1173 177.051 47.5021 177.672 47.0181C177.712 46.9864 177.768 46.9943 177.799 47.034C177.831 47.0737 177.823 47.1292 177.783 47.1609C177.409 47.4545 177.043 47.4743 176.772 47.4188Z" fill="#C48362"/>
<path d="M143.419 107.592C144.454 108.048 145.294 110.992 145.218 112.162C145.055 114.574 144.37 115.157 144.37 115.157L142.627 110.504C142.627 110.504 142.727 107.286 143.419 107.592Z" fill="#663A3A"/>
<path d="M143.32 127.459C143.32 127.459 142.639 128.947 139.164 129.074C136.772 129.157 134.44 128.193 135.272 127.467C136.024 126.812 136.546 124.63 136.39 122.234C136.382 122.024 136.362 121.81 136.335 121.592C136.303 121.29 136.255 120.989 136.199 120.687C136.064 119.989 136.012 119.679 136.012 119.679L141.381 119.001C141.051 120.12 140.916 121.116 140.916 121.996C140.916 122.107 140.916 122.21 140.924 122.314C141.047 125.856 143.32 127.459 143.32 127.459Z" fill="#FFBD9C"/>
<path d="M141.011 121.913C141.019 122.036 140.987 122.175 140.924 122.314C140.625 123.028 139.574 123.869 138.802 123.805C138.03 123.742 137.011 123.095 136.39 122.234C136.382 122.024 136.362 121.81 136.335 121.592C137.234 122.064 139.447 123.111 140.366 122.464L140.916 121.996L141.011 121.913Z" fill="#C48362"/>
<path d="M136.944 121.401C133.131 120.894 132.561 117.303 132.311 113.812C132.243 112.88 132.235 111.987 132.263 111.23C132.263 111.202 132.267 111.17 132.267 111.142C132.414 107.596 134.822 106.668 138.114 106.695C142.667 106.735 144.394 108.056 144.267 111.65C144.144 115.252 146.046 122.619 136.944 121.401Z" fill="#663A3A"/>
<path d="M143.75 115.895C143.614 119.64 141.413 123.31 138.719 123.214C136.024 123.119 133.174 118.759 133.306 115.014C133.441 111.269 135.423 106.604 138.114 106.699C140.812 106.795 143.885 112.15 143.75 115.895Z" fill="#FFBD9C"/>
<path d="M139.204 119.739C139.224 119.727 139.24 119.711 139.244 119.688C139.256 119.644 139.232 119.596 139.188 119.58C138.961 119.509 138.715 119.461 138.5 119.418C138.309 119.378 138.078 119.334 138.002 119.291C138.735 118.529 138.858 117.498 138.341 116.522C138.317 116.482 138.269 116.466 138.225 116.486C138.185 116.51 138.169 116.557 138.189 116.601C138.675 117.518 138.556 118.482 137.871 119.184C137.811 119.247 137.815 119.307 137.823 119.334C137.863 119.457 138.046 119.501 138.464 119.584C138.675 119.628 138.918 119.676 139.137 119.743C139.164 119.751 139.184 119.751 139.204 119.739Z" fill="#C48362"/>
<path d="M143.332 115.141C143.288 114.915 141.397 114.372 140.51 114.752C139.622 115.133 139.678 115.82 139.865 115.697C140.052 115.574 140.983 115.236 141.505 115.248C142.018 115.264 143.36 115.292 143.332 115.141Z" fill="#3F2222"/>
<path d="M133.759 115.966C133.751 115.736 135.463 114.768 136.414 114.931C137.365 115.094 137.473 115.776 137.262 115.701C137.051 115.625 136.068 115.514 135.566 115.649C135.061 115.78 133.763 116.121 133.759 115.966Z" fill="#3F2222"/>
<path d="M135.272 116.68L136.812 116.367L136.876 116.744L135.176 116.958L135.272 116.68Z" fill="#2D2D2D"/>
<path d="M136.506 117.129C136.526 117.462 136.382 117.74 136.183 117.752C135.984 117.763 135.809 117.506 135.789 117.172C135.769 116.839 135.913 116.561 136.112 116.549C136.311 116.538 136.486 116.795 136.506 117.129Z" fill="#2D2D2D"/>
<path d="M142.122 116.522L140.581 116.208L140.518 116.585L142.217 116.799L142.122 116.522Z" fill="#2D2D2D"/>
<path d="M140.888 116.97C140.868 117.303 141.011 117.581 141.21 117.593C141.409 117.605 141.584 117.347 141.604 117.014C141.624 116.68 141.481 116.403 141.282 116.391C141.083 116.379 140.908 116.641 140.888 116.97Z" fill="#2D2D2D"/>
<path d="M138.317 120.624C137.939 120.54 137.664 120.417 137.644 120.409C137.6 120.39 137.584 120.338 137.6 120.298C137.62 120.255 137.672 120.235 137.712 120.255C137.72 120.259 138.436 120.576 139.121 120.528C140 120.465 140.538 120.025 140.542 120.021C140.577 119.989 140.633 119.993 140.661 120.033C140.693 120.068 140.685 120.124 140.649 120.152C140.625 120.171 140.064 120.632 139.129 120.699C138.85 120.715 138.559 120.675 138.317 120.624Z" fill="#C48362"/>
<path d="M133.095 116.232L133.433 113.054L133.437 113.015L133.441 112.975C133.441 112.975 133.505 112.983 133.616 112.991C133.779 113.007 134.058 113.023 134.416 113.047C134.42 113.047 134.42 113.047 134.424 113.047C136.653 113.177 142.006 113.324 143.149 111.785C144.06 110.559 144.605 106.921 141.365 105.755C133.397 102.887 133.17 107.207 132.104 109.877C131.037 112.543 131.208 113.388 131.562 114.257C131.929 115.153 133.095 116.232 133.095 116.232Z" fill="#663A3A"/>
<path d="M133.545 112.987C133.545 112.987 133.505 112.987 133.616 112.991C133.779 113.007 134.058 113.023 134.416 113.047C134.42 113.047 134.42 113.047 134.424 113.047C134.098 112.797 132.884 111.44 132.792 110.841C132.788 110.813 132.788 110.797 132.784 110.793C132.772 110.746 132.729 110.718 132.681 110.726C132.641 110.734 132.609 110.781 132.617 110.825L132.625 110.865C132.832 112.206 133.545 112.987 133.545 112.987Z" fill="#3F2222"/>
<path d="M138.814 121.421C138.559 121.366 138.392 121.247 138.388 121.243C138.349 121.211 138.337 121.155 138.368 121.116C138.4 121.076 138.456 121.064 138.496 121.096C138.52 121.112 139.097 121.516 139.738 121.04C139.777 121.009 139.837 121.016 139.869 121.06C139.901 121.1 139.893 121.159 139.849 121.191C139.463 121.477 139.089 121.485 138.814 121.421Z" fill="#C48362"/>
<path d="M134.842 116.569C135.797 117.68 136.207 118.898 135.754 119.283C135.3 119.668 134.161 119.08 133.206 117.966C132.251 116.855 131.841 115.637 132.295 115.252C132.745 114.867 133.887 115.455 134.842 116.569Z" fill="#FFBD9C"/>
<path d="M132.454 116.105C132.426 116.097 132.402 116.077 132.39 116.046C132.331 115.847 132.347 115.689 132.438 115.574C132.589 115.383 132.892 115.407 132.904 115.407C132.948 115.411 132.983 115.451 132.983 115.498C132.979 115.546 132.94 115.582 132.892 115.578C132.828 115.574 132.653 115.582 132.573 115.681C132.518 115.748 132.514 115.855 132.557 115.994C132.569 116.038 132.546 116.085 132.502 116.101C132.482 116.105 132.47 116.109 132.454 116.105Z" fill="#C48362"/>
<path d="M133.744 117.859C133.736 117.859 133.728 117.855 133.72 117.851C133.182 117.553 132.617 116.605 132.593 116.565C132.569 116.526 132.581 116.474 132.625 116.45C132.665 116.426 132.717 116.438 132.741 116.482C132.745 116.49 133.306 117.43 133.803 117.708C133.843 117.732 133.859 117.783 133.835 117.823C133.815 117.851 133.779 117.867 133.744 117.859Z" fill="#C48362"/>
<path d="M144.187 117.323C143.614 118.672 142.707 119.576 142.157 119.346C141.608 119.116 141.628 117.835 142.205 116.486C142.778 115.137 143.686 114.233 144.235 114.463C144.78 114.693 144.76 115.974 144.187 117.323Z" fill="#FFBD9C"/>
<path d="M144.247 115.586C144.199 115.574 144.171 115.526 144.183 115.482C144.199 115.423 144.219 115.244 144.136 115.149C144.076 115.086 143.972 115.062 143.825 115.078C143.777 115.082 143.738 115.05 143.73 115.002C143.726 114.955 143.757 114.915 143.805 114.907C144.012 114.883 144.167 114.923 144.263 115.034C144.422 115.217 144.351 115.506 144.351 115.518C144.339 115.57 144.295 115.597 144.247 115.586Z" fill="#C48362"/>
<path d="M143.491 117.771C143.475 117.767 143.459 117.76 143.447 117.748C143.415 117.712 143.415 117.66 143.451 117.629C143.861 117.236 144.159 116.185 144.163 116.173C144.175 116.129 144.223 116.097 144.267 116.113C144.311 116.125 144.339 116.173 144.327 116.216C144.315 116.26 144.012 117.323 143.566 117.748C143.547 117.771 143.515 117.779 143.491 117.771Z" fill="#C48362"/>
<g opacity="0.8">
<g opacity="0.8">
<g opacity="0.8">
<g opacity="0.8">
<path opacity="0.8" d="M199.319 92.3177L199.034 92.595L201.129 94.7311L201.414 94.4538L199.319 92.3177Z" fill="white"/>
</g>
</g>
</g>
<g opacity="0.8">
<g opacity="0.8">
<g opacity="0.8">
<path opacity="0.8" d="M201.161 92.3546L198.99 94.4137L199.264 94.7011L201.435 92.642L201.161 92.3546Z" fill="white"/>
</g>
</g>
</g>
</g>
<g opacity="0.8">
<g opacity="0.8">
<g opacity="0.8">
<g opacity="0.8">
<path opacity="0.8" d="M155.536 50.3295L155.251 50.6068L157.346 52.743L157.631 52.4657L155.536 50.3295Z" fill="white"/>
</g>
</g>
</g>
<g opacity="0.8">
<g opacity="0.8">
<g opacity="0.8">
<path opacity="0.8" d="M157.383 50.3634L155.212 52.4225L155.486 52.7099L157.657 50.6508L157.383 50.3634Z" fill="white"/>
</g>
</g>
</g>
</g>
<g opacity="0.8">
<g opacity="0.8">
<g opacity="0.8">
<g opacity="0.8">
<path opacity="0.8" d="M18.1542 92.4541L17.8696 92.7314L19.9645 94.8676L20.2491 94.5903L18.1542 92.4541Z" fill="white"/>
</g>
</g>
</g>
<g opacity="0.8">
<g opacity="0.8">
<g opacity="0.8">
<path opacity="0.8" d="M20.0036 92.483L17.8326 94.5421L18.107 94.8295L20.278 92.7704L20.0036 92.483Z" fill="white"/>
</g>
</g>
</g>
</g>
<g opacity="0.8">
<g opacity="0.8">
<g opacity="0.8">
<g opacity="0.8">
<path opacity="0.8" d="M158.885 116.233L156.452 117.978L156.685 118.3L159.117 116.555L158.885 116.233Z" fill="white"/>
</g>
</g>
</g>
<g opacity="0.8">
<g opacity="0.8">
<g opacity="0.8">
<path opacity="0.8" d="M157.072 115.929L156.746 116.157L158.464 118.604L158.79 118.377L157.072 115.929Z" fill="white"/>
</g>
</g>
</g>
</g>
<g opacity="0.8">
<g opacity="0.8">
<g opacity="0.8">
<g opacity="0.8">
<path opacity="0.8" d="M51.4743 17.2181L51.1016 17.3574L52.7729 21.8003L53.1456 21.661L51.4743 17.2181Z" fill="white"/>
</g>
</g>
</g>
<g opacity="0.8">
<g opacity="0.8">
<g opacity="0.8">
<path opacity="0.8" d="M54.2923 18.5203L49.8153 20.1331L49.9506 20.5062L54.4276 18.8935L54.2923 18.5203Z" fill="white"/>
</g>
</g>
</g>
</g>
<path d="M39.817 73.1573L38.2528 72.0822L39.4389 70.6699L48.5056 71.1222L48.5812 79.104L39.817 73.1573Z" fill="#D67E3C"/>
<path d="M35.1045 67.2701C35.1045 67.2701 36.0638 67.5201 36.8757 68.127C37.2737 68.4246 37.7553 68.6745 38.1453 68.853C38.6389 69.0791 39.0687 69.4282 39.3951 69.8607L39.3991 69.8646L40.5016 70.7215C40.5016 70.7215 39.9961 72.9233 39.821 73.1573C39.5782 73.4747 38.7941 72.8439 38.7941 72.8439L37.1065 72.1933L35.415 67.889L35.1045 67.2701Z" fill="#FFBD9C"/>
<path d="M39.3394 71.5863L36.617 74.6132C36.617 74.6132 32.2667 70.1979 31.017 68.9205C30.8339 68.734 30.8418 68.4365 31.0369 68.2619L33.5603 65.9808C33.6996 65.8539 33.9185 65.8618 34.0498 65.9967L34.3682 66.3141L38.5075 70.4597C38.7901 70.7453 38.9971 70.9556 38.9971 70.9556L39.3314 71.2888C39.407 71.3721 39.415 71.503 39.3394 71.5863Z" fill="#694582"/>
<path d="M38.9931 70.9557L36.5732 73.6414L31.6657 68.8492L34.3682 66.3142L38.5075 70.4598C38.7861 70.7494 38.9931 70.9557 38.9931 70.9557Z" fill="#DAA0F2"/>
<path d="M31.1722 68.139L37.023 73.8715L36.3702 74.4229L31.013 68.9285C30.8299 68.742 30.8418 68.4405 31.0329 68.266L31.1722 68.139Z" fill="#482F5B"/>
<path d="M48.7523 40.651C49.5722 41.4365 50.627 41.8015 51.5941 41.7221C52.2747 41.6706 52.9116 41.3968 53.3892 40.9049C53.6479 40.6352 53.827 40.3456 53.9305 40.0361C54.2966 38.965 53.7633 37.6955 52.7484 36.5848C50.822 34.4703 48.6887 35.0931 47.4508 36.1365C47.3394 36.2317 47.2319 36.3269 47.1364 36.4261C46.9454 36.6244 46.818 36.8386 46.7583 37.0608C46.4359 38.1716 47.5941 39.5283 48.7523 40.651Z" fill="#7E2E3B"/>
<g opacity="0.35">
<g opacity="0.35">
<g opacity="0.35">
<g opacity="0.35">
<g opacity="0.35">
<path opacity="0.35" d="M46.7623 37.0607L47.228 37.9295L51.5941 41.722C52.2747 41.6705 52.9115 41.3967 53.3892 40.9048C53.6479 40.635 53.827 40.3454 53.9305 40.036C53.8946 39.9725 53.8628 39.9051 53.827 39.8377C52.4021 37.1837 49.214 36.3783 47.4508 36.1364C47.3394 36.2316 47.2319 36.3268 47.1364 36.426C46.9454 36.6203 46.818 36.8346 46.7623 37.0607Z" fill="black"/>
</g>
</g>
</g>
</g>
</g>
<path d="M42.0896 45.9154C43.6896 49.2001 46.8936 51.0329 49.6956 50.4775C50.1056 50.3982 50.5116 50.2673 50.9016 50.0769C52.7444 49.1803 53.823 47.2642 53.9703 45.0466C54.0698 43.6224 53.7832 42.0712 53.0628 40.5994C51.228 36.8347 47.2717 35.4779 44.2031 36.8545C38.3324 39.4887 40.2469 42.1506 42.0896 45.9154Z" fill="#7E2E3B"/>
<g opacity="0.35">
<g opacity="0.35">
<g opacity="0.35">
<g opacity="0.35">
<g opacity="0.35">
<path opacity="0.35" d="M49.6956 50.4734C50.1056 50.3941 50.5115 50.2632 50.9016 50.0728C52.7444 49.1762 53.823 47.2601 53.9703 45.0425C52.4339 46.2961 50.1096 47.5576 50.1096 47.5576C50.1096 47.5576 49.7991 49.807 49.6956 50.4734Z" fill="black"/>
</g>
</g>
</g>
</g>
</g>
<path d="M48.4618 59.9152C48.422 60.3437 53.3693 57.2255 55.224 56.1584C55.5305 55.9838 55.5583 55.5554 55.2837 55.3412C53.8588 54.2343 50.4996 51.1083 50.6946 47.6727C50.7742 46.2367 45.0787 50.3862 45.0787 50.3862C49.616 55.0317 48.7006 57.2731 48.4618 59.9152Z" fill="#FFBD9C"/>
<path d="M47.0688 52.6475C47.1683 52.5721 49.4608 50.8186 49.3135 51.4534C49.2021 51.9374 47.427 53.2703 47.427 53.2703L47.0688 52.6475Z" fill="#D89682"/>
<path d="M41.2339 47.9504C41.6996 48.9025 42.4319 49.9776 43.1364 50.9178C43.3275 51.1717 43.5225 51.4177 43.6976 51.6517C44.5095 52.6673 45.1623 53.4012 45.1623 53.4012C45.1623 53.4012 48.9474 52.2508 50.0499 50.7552C51.0489 49.3905 52.4578 47.6688 50.412 43.4716C48.3663 39.2783 44.9792 36.7473 42.3284 38.0327C39.6817 39.318 39.1881 43.7612 41.2339 47.9504Z" fill="#FFBD9C"/>
<path d="M52.1991 46.0382C51.9444 47.4069 51.1285 48.4066 50.3762 48.2677C49.624 48.1289 49.222 46.907 49.4767 45.5344C49.7314 44.1657 50.5474 43.166 51.2996 43.3049C52.0518 43.4437 52.4538 44.6696 52.1991 46.0382Z" fill="#FFBD9C"/>
<path d="M40.5414 45.9312C40.5414 45.9312 40.9075 46.8793 41.0986 48.1488C41.214 48.9382 40.8319 50.2236 41.2777 50.0887L43.1961 49.2873L40.5414 45.9312Z" fill="#FFBD9C"/>
<path d="M43.3951 47.2046C43.6339 47.4307 43.7095 47.7362 43.5663 47.883C43.423 48.0298 43.1165 47.9663 42.8777 47.7362C42.6389 47.5101 42.5633 47.2046 42.7065 47.0578C42.8498 46.911 43.1563 46.9745 43.3951 47.2046Z" fill="#561A25"/>
<path d="M44.5573 45.1933C44.7603 45.1536 43.9125 45.0069 42.412 45.6218C41.9623 45.8042 41.5921 46.0026 41.4409 46.2327C41.3255 46.4112 41.7076 46.6492 42.1493 46.3398C42.6469 45.9986 43.5702 45.3917 44.5573 45.1933Z" fill="#7E2E3B"/>
<path d="M43.7414 46.427L42.4399 47.0816L42.7344 47.5576L43.821 46.5658L43.7414 46.427Z" fill="#561A25"/>
<path d="M51.8966 41.123C51.5782 42.928 50.2648 44.1896 48.4658 44.5625C46.0459 45.0584 41.0866 44.8759 39.9762 42.8646C39.5026 42.0116 40.2667 39.7107 40.9235 38.9887C41.9543 37.8501 43.1921 37.3384 43.1921 37.3384L47.6339 37.3304L51.0449 39.7107L51.8966 41.123Z" fill="#7E2E3B"/>
<path d="M43.1364 50.9217C43.3275 51.1756 43.5225 51.4216 43.6976 51.6556C44.1195 51.5564 44.7762 50.9931 44.5892 50.1362C44.5215 49.8347 43.4787 50.648 43.1364 50.9217Z" fill="#F7F7F7"/>
<path d="M51.618 45.0663C51.6538 45.0504 51.6777 45.0107 51.6777 44.9671C51.6697 44.6101 51.5702 44.3641 51.3792 44.2411C51.1125 44.0705 50.7822 44.2054 50.7703 44.2094C50.7066 44.2411 50.6907 44.2927 50.7145 44.3482C50.7384 44.4038 50.7981 44.4276 50.8538 44.4038C50.8578 44.4038 51.0966 44.3046 51.2678 44.4196C51.3951 44.503 51.4668 44.6894 51.4707 44.975C51.4707 45.0345 51.5185 45.0782 51.5782 45.0782C51.5901 45.0782 51.6061 45.0742 51.618 45.0663Z" fill="#D89682"/>
<path d="M51.3513 46.6056C51.3872 46.5897 51.411 46.554 51.411 46.5144C51.411 46.4548 51.3673 46.4072 51.3076 46.4033C51.0887 46.3953 50.9454 46.3358 50.8817 46.2248C50.7702 46.0383 50.8897 45.717 50.9454 45.6099C50.9732 45.5583 50.9533 45.4948 50.9016 45.467C50.8499 45.4393 50.7862 45.4591 50.7583 45.5107C50.7464 45.5305 50.5076 46.0026 50.6986 46.3319C50.8021 46.5104 51.0051 46.6056 51.2996 46.6135C51.3195 46.6135 51.3354 46.6096 51.3513 46.6056Z" fill="#D89682"/>
<g opacity="0.24">
<g opacity="0.24">
<g opacity="0.24">
<path opacity="0.24" d="M48.3981 42.5511C44.7086 42.6939 42.0976 40.873 41.5006 40.2462C41.3891 40.1312 41.3255 40.032 41.3613 39.9328C41.3891 39.8535 41.4767 39.8138 41.5523 39.8416C41.608 39.8614 41.6439 39.909 41.6518 39.9646C41.8787 40.3057 45.7314 43.3564 50.9852 41.8251C51.0648 41.8013 51.1484 41.849 51.1722 41.9283C51.1961 42.0076 51.1484 42.0909 51.0688 42.1148C50.1334 42.3845 49.2379 42.5194 48.3981 42.5511Z" fill="black"/>
</g>
</g>
</g>
<path d="M39.0648 72.2291C38.3921 72.6099 37.8628 73.205 37.5643 73.9151C37.1026 75.014 36.6329 76.462 37.4687 76.1724C40.3265 75.1806 39.8687 71.7491 39.7613 71.8165C39.5344 71.9593 39.2916 72.0982 39.0648 72.2291Z" fill="#B7652E"/>
<path d="M60.1195 68.9086C60.5932 74.0698 60.0558 76.3668 60.5136 78.7629C60.6807 79.6277 61.5046 82.4563 62.3325 84.301C63.5265 86.9589 50.8379 87.6928 50.8379 87.6928L50.5513 81.881L46.8817 75.014L46.7304 74.5141L46.1971 72.7646C45.5881 70.7692 45.5444 68.6508 46.0658 66.6355C46.6588 64.3583 47.813 60.78 48.609 59.693C51.2319 56.1345 52.7921 54.7738 54.3921 54.8611C55.228 54.9008 59.0887 57.6579 60.1195 68.9086Z" fill="#FCA054"/>
<path d="M57.6359 62.7597C57.5882 62.7597 57.5484 62.724 57.5364 62.6764C57.1145 60.3437 55.9086 59.705 54.9732 59.586C53.7633 59.4273 52.5931 60.0898 52.3543 60.5976C52.3305 60.6452 52.2708 60.669 52.223 60.6452C52.1752 60.6214 52.1513 60.5619 52.1752 60.5143C52.4817 59.8637 53.7832 59.2329 55.0011 59.3916C55.821 59.4987 57.2658 60.066 57.7315 62.6446C57.7394 62.7002 57.7036 62.7517 57.6519 62.7597C57.6479 62.7597 57.6399 62.7597 57.6359 62.7597Z" fill="#B56835"/>
<path d="M40.2667 73.6532L40.5215 75.3869L38.6906 76.1684C38.6906 76.1684 33.7672 73.2605 33.7434 72.7924C33.7394 72.7606 33.7434 72.7249 33.7473 72.6853C33.7434 72.6694 33.7473 72.6535 33.7513 72.6337C33.7553 72.5782 33.7672 72.5266 33.7832 72.471C33.7832 72.4631 33.7911 72.4472 33.7911 72.4393C33.8349 72.2806 33.8986 72.118 33.9702 71.9791C34.0021 71.9117 34.0339 71.8482 34.0578 71.7966C34.0618 71.7927 34.0618 71.7927 34.0618 71.7887C34.1294 71.6618 34.1812 71.5824 34.1812 71.5824C36.2269 68.4524 38.3802 72.5464 38.3802 72.5464L40.2667 73.6532Z" fill="#FFBD9C"/>
<path d="M55.9563 72.5386V72.5862C55.8449 75.8432 55.3951 79.2192 54.4359 81.532C54.4359 81.536 54.4359 81.5439 54.4359 81.5439C54.1016 82.3294 53.7155 82.9999 53.2578 83.4918C52.9314 83.8488 52.4936 83.5394 52.0996 83.706C51.614 83.9083 51.0528 84.424 50.3245 84.2336C50.1573 84.19 50.0857 84.2892 49.8986 84.2336H49.8946C49.5205 84.1265 49.1304 83.9758 48.7245 83.7972C46.2329 82.6984 43.3434 80.937 41.1384 79.0685C40.2827 78.3385 39.3792 77.672 38.6508 77.1682C38.5911 77.1286 38.5354 77.0889 38.4797 77.0492C37.7036 76.5137 37.1623 76.1804 37.1623 76.1804C37.1623 76.1804 38.3802 75.4068 39.017 74.3198C39.9881 72.6695 39.7613 71.8166 39.7613 71.8166L41.0389 72.3918L41.222 72.4751L48.6051 75.8075C48.6051 75.8075 47.9484 64.3307 49.8867 62.002C50.8817 60.8198 53.6916 60.3477 55.0489 63.0771C55.4588 63.8943 55.7852 65.9453 55.9165 68.4763C55.9842 69.7418 56.0001 71.1263 55.9563 72.5386Z" fill="#FCA054"/>
<path d="M49.1703 76.1723C49.1543 76.1723 49.1424 76.1683 49.1265 76.1644L46.8379 75.1012C46.7901 75.0774 46.7663 75.0179 46.7901 74.9703C46.814 74.9187 46.8737 74.8989 46.9215 74.9227L49.0906 75.9303L50.6986 66.3419C50.7066 66.2863 50.7583 66.2506 50.814 66.2585C50.8698 66.2665 50.9056 66.3181 50.8976 66.3736L49.2698 76.089C49.2658 76.1207 49.2459 76.1445 49.218 76.1604C49.2021 76.1683 49.1862 76.1723 49.1703 76.1723Z" fill="#B56835"/>
<path d="M50.8658 84.4517C50.5434 84.4517 50.213 84.412 49.8747 84.3327C49.823 84.3208 49.7872 84.2652 49.7991 84.2137C49.811 84.1621 49.8668 84.1264 49.9185 84.1383C51.0926 84.416 52.1553 84.1859 53.0747 83.4599C57.5324 79.9451 57.5723 65.9055 57.5723 65.7667C57.5723 65.7111 57.616 65.6675 57.6718 65.6675C57.7275 65.6675 57.7713 65.7111 57.7713 65.7667C57.7713 66.3459 57.7275 80.0442 53.1981 83.6186C52.4976 84.17 51.7135 84.4517 50.8658 84.4517Z" fill="#B56835"/>
<path d="M50.1056 70.6104C50.1056 70.6104 50.1016 70.6104 50.1056 70.6104C50.0499 70.6104 50.0061 70.5628 50.0061 70.5112C50.022 69.4481 49.5125 68.2738 49.5086 68.2619C49.4847 68.2103 49.5086 68.1548 49.5603 68.131C49.612 68.1111 49.6678 68.131 49.6916 68.1826C49.7115 68.2302 50.221 69.4084 50.2051 70.5152C50.2011 70.5708 50.1573 70.6104 50.1056 70.6104Z" fill="#B56835"/>
<path d="M50.8419 77.303C50.822 77.303 50.7981 77.2951 50.7822 77.2832C49.5921 76.3787 48.3026 75.7836 48.2906 75.7797C48.2389 75.7559 48.219 75.6963 48.2429 75.6487C48.2668 75.6011 48.3225 75.5773 48.3742 75.6011C48.3862 75.6091 49.6956 76.2081 50.9016 77.1285C50.9454 77.1602 50.9533 77.2237 50.9215 77.2673C50.9016 77.2872 50.8697 77.303 50.8419 77.303Z" fill="#B56835"/>
<path d="M32.2866 70.2336C32.2866 70.2336 32.0239 70.6105 32.0757 70.8128C32.1314 71.039 32.2826 71.3682 32.5971 71.4912C33.019 71.6578 34.3682 71.8284 34.3682 71.8284L35.618 70.4717L32.8797 70.8168L32.2866 70.2336Z" fill="#FFBD9C"/>
<path d="M36.5732 69.6426C36.406 69.5712 36.215 69.6109 36.0837 69.7338C35.8807 69.9282 35.4986 70.4043 35.5503 70.4836C35.61 70.5788 35.9643 70.4519 36.0797 70.4796L35.9284 71.1184L37.3613 71.5944L37.1185 70.3051C37.0628 70.0115 36.8638 69.7656 36.5891 69.6505L36.5732 69.6426Z" fill="#FFBD9C"/>
<path d="M34.9891 72.3243C34.9692 72.36 34.9294 72.3838 34.8976 72.3799C34.8817 72.3799 34.8657 72.3759 34.8538 72.3719C34.8458 72.3719 34.3006 72.122 33.9662 71.9752C33.9981 71.9078 34.0299 71.8443 34.0538 71.7927C34.3841 71.9395 34.9095 72.1775 34.9374 72.1934C34.9851 72.2132 35.009 72.2727 34.9891 72.3243Z" fill="#D89682"/>
<path d="M34.4041 72.9789C34.3842 73.0027 34.3523 73.0265 34.3165 73.0265C34.3046 73.0225 34.2807 73.0185 34.2648 73.0066C34.2448 72.9947 34.01 72.8519 33.7434 72.6853C33.7394 72.6694 33.7434 72.6536 33.7473 72.6337C33.7513 72.5782 33.7633 72.5266 33.7792 72.4711C34.01 72.6139 34.2409 72.7567 34.3762 72.84C34.416 72.8678 34.4319 72.9313 34.4041 72.9789Z" fill="#D89682"/>
<path d="M36.1274 70.0353L36.1394 70.3169C36.1394 70.3169 36.1354 70.4598 36.1036 70.4479C36.0717 70.436 35.8329 70.428 35.8329 70.428L36.1274 70.0353Z" fill="#D89682"/>
<path d="M33.4528 66.8734L32.3264 67.885C32.2627 67.9406 32.1672 67.9366 32.1115 67.8731C32.0558 67.8096 32.0598 67.7144 32.1234 67.6589L33.2498 66.6473C33.3135 66.5917 33.409 66.5957 33.4647 66.6592C33.5205 66.7227 33.5165 66.8179 33.4528 66.8734Z" fill="#362049"/>
<path d="M37.3135 69.2656L37.6001 69.5552L37.9941 69.3846L37.3135 69.2656Z" fill="#D89682"/>
<path d="M38.1453 69.2776C38.1453 69.2776 37.1145 69.591 37.0946 69.7497C37.0787 69.8608 37.3294 70.2138 37.819 70.2495C38.0458 70.2654 38.619 70.2813 38.619 70.2813L38.1453 69.2776Z" fill="#FFBD9C"/>
<path d="M30.404 66.2546C30.3682 66.2546 30.3324 66.2427 30.2966 66.2228L28.1195 64.8383C28.0279 64.7788 28.0001 64.6558 28.0598 64.5646C28.1195 64.4733 28.2428 64.4456 28.3344 64.5051L30.5115 65.8896C30.603 65.9491 30.6309 66.0721 30.5712 66.1633C30.5314 66.2189 30.4677 66.2546 30.404 66.2546Z" fill="white"/>
<path d="M31.5503 65.2787C31.4667 65.2787 31.3871 65.2231 31.3593 65.1398L30.6468 62.8191C30.615 62.7159 30.6747 62.6049 30.7782 62.5731C30.8816 62.5414 30.9931 62.6009 31.0249 62.704L31.7374 65.0248C31.7692 65.1279 31.7095 65.239 31.606 65.2708C31.5901 65.2747 31.5702 65.2787 31.5503 65.2787Z" fill="white"/>
<path d="M33.4488 64.8741C33.4448 64.8741 33.4409 64.8741 33.4409 64.8741C33.3294 64.8701 33.2458 64.7749 33.2498 64.6678L33.3613 62.2439C33.3652 62.1328 33.4647 62.0455 33.5682 62.0535C33.6797 62.0574 33.7632 62.1527 33.7593 62.2598L33.6478 64.6837C33.6438 64.7908 33.5563 64.8741 33.4488 64.8741Z" fill="white"/>
<path d="M27.4946 67.8454C27.3871 67.8454 27.2956 67.7581 27.2956 67.647C27.2956 67.5359 27.3831 67.4487 27.4946 67.4487L30.0299 67.4288C30.1374 67.4288 30.2289 67.5161 30.2289 67.6272C30.2289 67.7383 30.1414 67.8255 30.0299 67.8255L27.4946 67.8454C27.4986 67.8454 27.4986 67.8454 27.4946 67.8454Z" fill="white"/>
<path d="M138.4 139.412C138.313 139.412 138.233 139.356 138.209 139.269L137.537 136.885C137.509 136.778 137.568 136.671 137.676 136.639C137.783 136.611 137.891 136.671 137.923 136.778L138.595 139.162C138.623 139.269 138.563 139.376 138.456 139.408C138.436 139.408 138.42 139.412 138.4 139.412Z" fill="white"/>
<path d="M139.909 139.448C139.881 139.448 139.853 139.444 139.825 139.428C139.726 139.38 139.682 139.265 139.726 139.166L140.745 136.964C140.792 136.865 140.908 136.821 141.007 136.865C141.107 136.913 141.151 137.028 141.107 137.127L140.088 139.329C140.056 139.404 139.984 139.448 139.909 139.448Z" fill="white"/>
<path d="M141.596 140.408C141.545 140.408 141.497 140.388 141.457 140.352C141.377 140.277 141.377 140.15 141.453 140.07L143.156 138.337C143.232 138.258 143.359 138.258 143.439 138.333C143.519 138.408 143.519 138.535 143.443 138.615L141.74 140.348C141.7 140.388 141.648 140.408 141.596 140.408Z" fill="white"/>
<path d="M137.075 140.34C137.027 140.34 136.979 140.324 136.944 140.293L135.037 138.627C134.954 138.555 134.946 138.428 135.017 138.345C135.089 138.262 135.216 138.254 135.3 138.325L137.206 139.991C137.29 140.063 137.298 140.19 137.226 140.273C137.186 140.317 137.131 140.34 137.075 140.34Z" fill="white"/>
<path d="M41.222 72.475C40.9752 73.6731 40.3145 75.8431 38.6508 77.1681C38.5911 77.1284 38.5354 77.0888 38.4797 77.0491C40.1513 75.7479 40.8001 73.566 41.0389 72.3917L41.222 72.475Z" fill="#B56835"/>
<path d="M22.2687 144.649C22.2687 145.287 18.8896 145.858 14.7184 145.858C10.5473 145.858 7.16816 145.287 7.16816 144.649C7.16816 144.01 10.6547 143.879 14.8259 143.879C18.997 143.883 22.2687 144.01 22.2687 144.649Z" fill="#422D51"/>
<path d="M28.6966 113.618C28.6966 113.618 28.6926 113.681 28.6886 113.8C28.613 115.256 27.8966 125.134 22.1931 133.552C16.012 142.669 19.2916 146.108 19.2916 146.108H15.6896C15.6896 146.108 17.2776 119.398 28.5413 113.697C28.5891 113.669 28.6448 113.642 28.6966 113.618Z" fill="#DAA0F2"/>
<path d="M28.6966 113.618C28.6966 113.618 28.6926 113.681 28.6886 113.8C28.0876 114.784 24.3145 121.056 20.9314 129.042C17.1423 137.972 17.8627 145.089 17.8707 145.16C17.8786 145.208 17.8428 145.255 17.7911 145.255H17.7791C17.7353 145.255 17.6955 145.224 17.6876 145.176C17.6796 145.105 16.9552 137.94 20.7602 128.97C24.1632 120.949 27.9563 114.653 28.5413 113.693C28.5891 113.669 28.6448 113.642 28.6966 113.618Z" fill="#694582"/>
<g opacity="0.24">
<g opacity="0.24">
<g opacity="0.24">
<g opacity="0.24">
<g opacity="0.24">
<path opacity="0.24" d="M16.999 136.171L18.8697 140.185C18.8697 140.185 18.2368 142.625 18.4558 143.752C18.6747 144.883 18.7702 145.168 18.7702 145.168H17.7155L16.8916 136.758L16.999 136.171Z" fill="black"/>
</g>
</g>
</g>
</g>
</g>
<path d="M15.5781 146.108H12.4776C12.4776 146.108 10.7582 137.607 3.59005 131.029C3.49453 130.938 3.46667 130.815 3.49453 130.708C3.51045 130.649 3.53831 130.597 3.57811 130.549C3.65771 130.454 3.78508 130.395 3.92836 130.418C5.61195 130.724 9.12638 131.922 12.8677 136.56C18.0697 143.018 15.5781 146.108 15.5781 146.108Z" fill="#C18ADB"/>
<path d="M18.8657 146.541H15.8647C15.8647 146.541 15.3632 145.113 12.8637 136.564C10.5353 128.61 15.6816 116.058 16.4139 114.344V114.34C16.4697 114.209 16.4975 114.145 16.4975 114.145C16.5214 114.13 16.5533 114.118 16.5771 114.11C17.799 113.737 19.9204 120.16 18.1652 125.464C14.7463 135.818 18.8657 146.541 18.8657 146.541Z" fill="#DAA0F2"/>
<path d="M16.7204 145.791C16.7403 145.839 16.7125 145.886 16.6687 145.906C16.6567 145.91 16.6488 145.914 16.6368 145.914C16.601 145.914 16.5652 145.894 16.5493 145.855C15.0886 142.034 13.4926 133.553 15.0886 125.844C16.4697 119.188 16.4458 115.236 16.4179 114.348V114.344C16.4736 114.213 16.5015 114.149 16.5015 114.149C16.5254 114.134 16.5572 114.122 16.5811 114.114C16.5891 114.126 16.5931 114.134 16.5931 114.146C16.597 114.185 16.8438 118.279 15.2677 125.88C13.6756 133.553 15.2637 141.991 16.7204 145.791Z" fill="#694582"/>
<path d="M14.2488 145.509C14.2527 145.561 14.2169 145.604 14.1652 145.604C14.1652 145.604 14.1612 145.604 14.1572 145.604C14.1095 145.604 14.0697 145.573 14.0657 145.525C13.2458 136.286 3.87661 130.926 3.49054 130.708C3.50646 130.648 3.53432 130.597 3.57412 130.549C3.87263 130.716 13.4129 136.127 14.2488 145.509Z" fill="#694582"/>
<path d="M22.2687 144.648L22.0339 147.017L22.014 147.219L21.8269 149.127L21.807 149.33L20.7602 159.961H8.22687L7.49055 149.326L7.47861 149.123L7.3393 147.14L7.32736 146.937L7.16816 144.648C7.16816 144.648 9.35324 145.136 14.8259 145.136C20.6289 145.136 22.2687 144.648 22.2687 144.648Z" fill="#FCA054"/>
<path d="M22.0339 147.017L22.014 147.219C19.6259 147.576 17.3015 147.707 15.1642 147.707C11.996 147.707 9.24976 147.418 7.33931 147.14L7.32737 146.938C10.5115 147.406 16.0916 147.909 22.0339 147.017Z" fill="#9E6235"/>
<path d="M21.8269 149.127L21.807 149.33C19.3951 149.695 17.0428 149.829 14.8856 149.829C11.9483 149.829 9.37315 149.58 7.49056 149.326L7.47862 149.123C10.7343 149.572 16.1155 150 21.8269 149.127Z" fill="#9E6235"/>
<path d="M142.691 156.665C142.691 156.665 152.199 157.244 152.195 159.462C152.191 161.675 141.748 160.533 141.748 160.533L142.691 156.665Z" fill="#FCA054"/>
<path d="M148.462 160.537C148.41 160.537 148.366 160.497 148.362 160.441C148.358 160.386 148.402 160.338 148.458 160.338C148.478 160.338 150.556 160.211 151.069 159.454C151.117 159.382 151.129 159.315 151.097 159.243C150.89 158.743 149.111 158.287 148.446 158.152C148.39 158.14 148.358 158.089 148.366 158.037C148.378 157.982 148.426 157.95 148.482 157.958C148.737 158.01 150.993 158.478 151.28 159.168C151.336 159.303 151.32 159.438 151.232 159.565C150.663 160.406 148.558 160.533 148.47 160.537C148.466 160.537 148.462 160.537 148.462 160.537Z" fill="#B56326"/>
<path d="M146.635 160.537C146.631 160.537 146.627 160.537 146.623 160.537C146.567 160.529 146.532 160.481 146.536 160.425L146.874 157.744C146.882 157.688 146.926 157.652 146.985 157.656C147.041 157.664 147.077 157.712 147.073 157.768L146.735 160.449C146.731 160.501 146.687 160.537 146.635 160.537Z" fill="#B56326"/>
<path d="M144.896 160.374C144.892 160.374 144.888 160.374 144.884 160.374C144.828 160.366 144.792 160.318 144.796 160.263L145.135 157.581C145.143 157.526 145.186 157.49 145.246 157.494C145.302 157.502 145.338 157.549 145.334 157.605L144.995 160.287C144.987 160.334 144.944 160.374 144.896 160.374Z" fill="#B56326"/>
<path d="M182.587 53.6194L181.087 55.4483C181.059 55.48 181.019 55.4919 180.983 55.484L177.071 54.4525L173.322 55.8648C173.31 55.8688 173.298 55.8728 173.286 55.8728C173.266 55.8728 173.246 55.8648 173.23 55.8529C172.725 55.4919 171.773 54.8096 171.168 54.3573L171.324 54.2264C171.861 54.6192 172.677 55.2102 173.302 55.6625L177.031 54.2542C177.047 54.2462 177.071 54.2462 177.091 54.2502L180.971 55.2737L182.424 53.5044L182.587 53.6194Z" fill="white"/>
<path d="M192.51 158.716C192.506 158.624 192.259 149.484 191.598 140.225C190.623 126.527 187.515 102.434 185.19 87.9664L185.385 87.9347C187.706 102.407 190.818 126.507 191.793 140.209C192.454 149.476 192.705 158.62 192.705 158.712L192.51 158.716Z" fill="#432254"/>
<path d="M169.373 157.24L169.174 157.236L170.11 88.2402L170.309 88.2442L169.373 157.24Z" fill="#432254"/>
<path d="M193.99 159.89L185.616 160.069V160.005C185.588 158.712 186.002 158.355 186.918 157.732C187.578 157.284 188.211 157.121 189.409 156.99C190.611 156.859 191.101 157.006 192.092 157.383C193.119 157.776 193.963 158.573 193.99 159.89Z" fill="#0C0C0C"/>
<path d="M168.394 89.3155C168.637 89.256 187.073 87.923 187.073 87.923L186.902 85.1738L168.502 86.6734L168.394 89.3155Z" fill="#111111"/>
<path d="M173.777 86.2559L172.823 86.316L173.005 89.1666L173.958 89.1065L173.777 86.2559Z" fill="#694582"/>
<path d="M185.381 88.046L184.426 88.1134L184.251 85.392L185.206 85.3126L185.381 88.046Z" fill="#694582"/>
<path d="M182.544 88.407L181.588 88.4665L181.405 85.6181L182.361 85.5427L182.544 88.407Z" fill="#694582"/>
<path d="M171.26 89.0932L170.321 89.3908L170.142 86.5384L171.093 86.4591L171.26 89.0932Z" fill="#694582"/>
<path d="M179.893 88.4426L176.597 88.6846L176.43 86.0306L179.722 85.7609L179.893 88.4426Z" fill="#FCA054"/>
<path d="M169.282 92.7627C168.936 92.7627 169.147 90.2357 168.641 91.2988C168.47 91.6599 168.693 93.2348 168.558 94.6471C168.522 95.0517 168.546 96.0673 168.319 96.3093C168.231 96.4085 168.14 96.2657 168.068 96.2617C168.048 96.2577 168.028 96.2696 168.012 96.3014C167.965 96.4005 167.921 96.5711 167.873 96.7219C167.873 96.7219 167.873 96.7259 167.873 96.7298C167.829 96.8607 167.781 96.9718 167.722 97.0273C167.646 97.0988 167.531 96.9996 167.431 96.9559C167.391 96.9361 167.352 96.9282 167.316 96.944C167.288 96.9559 167.26 96.9956 167.236 97.0393V97.0432C167.176 97.1384 167.113 97.2733 167.025 97.2733C166.958 97.2733 166.894 97.1464 166.818 97.0591C166.786 97.0194 166.755 96.9877 166.719 96.9797C166.691 96.9718 166.655 96.9797 166.623 96.9916C166.512 97.0274 166.325 97.2297 166.265 96.9321C165.978 95.5635 166.257 91.3861 165.326 89.1685C164.94 88.2481 168.745 86.3479 168.745 86.3479C168.745 86.3479 169.151 87.4151 169.533 89.6406C169.608 90.1048 170.197 92.7667 169.282 92.7627Z" fill="#FFBD9C"/>
<path d="M167.431 96.9559C167.391 96.9361 167.352 96.9281 167.316 96.944C167.288 96.9559 167.26 96.9956 167.236 97.0392C167.216 96.3331 167.18 94.6431 167.196 94.171C167.196 94.1155 167.24 94.0718 167.296 94.0758C167.352 94.0758 167.395 94.1234 167.395 94.179C167.379 94.6233 167.415 96.2141 167.431 96.9559Z" fill="#C48362"/>
<path d="M168.072 96.2617C168.052 96.2578 168.032 96.2696 168.016 96.3014C167.969 96.4006 167.925 96.5711 167.877 96.7219C167.869 96.0316 167.845 93.933 167.881 93.453C167.885 93.3975 167.933 93.3538 167.988 93.3618C168.04 93.3657 168.084 93.4133 168.08 93.4649C168.052 93.8537 168.064 95.3652 168.072 96.2617Z" fill="#C48362"/>
<path d="M166.818 97.0592C166.786 97.0195 166.755 96.9878 166.719 96.9799C166.691 96.9719 166.655 96.9799 166.623 96.9918C166.595 95.5676 166.564 93.707 166.552 93.6118C166.548 93.5563 166.583 93.5047 166.639 93.5007C166.691 93.4928 166.739 93.5285 166.747 93.5801C166.763 93.6674 166.802 96.0912 166.818 97.0592Z" fill="#C48362"/>
<path d="M167.754 85.5505L168.848 87.2961L165.326 89.1685L165.115 88.875C165.111 88.875 165.966 86.8557 167.754 85.5505Z" fill="#FFBD9C"/>
<path d="M164.363 75.6328L169.517 86.5899C169.517 86.5899 168.339 88.4783 167.813 88.9702C166.325 90.3587 165.334 90.0294 165.334 90.0294L158.595 80.3814C157.421 78.6756 157.771 77.6759 158.046 75.6249C158.918 69.1268 161.453 56.797 167.901 55.5077C168.788 55.3331 169.771 61.2402 169.771 61.2402L164.446 75.1885L164.367 75.4265L164.323 75.5535L164.359 75.6249L164.363 75.6328Z" fill="white"/>
<path d="M164.359 75.6249L164.363 75.6328L162.579 76.0335H162.556C162.512 76.0335 162.472 76.0017 162.46 75.9581C162.448 75.9026 162.484 75.851 162.536 75.8391L164.366 75.4265L164.359 75.6249Z" fill="#C8BDD1"/>
<path d="M169.517 86.6892C169.481 86.6892 169.445 86.6693 169.425 86.6297L168.12 83.8091C168.096 83.7615 168.12 83.702 168.167 83.6782C168.215 83.6544 168.275 83.6782 168.299 83.7258L169.604 86.5464C169.628 86.594 169.604 86.6535 169.557 86.6773C169.545 86.6852 169.529 86.6892 169.517 86.6892Z" fill="#C8BDD1"/>
<path d="M166.595 69.6543C166.591 69.6543 166.583 69.6543 166.579 69.6543C166.524 69.6464 166.488 69.5948 166.5 69.5393C167.706 62.8944 167.535 60.1174 167.535 60.0897C167.531 60.0341 167.57 59.9865 167.626 59.9826C167.694 59.9786 167.73 60.0222 167.734 60.0738C167.734 60.1016 167.905 62.9023 166.695 69.571C166.687 69.6226 166.643 69.6543 166.595 69.6543Z" fill="#C8BDD1"/>
<path d="M167.527 63.1959C167.471 63.1959 167.427 63.1523 167.427 63.0968C167.427 62.5334 166.822 60.8752 166.818 60.8593C166.798 60.8078 166.826 60.7522 166.878 60.7324C166.93 60.7125 166.985 60.7403 167.005 60.7919C167.029 60.8633 167.626 62.4977 167.626 63.0968C167.626 63.1483 167.582 63.1959 167.527 63.1959Z" fill="#C8BDD1"/>
<path d="M187.232 150.579C187.216 150.579 187.204 150.575 187.188 150.571C187.141 150.548 187.117 150.488 187.141 150.44C188.585 147.421 188.148 136.024 188.144 135.909C188.144 135.853 188.183 135.81 188.239 135.806C188.303 135.806 188.339 135.845 188.343 135.901C188.363 136.373 188.788 147.465 187.32 150.528C187.308 150.559 187.272 150.579 187.232 150.579Z" fill="#432254"/>
<path d="M183.503 74.4625C183.503 75.6526 183.021 76.6166 182.424 76.6166C181.831 76.6166 181.346 75.6526 181.346 74.4625C181.346 73.2724 181.827 72.3083 182.424 72.3083C183.021 72.3083 183.503 73.2724 183.503 74.4625Z" fill="#C8BDD1"/>
<path d="M179.523 69.8884L181.561 71.5149L183.025 71.7292L181.76 73.5699L179.861 73.2803L179.523 69.8884Z" fill="#C48362"/>
<path d="M180.414 77.3268H177.123C176.705 77.3268 176.367 76.9896 176.367 76.573V69.0395C176.367 68.623 176.705 68.2858 177.123 68.2858H180.414C180.832 68.2858 181.171 68.623 181.171 69.0395V76.573C181.171 76.9896 180.832 77.3268 180.414 77.3268Z" fill="#1C1C1C"/>
<path d="M183.097 71.7174C183.097 71.7174 181.342 71.9713 180.386 72.6497C179.555 73.2408 179.499 75.1331 180.319 75.5734C180.494 75.6686 180.701 75.7361 180.924 75.7877C181.831 75.9939 182.782 75.8551 183.626 75.4624L185.095 74.78L183.097 71.7174Z" fill="#FFBD9C"/>
<path d="M180.948 72.3322C180.948 72.3322 176.339 72.6059 176.172 72.9748C176.036 73.2724 178.126 73.4707 179.081 73.4152C179.996 73.3636 180.816 73.3676 180.816 73.3676L180.948 72.3322Z" fill="#FFBD9C"/>
<path d="M180.542 73.4749L178.42 73.6137C178.42 73.6137 176.888 73.5978 176.367 73.6494C175.992 73.6891 175.988 73.9509 176.016 74.0461C176.124 74.4468 178.154 74.3357 179.109 74.2802C180.024 74.2286 180.844 74.2326 180.844 74.2326L180.542 73.4749Z" fill="#FFBD9C"/>
<path d="M180.757 74.3594L178.353 74.5062C178.353 74.5062 176.39 74.4943 176.287 74.5141C175.925 74.5815 176.016 75.006 176.255 75.0893C176.761 75.2639 178.472 75.2123 179.272 75.1647C180.187 75.1131 181.059 75.1171 181.059 75.1171L180.757 74.3594Z" fill="#FFBD9C"/>
<path d="M181.533 75.1726C181.533 75.1726 178.87 75.3115 177.692 75.4543C177.35 75.4979 177.306 75.5971 177.322 75.7518C177.338 75.9105 177.899 75.9898 178.006 75.9938C178.878 76.0335 179.292 76.0255 180.1 75.9779C181.015 75.9264 181.907 75.9065 181.907 75.9065L181.533 75.1726Z" fill="#FFBD9C"/>
<path d="M185.99 54.6112C192.605 55.8727 198.575 75.4146 196.804 78.5288C195.033 81.643 182.544 76.6127 182.544 76.6127C182.544 76.6127 182.87 76.1128 183.085 74.4585C183.192 73.6255 183.101 71.7133 183.101 71.7133L191.085 72.8003C191.085 72.8003 188.386 70.2217 187.336 66.8219C185.656 61.4108 183.399 54.1153 185.99 54.6112Z" fill="white"/>
<path d="M191.085 72.9034C191.081 72.9034 191.077 72.9034 191.073 72.9034L183.073 71.9116C183.017 71.9037 182.981 71.8561 182.985 71.8006C182.993 71.745 183.037 71.7054 183.097 71.7133L191.097 72.7051C191.153 72.713 191.188 72.7606 191.184 72.8162C191.176 72.8677 191.133 72.9034 191.085 72.9034Z" fill="#C8BDD1"/>
<path d="M187.61 78.4494C187.598 78.4494 187.586 78.4494 187.578 78.4455L182.122 76.5333C182.07 76.5175 182.042 76.458 182.062 76.4064C182.082 76.3548 182.138 76.3271 182.189 76.3469L187.646 78.259C187.698 78.2749 187.726 78.3344 187.706 78.386C187.69 78.4256 187.65 78.4494 187.61 78.4494Z" fill="#C8BDD1"/>
<path d="M188.677 69.702C188.629 69.702 188.585 69.6663 188.577 69.6187C188.566 69.5512 187.495 62.6524 187.682 60.0738C187.686 60.0183 187.734 59.9786 187.789 59.9826C187.845 59.9865 187.885 60.0341 187.881 60.0897C187.698 62.6445 188.765 69.5195 188.777 69.5869C188.784 69.6425 188.749 69.6901 188.693 69.702C188.689 69.702 188.681 69.702 188.677 69.702Z" fill="#C8BDD1"/>
<path d="M194.432 74.1492C194.416 74.1492 194.4 74.1452 194.384 74.1373C192.872 73.3121 191.081 72.9075 191.061 72.9035C191.017 72.8916 190.985 72.8519 190.981 72.8083C190.981 72.7607 191.013 72.721 191.057 72.7131C192.199 72.4433 192.601 72.4473 192.617 72.4473C192.673 72.4473 192.717 72.4949 192.717 72.5464C192.717 72.602 192.673 72.6456 192.617 72.6456C192.617 72.6456 192.315 72.6456 191.507 72.8162C192.132 72.9868 193.378 73.3676 194.48 73.9667C194.528 73.9944 194.548 74.054 194.52 74.1016C194.5 74.1293 194.468 74.1492 194.432 74.1492Z" fill="#C8BDD1"/>
<path d="M187.889 63.4618C187.881 63.4618 187.877 63.4618 187.869 63.4618C187.817 63.4499 187.781 63.3984 187.789 63.3468C187.801 63.2793 188.124 61.7044 188.351 61.0895C188.371 61.0379 188.426 61.0141 188.478 61.03C188.53 61.0498 188.558 61.1054 188.538 61.157C188.319 61.756 187.988 63.3666 187.988 63.3825C187.976 63.4301 187.937 63.4618 187.889 63.4618Z" fill="#C8BDD1"/>
<path d="M176.056 72.6377C176.012 72.9313 176.191 73.0542 176.191 73.0542L178.209 72.7012L176.367 72.4552C176.367 72.4552 176.084 72.4552 176.056 72.6377Z" fill="#FFBD9C"/>
<path d="M176.371 73.6255C176.223 73.6374 175.909 73.7088 176.016 74.0301L176.8 73.6175C176.796 73.6136 176.478 73.6175 176.371 73.6255Z" fill="#FFBD9C"/>
<path d="M178.012 69.8925C178.008 69.8925 178.008 69.8925 178.012 69.8925L177.272 69.8885C177.156 69.8885 177.045 69.8409 176.961 69.7576C176.878 69.6743 176.834 69.5672 176.834 69.4481V69.1704C176.834 68.9324 177.033 68.738 177.272 68.738C177.272 68.738 177.272 68.738 177.276 68.738L178.016 68.742C178.259 68.742 178.454 68.9404 178.45 69.1784V69.4561C178.446 69.6981 178.251 69.8925 178.012 69.8925ZM178.008 69.6941C178.139 69.6941 178.247 69.587 178.247 69.4561V69.1784C178.247 69.0475 178.139 68.9404 178.008 68.9404L177.268 68.9364C177.136 68.9364 177.029 69.0435 177.029 69.1744V69.4521C177.029 69.5156 177.053 69.5751 177.096 69.6187C177.14 69.6624 177.2 69.6901 177.264 69.6901L178.008 69.6941Z" fill="#C8BDD1"/>
<path d="M178.373 70.4756L176.924 70.4676C176.868 70.4676 176.824 70.424 176.824 70.3685C176.824 70.3129 176.868 70.2693 176.924 70.2693L178.373 70.2772C178.428 70.2772 178.472 70.3209 178.472 70.3764C178.472 70.4319 178.428 70.4756 178.373 70.4756Z" fill="#C8BDD1"/>
<path d="M182.309 42.7614C181.728 44.2213 180.78 45.213 180.187 44.979C179.594 44.7449 179.582 43.3723 180.164 41.9164C180.745 40.4565 181.692 39.4647 182.285 39.6988C182.878 39.9328 182.89 41.3054 182.309 42.7614Z" fill="#FFBD9C"/>
<path d="M182.333 40.9048C182.329 40.9048 182.329 40.9048 182.333 40.9048C182.281 40.8929 182.249 40.8453 182.261 40.7977C182.277 40.7342 182.293 40.5438 182.201 40.4446C182.138 40.3772 182.026 40.3534 181.871 40.3772C181.819 40.3851 181.776 40.3494 181.768 40.3018C181.76 40.2542 181.795 40.2066 181.843 40.1986C182.062 40.1669 182.229 40.2066 182.337 40.3216C182.512 40.512 182.444 40.8254 182.44 40.8373C182.428 40.885 182.38 40.9167 182.333 40.9048Z" fill="#C48362"/>
<path d="M181.573 43.2652C181.557 43.2613 181.541 43.2533 181.525 43.2414C181.489 43.2057 181.489 43.1502 181.525 43.1145C181.955 42.6821 182.249 41.5515 182.249 41.5396C182.261 41.4919 182.313 41.4602 182.361 41.4721C182.408 41.484 182.44 41.5356 182.428 41.5832C182.416 41.6308 182.118 42.7733 181.656 43.2414C181.632 43.2613 181.604 43.2692 181.573 43.2652Z" fill="#C48362"/>
<path d="M134.623 147.505C134.623 148.437 134.719 149.282 134.265 149.282C133.811 149.282 132.979 148.437 132.979 147.505C132.979 146.572 133.135 144.72 133.588 144.72C134.042 144.72 134.623 146.572 134.623 147.505Z" fill="#7D5B99"/>
<path d="M144.912 147.501C144.912 148.433 145.306 149.31 144.852 149.31C144.398 149.31 143.65 148.374 143.65 147.441C143.65 146.509 143.634 145.811 144.088 145.811C144.542 145.811 144.912 146.568 144.912 147.501Z" fill="#7D5B99"/>
<path d="M140.506 143.732C140.506 143.732 143.881 144.383 144.406 145.252C144.589 145.553 143.101 145.871 143.101 145.871L140.995 145.498L140.506 143.732Z" fill="#C48362"/>
<path d="M140.649 150.222L137.449 150.147C137.031 150.135 136.697 149.79 136.709 149.373L136.896 141.59C136.908 141.173 137.254 140.84 137.672 140.852L140.872 140.927C141.29 140.939 141.624 141.285 141.612 141.701L141.425 149.485C141.417 149.905 141.067 150.234 140.649 150.222Z" fill="white"/>
<path d="M144.335 145.196C144.335 145.196 142.683 144.077 141.6 144.811C140.657 145.446 140.55 147.553 141.445 148.064C142.058 148.413 142.985 148.425 143.519 148.394C143.738 148.382 143.957 148.354 144.171 148.31L148.53 147.457L144.335 145.196Z" fill="#FFBD9C"/>
<path d="M142.416 144.561C142.416 144.561 137.891 144.823 137.919 145.295C137.943 145.66 139.18 145.668 140.243 145.632C141.266 145.597 142.177 145.624 142.177 145.624L142.416 144.561Z" fill="#FFBD9C"/>
<path d="M141.752 145.736C141.752 145.736 137.779 145.787 137.811 146.259C137.835 146.624 139.073 146.632 140.136 146.597C141.158 146.561 142.07 146.589 142.07 146.589L141.752 145.736Z" fill="#FFBD9C"/>
<path d="M141.966 146.724C141.966 146.724 137.994 146.775 138.026 147.247C138.05 147.612 139.288 147.62 140.351 147.584C141.373 147.549 142.285 147.576 142.285 147.576L141.966 146.724Z" fill="#FFBD9C"/>
<path d="M142.806 147.648C142.806 147.648 138.834 147.699 138.862 148.171C138.886 148.536 140.124 148.544 141.186 148.509C142.209 148.473 143.889 148.358 143.889 148.358L142.806 147.648Z" fill="#FFBD9C"/>
<path d="M136.832 143.923C136.832 143.923 134.074 144.204 133.517 144.641C133.19 144.899 134.826 145.676 134.826 145.676L136.812 145.359L136.832 143.923Z" fill="#C48362"/>
<path d="M133.521 144.641C133.521 144.641 135.336 143.907 136.382 144.688C137.294 145.371 137.302 147.473 136.378 147.945C136.179 148.045 135.953 148.12 135.718 148.171C134.758 148.386 133.214 148.378 132.351 147.914L130.536 147.505L133.521 144.641Z" fill="#FFBD9C"/>
<path d="M135.176 144.712C135.065 144.565 135.232 144.319 135.415 144.339C136.709 144.49 140.076 144.966 140.032 145.347C139.992 145.708 138.755 145.66 137.696 145.573C136.677 145.49 135.765 145.474 135.765 145.474L135.176 144.712Z" fill="#FFBD9C"/>
<path d="M136.187 145.605C136.187 145.605 140.152 145.847 140.1 146.315C140.06 146.676 138.822 146.628 137.763 146.541C136.745 146.458 135.833 146.442 135.833 146.442L136.187 145.605Z" fill="#FFBD9C"/>
<path d="M135.921 146.581C135.921 146.581 139.885 146.823 139.833 147.291C139.793 147.652 138.555 147.604 137.497 147.517C136.478 147.434 135.566 147.418 135.566 147.418L135.921 146.581Z" fill="#FFBD9C"/>
<path d="M135.041 147.465C135.041 147.465 139.005 147.707 138.954 148.175C138.914 148.536 137.676 148.489 136.617 148.402C135.598 148.318 134.241 148.298 134.241 148.298L135.041 147.465Z" fill="#FFBD9C"/>
<path d="M133.572 144.68C133.572 144.68 133.509 145.501 133.572 147.076C133.652 149.084 134.289 149.266 134.289 149.266L134.285 149.282L126.042 149.346C124.657 149.215 123.141 149.02 122.75 147.687C121.811 144.466 124.569 139.214 125.958 136.095C127.718 132.148 132.024 129.312 133.063 128.677C133.127 128.637 133.178 128.59 133.234 128.55C133.322 128.487 133.409 128.423 133.489 128.368C133.767 128.177 133.974 128.05 134.09 127.987C134.11 127.971 134.13 127.963 134.142 127.955C134.169 127.939 134.185 127.931 134.185 127.931V127.935L134.13 129.066L134.118 129.284L134.082 133.981L129.568 144.514L133.572 144.68Z" fill="#DAA0F2"/>
<path d="M143.96 144.922C143.96 144.922 144.51 145.93 144.597 146.509C144.864 148.231 144.852 149.306 144.852 149.306L153.099 149.346C154.484 149.215 156 149.02 156.39 147.687C157.33 144.466 154.241 139.281 152.856 136.167C151.097 132.22 145.748 128.578 145.668 128.522C145.389 128.332 145.206 128.256 145.091 128.193C145.071 128.177 145.011 129.066 145.011 129.066L145.023 129.284L145.059 133.981L149.572 144.514L143.96 144.922Z" fill="#DAA0F2"/>
<path d="M145.274 128.292C145.262 128.308 145.25 128.32 145.234 128.332C145.166 128.395 145.095 128.459 145.023 128.522C143.785 129.585 141.998 130.581 139.507 130.649H139.268C137.258 130.649 135.451 129.978 134.118 129.284C133.763 129.101 133.441 128.915 133.162 128.74C133.127 128.72 133.095 128.697 133.063 128.677C133.123 128.633 133.178 128.59 133.234 128.55C133.25 128.562 133.266 128.57 133.286 128.582C133.537 128.74 133.819 128.903 134.13 129.066C135.447 129.764 137.25 130.45 139.268 130.45H139.503C141.974 130.383 143.738 129.379 144.952 128.316C144.979 128.288 145.011 128.264 145.039 128.237C145.059 128.221 145.075 128.205 145.091 128.193C145.151 128.221 145.214 128.256 145.274 128.292Z" fill="#7D5B99"/>
<path d="M131.057 141.146C131.049 141.146 131.041 141.146 131.033 141.142C130.981 141.13 130.946 141.074 130.961 141.023L132.745 133.957C132.756 133.906 132.812 133.87 132.864 133.886C132.916 133.898 132.952 133.953 132.936 134.005L131.152 141.07C131.141 141.118 131.101 141.146 131.057 141.146Z" fill="#7D5B99"/>
<path d="M126.563 144.871C126.512 144.871 126.468 144.831 126.464 144.783C126.46 144.728 126.5 144.68 126.551 144.672C129.664 144.351 131.889 144.319 133.549 144.577C133.604 144.585 133.64 144.637 133.632 144.692C133.624 144.748 133.572 144.783 133.517 144.775C131.873 144.522 129.664 144.549 126.571 144.871C126.571 144.871 126.567 144.871 126.563 144.871Z" fill="#7D5B99"/>
<path d="M131.996 137.416C131.945 137.416 131.901 137.373 131.897 137.321L131.801 135.016C131.797 134.961 131.841 134.917 131.897 134.913C131.956 134.917 131.996 134.953 132 135.008L132.096 137.313C132.1 137.369 132.056 137.416 131.996 137.416C131.996 137.416 132 137.416 131.996 137.416Z" fill="#7D5B99"/>
<path d="M147.957 141.027C147.913 141.027 147.869 140.995 147.861 140.951L146.209 134.005C146.197 133.953 146.229 133.898 146.285 133.886C146.341 133.874 146.392 133.906 146.404 133.961L148.056 140.908C148.068 140.959 148.036 141.015 147.98 141.027C147.972 141.027 147.964 141.027 147.957 141.027Z" fill="#7D5B99"/>
<path d="M144.012 145.065C143.964 145.065 143.921 145.029 143.913 144.982C143.905 144.926 143.941 144.879 143.996 144.867C147.021 144.395 149.783 144.303 152.207 144.593C152.263 144.601 152.303 144.648 152.295 144.704C152.287 144.76 152.239 144.799 152.183 144.791C149.779 144.506 147.033 144.597 144.024 145.065C144.024 145.065 144.016 145.065 144.012 145.065Z" fill="#7D5B99"/>
<path d="M147.145 137.416C147.085 137.412 147.041 137.369 147.045 137.313L147.141 135.008C147.145 134.953 147.196 134.917 147.244 134.913C147.3 134.917 147.344 134.961 147.34 135.016L147.244 137.321C147.244 137.377 147.2 137.416 147.145 137.416Z" fill="#7D5B99"/>
<path d="M138.597 142.669C138.593 142.669 138.589 142.669 138.585 142.669L137.849 142.653C137.733 142.649 137.622 142.601 137.542 142.518C137.462 142.435 137.419 142.324 137.423 142.209L137.431 141.931C137.435 141.816 137.482 141.705 137.566 141.625C137.65 141.546 137.765 141.503 137.876 141.506L138.617 141.522C138.859 141.526 139.051 141.729 139.043 141.967L139.035 142.244C139.031 142.478 138.836 142.669 138.597 142.669ZM137.864 141.701C137.737 141.701 137.63 141.804 137.626 141.931L137.618 142.209C137.618 142.272 137.642 142.332 137.685 142.379C137.729 142.427 137.789 142.451 137.853 142.451L138.593 142.467C138.716 142.467 138.832 142.367 138.836 142.236L138.844 141.959C138.844 141.895 138.824 141.836 138.776 141.788C138.732 141.741 138.672 141.717 138.609 141.717L137.868 141.701C137.868 141.701 137.868 141.701 137.864 141.701Z" fill="#C8BDD1"/>
<path d="M138.946 143.256L137.497 143.224C137.441 143.224 137.397 143.177 137.401 143.121C137.401 143.066 137.445 143.026 137.505 143.026L138.953 143.058C139.009 143.058 139.053 143.105 139.049 143.161C139.045 143.212 139.001 143.256 138.946 143.256Z" fill="#C8BDD1"/>
<g opacity="0.8">
<g opacity="0.8">
<path opacity="0.8" d="M163.411 24.6C162.536 24.6 161.823 23.8898 161.823 23.0171C161.823 22.1443 162.536 21.4342 163.411 21.4342C164.287 21.4342 164.999 22.1443 164.999 23.0171C165.003 23.8898 164.287 24.6 163.411 24.6ZM163.411 21.8309C162.755 21.8309 162.221 22.3625 162.221 23.0171C162.221 23.6716 162.755 24.2032 163.411 24.2032C164.068 24.2032 164.601 23.6716 164.601 23.0171C164.601 22.3625 164.068 21.8309 163.411 21.8309Z" fill="white"/>
</g>
</g>
<g opacity="0.8">
<g opacity="0.8">
<path opacity="0.8" d="M33.5045 107.639C32.9832 107.639 32.5573 107.215 32.5573 106.695C32.5573 106.175 32.9832 105.751 33.5045 105.751C34.0259 105.751 34.4518 106.175 34.4518 106.695C34.4518 107.219 34.0259 107.639 33.5045 107.639ZM33.5045 106.152C33.2021 106.152 32.9553 106.398 32.9553 106.699C32.9553 107.001 33.2021 107.247 33.5045 107.247C33.807 107.247 34.0538 107.001 34.0538 106.699C34.0538 106.398 33.807 106.152 33.5045 106.152Z" fill="white"/>
</g>
</g>
<g opacity="0.8">
<g opacity="0.8">
<path opacity="0.8" d="M202.261 68.2105C201.74 68.2105 201.314 67.786 201.314 67.2663C201.314 66.7466 201.74 66.3221 202.261 66.3221C202.782 66.3221 203.208 66.7466 203.208 67.2663C203.204 67.79 202.782 68.2105 202.261 68.2105ZM202.261 66.7228C201.959 66.7228 201.712 66.9688 201.712 67.2703C201.712 67.5718 201.959 67.8177 202.261 67.8177C202.564 67.8177 202.81 67.5718 202.81 67.2703C202.81 66.9688 202.564 66.7228 202.261 66.7228Z" fill="white"/>
</g>
</g>
<g opacity="0.8">
<g opacity="0.8">
<path opacity="0.8" d="M20.6806 48.6843C19.9523 48.6843 19.3632 48.0932 19.3632 47.3712C19.3632 46.6452 19.9563 46.0581 20.6806 46.0581C21.409 46.0581 21.9981 46.6492 21.9981 47.3712C22.002 48.0932 21.409 48.6843 20.6806 48.6843ZM20.6806 46.4509C20.1712 46.4509 19.7612 46.8634 19.7612 47.3673C19.7612 47.875 20.1752 48.2837 20.6806 48.2837C21.1901 48.2837 21.6 47.8711 21.6 47.3673C21.604 46.8634 21.1901 46.4509 20.6806 46.4509Z" fill="white"/>
</g>
</g>
<path d="M50.2449 131.456C50.2329 131.456 50.225 131.456 50.213 131.452C50.1613 131.437 50.1334 131.377 50.1494 131.325C50.3484 130.726 51.1603 125.934 51.3275 123.99C51.3315 123.935 51.3832 123.895 51.4349 123.899C51.4907 123.903 51.5305 123.951 51.5265 124.006C51.3713 125.823 50.5633 130.715 50.3404 131.389C50.3245 131.429 50.2887 131.456 50.2449 131.456Z" fill="#D89682"/>
</svg>
