<svg width="182" height="140" viewBox="0 0 182 140" fill="none" xmlns="http://www.w3.org/2000/svg">
<path d="M82.6969 135.322C116.873 135.322 144.579 107.617 144.579 73.4405C144.579 39.2642 116.873 11.5588 82.6969 11.5588C48.5206 11.5588 20.8152 39.2642 20.8152 73.4405C20.8152 107.617 48.5206 135.322 82.6969 135.322Z" fill="#F3F3F3"/>
<path d="M86.8864 37.0849L98.1714 39.5391L99.0192 39.6414C101.239 36.468 103.548 33.8125 108.302 32.9647C115.147 31.7342 130.374 26.1131 138.773 45.8926C138.773 45.8926 129.46 48.4062 124.502 50.0853C124.502 50.0853 124.875 52.3813 124.634 55.1555C132.934 51.9722 144.1 48.7064 147.257 44.8436C150.417 40.9774 155.916 37.7347 160.548 36.5571C165.183 35.3827 169.636 33.6838 169.636 33.6838C169.636 33.6838 169.286 21.1188 161.198 10.3054C161.198 10.3054 145.789 16.4873 141.309 19.984C137.071 23.2927 130.483 23.6358 123.641 26.6014C122.784 26.9741 121.87 27.2215 120.943 27.337C111.175 28.5509 110.034 27.3172 106.385 27.8351C102.556 28.3794 98.0989 31.2592 94.7671 32.1334C93.6917 32.4171 90.4589 34.2479 86.8864 37.0849Z" fill="#FFD2A8"/>
<path opacity="0.4" d="M115.114 31.6318C115.114 31.6318 100.438 32.1003 96.9113 39.2652C104.413 41.4721 112.597 34.8448 115.114 31.6318Z" fill="#FFD2A8"/>
<path d="M112.102 50.6196C112.119 50.6295 112.138 50.6328 112.162 50.6361C112.165 50.5801 112.171 50.5174 112.171 50.4547C112.155 50.5108 112.132 50.5636 112.102 50.6196Z" fill="#FFD2A8"/>
<path d="M77.2375 63.6003C80.0744 66.6682 84.2935 70.1847 86.0056 68.0405C87.0084 66.9156 87.5329 65.4377 86.9919 63.9533C86.8534 63.5607 86.639 63.1682 86.3256 62.7822C86.2266 62.7954 86.1177 62.8053 86.0155 62.8119C83.1785 63.1121 80.2228 63.3727 77.2375 63.6003Z" fill="#FFD2A8"/>
<path d="M112.102 50.6196C112.119 50.6295 112.138 50.6328 112.162 50.6361C112.165 50.5801 112.171 50.5174 112.171 50.4547C112.155 50.5108 112.132 50.5636 112.102 50.6196Z" fill="#FFD2A8"/>
<path d="M109.582 66.7572C109.654 66.8166 109.734 66.8892 109.823 66.9617C110.766 67.7369 112.617 69.0004 114.441 68.8156C116.17 68.6408 118.01 67.2619 119.881 65.0913C120.903 64.1413 121.25 63.7718 121.659 63.4617C122.2 63.0461 123.595 61.2186 124.308 57.3656C124.308 57.359 124.311 57.3524 124.308 57.3491C124.433 56.6828 124.535 55.9537 124.611 55.162C124.618 55.162 124.628 55.1554 124.638 55.1554C124.878 52.3812 124.506 50.0852 124.506 50.0852C124.103 50.2238 123.727 50.3524 123.394 50.4778C122.566 50.7779 121.629 50.9759 120.629 51.088C119.825 53.7007 117.641 60.4829 116.12 62.0268C115.154 63.0065 112.551 64.9924 109.582 66.7572Z" fill="#FFD2A8"/>
<path d="M124.608 55.162C124.535 55.9537 124.43 56.686 124.304 57.3491C124.469 56.6069 124.572 55.8646 124.631 55.1554C124.624 55.1554 124.618 55.1653 124.608 55.162Z" fill="#FFD2A8"/>
<path opacity="0.4" d="M109.582 66.7573C109.654 66.8166 109.734 66.8892 109.823 66.9618C110.766 67.737 112.617 69.0004 114.441 68.8157C116.17 68.6409 118.01 67.262 119.881 65.0914C120.903 64.1413 121.25 63.7719 121.659 63.4618C122.2 63.0461 123.595 61.2186 124.308 57.3657C124.308 57.3591 124.311 57.3525 124.308 57.3492C124.473 56.6069 124.575 55.8647 124.634 55.1555C132.934 51.9722 144.1 48.7064 147.257 44.8435C150.417 40.9774 155.916 37.7347 160.548 36.557C165.183 35.3826 169.636 33.6838 169.636 33.6838C169.636 33.6838 169.61 32.7238 169.402 31.0975C166.924 32.1597 163.025 33.7398 160.099 34.4821C155.468 35.6597 149.969 38.9024 146.809 42.7686C143.652 46.6315 132.485 49.8972 124.186 53.0806C124.123 53.7898 124.024 54.5353 123.859 55.2742C123.862 55.2775 123.859 55.2808 123.859 55.2907C123.146 59.1437 121.754 60.9712 121.21 61.3869C120.801 61.6969 120.455 62.0664 119.432 63.0165C117.562 65.1837 115.721 66.5659 113.992 66.7408C112.91 66.8463 111.812 66.4472 110.911 65.9392C110.479 66.213 110.034 66.4868 109.582 66.7573Z" fill="#FFD2A8"/>
<path d="M99.9957 69.8943C100.078 69.9768 100.174 70.0395 100.293 70.089C100.507 70.178 100.781 70.211 101.13 70.1813C102.585 70.0494 104.33 69.4457 106.115 68.6078C106.118 68.6045 106.128 68.6045 106.131 68.6012C106.864 68.2647 107.599 67.8821 108.322 67.4829C108.744 67.2487 109.166 67.0046 109.579 66.7539C111.228 65.7775 112.765 64.7285 113.966 63.818C114.114 63.7058 114.26 63.597 114.405 63.4881C114.504 63.4156 114.593 63.3397 114.685 63.2638C115.309 62.7756 115.797 62.3434 116.113 62.0268C117.634 60.4829 119.818 53.7007 120.623 51.088C120.362 51.121 120.095 51.1474 119.821 51.1672C119.62 51.1771 119.412 51.1936 119.208 51.2002C116.829 51.3091 114.269 51.0287 112.165 50.6361C112.003 53.064 111.202 55.4886 109.8 57.3623C109.391 57.9066 108.563 58.4212 107.375 58.9061C107.378 60.1696 106.201 61.3307 104.607 62.7822C103.219 64.0456 101.912 66.1832 100.072 67.6182C99.8142 67.8194 99.5437 68.0041 99.26 68.179C99.1545 68.2417 99.1017 68.2746 99.1281 68.5122C99.1413 69.129 99.6955 69.581 99.9957 69.8943Z" fill="#FFD2A8"/>
<path d="M112.102 50.6196C112.119 50.6295 112.138 50.6328 112.162 50.6361C112.165 50.5801 112.171 50.5174 112.171 50.4547C112.155 50.5108 112.132 50.5636 112.102 50.6196Z" fill="#FFD2A8"/>
<path d="M112.102 50.6196C112.119 50.6295 112.138 50.6328 112.162 50.6361C112.165 50.5801 112.171 50.5174 112.171 50.4547C112.155 50.5108 112.132 50.5636 112.102 50.6196Z" fill="#FFD2A8"/>
<path d="M86.9919 63.9566C88.7336 65.8764 91.6498 68.5122 94.8595 69.0136C95.5753 69.1257 96.2384 69.1257 96.842 69.04C96.8453 69.0433 96.8453 69.0433 96.8486 69.04C97.0894 69.0103 97.3204 68.9641 97.5447 68.908C97.548 68.9047 97.5579 68.9047 97.5612 68.9014C98.178 68.7398 98.7355 68.4891 99.2567 68.1724C99.5404 68.0009 99.8109 67.8161 100.068 67.6116C101.909 66.1766 103.215 64.0423 104.604 62.7756C106.197 61.3241 107.375 60.163 107.372 58.8995C107.375 58.6521 107.329 58.4047 107.236 58.1474C107.078 57.7153 106.788 57.2666 106.323 56.785C104.159 54.5254 100.359 56.7158 100.359 56.7158C98.5673 57.4349 94.9023 61.1955 94.3119 61.7332C94.2591 61.7794 94.1502 61.8157 93.9985 61.8552C93.982 61.8552 93.9655 61.8618 93.9523 61.8651C93.8335 61.8882 93.6917 61.908 93.5268 61.9245C93.507 61.9278 93.4905 61.9278 93.4674 61.9311C91.2275 62.2445 88.8425 62.5216 86.3684 62.7789C86.3552 62.7822 86.3387 62.7822 86.3189 62.7855C86.6389 63.1714 86.8533 63.564 86.9919 63.9566Z" fill="#FFD2A8"/>
<path opacity="0.4" d="M107.243 58.1541C107.335 58.4048 107.382 58.6555 107.378 58.9029C107.382 60.1631 106.204 61.3242 104.611 62.779C103.222 64.0424 101.919 66.18 100.078 67.615C99.8208 67.8162 99.547 68.0009 99.2666 68.1725C98.7454 68.4925 98.1846 68.7399 97.5711 68.9015C97.5645 68.9048 97.5579 68.9048 97.5546 68.9081C97.3303 68.9642 97.0961 69.0104 96.8552 69.04C96.8519 69.0466 96.8519 69.0466 96.8486 69.04C96.2417 69.1258 95.5819 69.1258 94.8661 69.0137C91.6531 68.5122 88.7403 65.8732 86.9952 63.9566C86.8996 63.6762 86.7577 63.3958 86.5697 63.1155C88.3378 64.9925 91.0989 67.361 94.1272 67.8294C94.8397 67.9416 95.5027 67.9416 96.1097 67.8558C96.113 67.8624 96.113 67.8624 96.1163 67.8558C96.3571 67.8261 96.5913 67.7799 96.8156 67.7238C96.8189 67.7205 96.8256 67.7205 96.8321 67.7172C97.449 67.5556 98.0065 67.3049 98.5277 66.9882C98.8081 66.8167 99.0819 66.6319 99.3392 66.4307C101.18 64.9958 102.486 62.8614 103.872 61.5947C105.468 60.1433 106.646 58.9821 106.639 57.7187C106.646 57.4746 106.597 57.2238 106.504 56.9764C106.87 57.3888 107.105 57.7813 107.243 58.1541Z" fill="#FFD2A8"/>
<path d="M42.343 63.1418C42.0659 63.8411 42.5442 64.6031 43.2964 64.6328C50.8506 64.933 64.3458 64.5734 77.2374 63.6003C80.2228 63.3727 83.1818 63.1121 86.0188 62.8152C86.121 62.8086 86.2299 62.7954 86.3289 62.7855C86.3486 62.7822 86.3651 62.7822 86.3783 62.7789C88.8557 62.5183 91.2374 62.2412 93.4773 61.9311C93.4971 61.9278 93.5136 61.9278 93.5367 61.9245C93.6785 61.8981 93.8237 61.8849 93.9622 61.8652C93.9754 61.8619 93.9919 61.8553 94.0084 61.8553C94.1634 61.8157 94.2723 61.7794 94.3218 61.7332C94.909 61.1955 98.5772 57.4349 100.368 56.7158C100.368 56.7158 104.169 54.5254 106.333 56.785C106.794 57.2667 107.088 57.7153 107.246 58.1474C107.339 58.4014 107.385 58.6521 107.382 58.8996C108.569 58.4146 109.397 57.9033 109.806 57.3557C111.205 55.482 112.01 53.0574 112.171 50.6295C112.148 50.6295 112.125 50.6229 112.112 50.613C110.581 50.3326 109.305 49.9863 108.516 49.6828C105.937 48.6898 103.763 48.9999 101.487 51.4641C99.2139 53.9316 92.0093 59.6187 85.2337 59.203C78.4679 58.7874 77.8873 54.598 78.7615 53.5028C79.6356 52.4142 80.2096 51.1046 86.2266 50.0423C89.6111 49.122 92.2469 48.8812 95.9679 44.0155C97.0993 42.5277 98.056 41.0334 99.0258 39.638C98.178 39.5358 98.178 39.5358 98.178 39.5358L86.8929 37.0815L47.024 28.3991C46.6479 28.3166 46.2949 28.6036 46.3015 28.9863C46.3444 33.0834 46.3708 52.9552 42.343 63.1418Z" fill="#65B161"/>
<path d="M123.661 50.9726C123.661 50.9726 124.255 53.6743 122.909 53.9217C121.56 54.1691 120.313 53.3378 120.461 51.2365C121.873 50.7351 123.661 50.9726 123.661 50.9726Z" fill="#FCECD2"/>
<path opacity="0.6" d="M121.025 53.3576C121.49 53.8755 122.187 54.0536 122.909 53.9217C124.258 53.6743 123.661 50.9693 123.661 50.9693C123.661 50.9693 123.536 50.9495 123.318 50.9363C123.427 51.6422 123.589 53.3972 122.513 53.5918C121.972 53.6908 121.448 53.6149 121.025 53.3576Z" fill="#FCECD2"/>
<path d="M107.2 59.18C107.2 59.18 103.555 57.8407 102.872 58.1706C102.189 58.5004 99.8406 61.1988 100.929 62.4392C102.341 64.049 104.98 62.6767 107.2 59.18Z" fill="#FCECD2"/>
<path opacity="0.6" d="M100.926 62.4392C102.341 64.0523 104.98 62.6767 107.2 59.1833C107.2 59.1833 107.105 59.147 106.933 59.0876C104.809 62.1258 102.397 63.2474 101.071 61.7333C100.86 61.4924 100.777 61.1989 100.791 60.8723C100.586 61.4595 100.566 62.0268 100.926 62.4392Z" fill="#FCECD2"/>
<path opacity="0.4" d="M99.9957 69.8944C100.078 69.9768 100.174 70.0395 100.293 70.089C100.507 70.1781 100.781 70.2111 101.13 70.1814C102.585 70.0494 104.33 69.4457 106.115 68.6079C106.118 68.6046 106.128 68.6046 106.131 68.6013C108.77 67.3114 111.72 65.474 113.966 63.818C114.114 63.7059 114.26 63.597 114.405 63.4882C114.504 63.4156 114.593 63.3397 114.685 63.2638C118.934 59.721 119.788 51.5004 119.818 51.1639C119.818 51.1574 119.818 51.1573 119.818 51.1573L119.204 51.2002C119.267 65.1309 99.9957 69.8944 99.9957 69.8944Z" fill="#FFD2A8"/>
<path d="M119.109 51.6653C119.109 51.6653 119.053 56.0329 116.777 56.343C114.5 56.6531 113.883 54.4627 114.062 53.9052C114.243 53.3477 114.55 51.0979 114.55 51.0979C114.55 51.0979 118.733 50.9264 119.109 51.6653Z" fill="#FCECD2"/>
<path opacity="0.6" d="M116.78 56.3398C119.053 56.0297 119.112 51.6654 119.112 51.6654C119.056 51.5533 118.904 51.4543 118.69 51.3817C118.647 52.2064 118.367 55.6107 116.367 55.8845C115.526 55.9967 114.909 55.7691 114.471 55.4095C114.886 56.0066 115.615 56.4981 116.78 56.3398Z" fill="#FCECD2"/>
<path opacity="0.4" d="M95.859 60.2554C95.859 60.2554 93.4278 62.5513 93.6818 63.7653C92.5141 62.0631 92.5141 62.0631 92.5141 62.0631L94.3251 61.7365L95.859 60.2554Z" fill="#FFD2A8"/>
<path opacity="0.4" d="M84.7389 62.9472C84.7389 62.9472 87.0876 63.8708 86.9292 66.5725C87.8628 64.8703 86.3256 62.7855 86.3256 62.7855L84.7389 62.9472Z" fill="#FFD2A8"/>
<path d="M46.2785 61.3209C64.7384 61.4298 84.9929 61.0141 96.0833 60.0443C97.4523 58.7578 99.2666 57.1579 100.372 56.7158C100.372 56.7158 104.172 54.5255 106.336 56.7851L106.375 56.828C108.045 54.9576 109.42 52.3054 109.635 50.049C109.199 49.927 108.82 49.8016 108.516 49.6862C105.937 48.6932 103.763 49.0033 101.487 51.4675C99.2139 53.935 92.0093 59.6221 85.2337 59.2064C78.4679 58.7908 77.8873 54.6013 78.7615 53.5061C79.6357 52.4176 80.2096 51.1079 86.2266 50.0457C89.6111 49.1254 92.2469 48.8846 95.9679 44.0189C96.4858 43.336 96.9707 42.6499 97.4358 41.9703L49.0659 32.0212C49.0626 32.0212 49.8345 48.1126 46.2785 61.3209Z" fill="#77C373"/>
<path d="M85.227 59.2097C92.0027 59.6253 99.2072 53.9383 101.48 51.4708C103.753 49.0033 105.93 48.6965 108.51 49.6894C109.298 49.9929 110.575 50.3393 112.105 50.6197C112.132 50.5636 112.155 50.5108 112.175 50.4548C112.175 50.5174 112.168 50.5768 112.165 50.6362C114.269 51.0287 116.829 51.3091 119.208 51.2003C119.693 51.1805 120.164 51.1442 120.623 51.0881C121.622 50.9793 122.559 50.778 123.387 50.4778C123.724 50.3525 124.1 50.2238 124.499 50.0853C129.457 48.4062 138.769 45.8926 138.769 45.8926C130.371 26.1098 115.147 31.7342 108.299 32.9647C103.545 33.8158 101.236 36.468 99.0159 39.6414C98.0461 41.0368 97.0894 42.5311 95.958 44.0189C92.2369 48.8845 89.5979 49.1254 86.2167 50.0457C80.1997 51.1079 79.6257 52.4208 78.7516 53.5061C77.8807 54.6013 78.4613 58.7941 85.227 59.2097Z" fill="#FFD2A8"/>
<path d="M86.1045 51.3552C86.1045 51.3552 87.1205 55.9009 86.7544 56.2341C86.3882 56.5673 81.8227 58.0517 80.6385 57.1215C79.4542 56.1912 78.4514 52.6384 81.2289 51.8896C84.0098 51.1408 86.1045 51.3552 86.1045 51.3552Z" fill="#FCECD2"/>
<path opacity="0.4" d="M133.462 43.6196C133.462 43.6196 127.069 50.4481 122.018 50.8637C116.968 51.2794 111.753 50.8604 108.031 49.5178C118.851 49.9038 117.733 52.8628 133.462 43.6196Z" fill="#FFD2A8"/>
<path opacity="0.6" d="M81.7007 57.4184C83.4853 57.5041 86.4575 56.5013 86.7511 56.2374C87.1173 55.9042 86.1045 51.3618 86.1045 51.3618C86.1045 51.3618 86.0485 51.3585 85.9363 51.3486C86.4344 53.0508 86.8501 56.6827 81.7007 57.4184Z" fill="#FCECD2"/>
<path d="M160.973 42.5937L164.962 40.9707L152.044 9.2002L148.055 10.8232C147.739 10.9518 147.587 11.3114 147.716 11.6281L160.169 42.2539C160.297 42.5706 160.657 42.7223 160.973 42.5937Z" fill="#FCECD2"/>
<path d="M167.795 44.4015L181.973 39.0641L166.09 0L151.912 5.33741C151.232 5.61451 150.902 6.38972 151.179 7.07257L166.06 43.6691C166.337 44.352 167.116 44.6786 167.795 44.4015Z" fill="#3C3C3B"/>
<path opacity="0.4" d="M78.7615 53.4731C78.1677 54.2186 78.2469 56.3925 80.4867 57.844C74.671 57.6295 70.0428 54.1163 70.0428 49.8147C70.0428 45.3746 74.9745 41.7756 81.0541 41.7756C86.2893 41.7756 90.67 44.441 91.7883 48.0169C89.9443 49.1616 88.2158 49.4717 86.2266 50.0127C80.2096 51.0749 79.6356 52.3845 78.7615 53.4731Z" fill="#77C373"/>
<path d="M81.2784 110.944C84.409 111.132 87.0876 111.175 88.7304 111.188C90.449 109.79 90.8812 107.916 90.7822 106.174C87.5164 107.715 84.3199 109.315 81.2784 110.944Z" fill="#F4C198"/>
<path d="M69.8251 117.858C75.0174 118.772 80.0315 119.247 83.4391 119.501C83.449 119.501 83.449 119.501 83.449 119.501C86.5367 118.673 87.8265 115.51 87.7044 111.875C87.9255 111.752 88.1465 111.621 88.3312 111.489C86.6785 111.644 84.0428 111.743 80.3944 111.432H80.3845C76.5579 113.514 72.9886 115.665 69.8251 117.858Z" fill="#F4C198"/>
<path d="M57.2568 123.17C61.5881 126.442 72.6126 127.854 77.475 128.339C82.4561 127.689 82.1922 122.939 81.3213 119.983C78.2007 119.917 74.5984 119.488 69.3501 118.185C67.2224 119.683 65.2827 121.207 63.597 122.727C62.9801 121.801 62.4161 120.953 61.8883 120.158C61.4132 120.521 60.9415 120.874 60.4764 121.236C58.8567 120.003 56.7521 117.776 54.7332 115.483C54.2582 115.813 53.7733 116.133 53.2554 116.443C53.2554 116.443 53.2554 116.443 53.2455 116.453C53.2455 116.463 53.2356 116.463 53.2356 116.463C53.0904 116.72 51.9095 119.125 57.2568 123.17Z" fill="#F4C198"/>
<path d="M16.197 101.401V134.88L30.1079 134.748C30.1079 134.748 34.3864 135.982 43.7549 137.361C50.5669 138.364 57.1479 137.107 63.1022 136.612C56.7752 134.969 52.9057 129.767 53.3576 127.263C53.8425 124.562 56.7521 124.509 56.9731 124.509C56.8411 124.565 54.6244 125.479 54.1394 127.079C53.5127 131.776 60.9613 135.269 64.1149 136.536C66.909 137.753 68.3769 137.895 70.0956 137.753C76.6536 137.212 75.7332 130.407 74.2224 128.302C71.2469 127.926 67.7172 127.488 65.2926 127.168C60.3312 126.528 54.9641 123.453 53.3972 120.596C51.9523 117.984 53.0442 116.671 53.2323 116.473C47.9311 119.646 40.7002 121.289 31.4835 117.796C21.8148 114.124 21.4519 107.731 23.8996 101.889C19.6343 102.325 16.197 101.401 16.197 101.401Z" fill="#F4C198"/>
<path d="M80.3944 111.429C84.0428 111.739 86.6785 111.637 88.3312 111.485C88.4731 111.386 88.6083 111.287 88.7271 111.188C87.0843 111.178 84.4057 111.132 81.2752 110.944C80.9783 111.099 80.6913 111.264 80.3944 111.429Z" fill="#E5AE89"/>
<path d="M81.3213 119.986C81.2884 119.897 81.2554 119.811 81.2323 119.722C82.0603 119.765 82.7761 119.699 83.4359 119.501C80.0282 119.247 75.0141 118.772 69.8218 117.859H69.8119C69.647 117.967 69.5018 118.08 69.3501 118.188C74.5984 119.488 78.2007 119.917 81.3213 119.986Z" fill="#E5AE89"/>
<path d="M53.4005 120.59C54.9674 123.443 60.3345 126.521 65.2959 127.161C67.7205 127.481 71.2469 127.923 74.2257 128.296C74.2158 128.286 74.2158 128.273 74.2026 128.263C75.4924 128.451 76.5711 128.461 77.475 128.339C72.6126 127.854 61.5914 126.442 57.2568 123.17C51.9095 119.125 53.0904 116.72 53.2323 116.466C53.0476 116.668 51.9557 117.977 53.4005 120.59Z" fill="#E5AE89"/>
<path d="M63.0989 136.609C63.0989 136.609 63.0989 136.609 63.1088 136.609C63.4519 136.576 63.7818 136.553 64.1117 136.533C60.958 135.266 53.5061 131.769 54.1362 127.075C54.6211 125.475 56.8379 124.562 56.9698 124.505C56.7488 124.505 53.8393 124.562 53.3544 127.26C52.9024 129.764 56.7719 134.966 63.0989 136.609Z" fill="#E5AE89"/>
<path d="M54.7332 115.487C56.7521 117.779 58.8567 120.006 60.4764 121.24C60.9382 120.877 61.4132 120.524 61.8883 120.161C63.1781 119.191 64.5108 118.231 65.8996 117.284C65.9655 117.228 66.0315 117.186 66.0975 117.143C69.228 115.005 72.5697 112.92 76.04 110.924C76.228 110.802 76.416 110.694 76.614 110.595C81.0013 108.071 85.5866 105.679 90.2181 103.43C112.98 92.3392 133.976 85.8406 133.976 85.8406C133.976 85.8406 129.932 80.1403 121.111 74.0771C116.701 74.8062 109.671 78.702 92.8274 86.4508C91.1088 87.2458 89.3868 88.0376 87.6682 88.8425C88.4731 88.8425 89.3538 89.0734 90.3237 89.6573C94.7341 92.3029 89.6276 97.67 88.5258 98.6398C88.3708 98.7718 88.0541 98.6959 88.0079 98.8608C85.2403 100.062 82.7596 101.497 80.1799 102.641C76.0466 103.776 70.6795 104.538 64.1413 104.007C63.7883 105.264 61.5617 109.519 57.4514 113.276C57.4415 113.286 57.4415 113.286 57.4415 113.286C56.6168 114.055 55.713 114.794 54.7332 115.487Z" fill="#2A9A51"/>
<path d="M129.5 84.211C129.5 84.211 108.507 90.7096 85.7417 101.8C81.1135 104.047 76.5249 106.441 72.1409 108.965C71.9396 109.061 71.7549 109.176 71.5669 109.295C68.0966 111.291 64.7549 113.375 61.6244 115.513C61.5584 115.556 61.4924 115.602 61.4264 115.655C60.0608 116.588 58.7445 117.532 57.4745 118.485C56.5739 117.555 55.6338 116.522 54.7134 115.477C55.6932 114.781 56.6003 114.042 57.425 113.28C57.425 113.28 57.425 113.28 57.4382 113.27C61.5485 109.509 63.7752 105.254 64.1281 103.997C70.663 104.528 76.0301 103.766 80.1635 102.631C82.7431 101.487 85.2238 100.052 87.9914 98.851C88.0376 98.686 88.3543 98.7652 88.5094 98.6332C89.6078 97.6634 94.7143 92.293 90.3039 89.6474C89.3341 89.0635 88.45 88.8326 87.6451 88.8326C89.367 88.0277 91.0857 87.2327 92.8044 86.4377C107.665 79.6026 114.886 75.7662 119.409 74.4565C126.307 79.7148 129.5 84.211 129.5 84.211Z" fill="#2FA754"/>
<path d="M61.8883 120.161C62.4161 120.956 62.9802 121.804 63.597 122.731C65.2827 121.21 67.2224 119.689 69.3501 118.188C69.5051 118.08 69.647 117.967 69.8119 117.858H69.8218C72.9853 115.665 76.5579 113.514 80.3812 111.432H80.3911C80.688 111.268 80.975 111.103 81.2719 110.948C84.3133 109.315 87.5098 107.718 90.7723 106.174C115.487 94.5329 133.359 89.7562 133.359 89.7562L130.935 86.8005C125.535 88.4994 112.973 92.3392 90.2115 103.426C85.5834 105.676 80.9948 108.068 76.6074 110.591C76.4095 110.69 76.2214 110.802 76.0334 110.921C72.5598 112.917 69.2214 114.998 66.0909 117.139C66.0249 117.182 65.959 117.228 65.893 117.281C64.5108 118.231 63.1781 119.191 61.8883 120.161Z" fill="#23944E"/>
<path d="M31.4835 117.792C40.7002 121.286 47.9311 119.643 53.2323 116.47C53.2323 116.47 53.2422 116.47 53.2422 116.46C53.2521 116.45 53.2521 116.45 53.2521 116.45C53.77 116.14 54.2549 115.823 54.7299 115.49C55.7097 114.794 56.6135 114.058 57.4415 113.296C57.4415 113.296 57.4415 113.296 57.4514 113.286C61.5617 109.529 63.7883 105.274 64.1413 104.017C70.6795 104.545 76.0466 103.786 80.1799 102.651C82.7596 101.503 84.6564 100.655 87.4208 99.4545C87.4636 99.2896 88.3675 98.7816 88.5225 98.6497C89.6243 97.6798 94.7275 92.3127 90.3204 89.6671C89.3505 89.0832 88.4698 88.8523 87.6649 88.8523H87.655C87.401 88.8523 87.1601 88.8754 86.916 88.9183C85.5042 89.1723 84.3364 90.086 83.3336 90.8579C83.3237 90.8678 83.3105 90.8678 83.3105 90.881C82.6837 91.366 82.1097 91.808 81.5687 91.9828C81.4929 92.0059 81.4269 92.0257 81.3609 92.0389C81.163 92.0818 80.942 92.1049 80.6781 92.1049C78.2205 92.2467 73.1602 91.3561 69.7855 91.488C66.0711 91.62 63.4486 91.0691 59.589 89.8353C55.7294 88.5884 38.6451 94.6515 31.754 99.2038C29.1974 100.89 26.4067 101.628 23.893 101.892C21.4552 107.728 21.8181 114.121 31.4835 117.792Z" fill="#F4C198"/>
<path d="M81.5753 91.9731C82.0371 92.778 83.04 93.738 84.1451 94.1437C85.8439 94.7936 88.7732 91.9929 88.7732 91.1121C88.2652 89.6343 87.5065 89.0966 86.9226 88.9086C85.5108 89.1626 84.343 90.0763 83.3402 90.8482C83.3303 90.8581 83.3171 90.8581 83.3171 90.8713C82.687 91.3562 82.1163 91.7983 81.5753 91.9731Z" fill="#FFF4E3"/>
<path opacity="0.5" d="M88.7732 91.1153C88.7732 91.9994 85.8406 94.7967 84.1451 94.1469C83.04 93.7411 82.0371 92.7812 81.5753 91.9763C81.76 91.9136 81.9514 91.8245 82.146 91.7058C82.6672 92.2798 83.3797 92.8241 84.1451 93.1078C85.5767 93.6554 87.8859 91.7487 88.5753 90.6106C88.6446 90.7656 88.7106 90.9339 88.7732 91.1153Z" fill="#EADECE"/>
<path d="M64.1479 104.014C64.1479 104.014 58.0155 120.564 38.5 120.336C41.5381 118.921 53.803 119.656 64.1479 104.014Z" fill="#E5AE89"/>
<path d="M57.547 125.462C57.2403 125.406 56.9269 125.512 56.7191 125.743C56.0428 126.481 54.687 128.223 55.4457 129.563C56.4321 131.308 58.474 131.766 59.1569 131.08C59.8397 130.397 61.1625 128.233 60.7502 127.019C60.4335 126.092 58.4707 125.63 57.547 125.462Z" fill="#FFF4E3"/>
<path opacity="0.5" d="M60.8161 127.804C60.6809 129.008 59.711 130.526 59.1601 131.08C58.474 131.76 56.4354 131.304 55.449 129.563C55.106 128.956 55.1983 128.266 55.4655 127.626C55.4358 127.979 55.4952 128.329 55.6766 128.652C56.663 130.397 58.7049 130.852 59.3845 130.17C59.81 129.747 60.4665 128.774 60.8161 127.804Z" fill="#EADECE"/>
<path d="M55.1694 115.978C55.1694 115.978 53.6124 117.525 53.9159 118.36C54.2194 119.194 55.7236 121.325 57.3631 120.336C58.4814 119.481 58.4814 119.481 58.4814 119.481L55.1694 115.978Z" fill="#FFF4E3"/>
<path opacity="0.5" d="M58.4806 119.482C58.4806 119.482 58.4806 119.482 57.3623 120.336C55.7228 121.326 54.2186 119.195 53.9151 118.36C53.8491 118.182 53.8689 117.967 53.9415 117.743C54.3044 118.624 55.769 120.603 57.3623 119.64C57.6988 119.386 57.933 119.204 58.098 119.079L58.4806 119.482Z" fill="#EADECE"/>
<path opacity="0.3" d="M100.926 86.8698C100.926 92.3656 96.4726 96.8156 90.9801 96.8156C90.7261 96.8156 90.4721 96.8057 90.2247 96.7859C91.8345 94.711 93.4509 91.4947 90.3435 89.6342C89.3736 89.0503 88.4896 88.8194 87.6847 88.8194C89.4066 88.0145 91.1253 87.2195 92.8439 86.4245C95.5192 85.194 97.9504 84.0626 100.157 83.0234C100.652 84.2077 100.926 85.5074 100.926 86.8698Z" fill="#2FA754"/>
<path d="M17.5132 137.734H12.3011V99.0457H17.5132C18.549 99.0457 19.3902 99.8868 19.3902 100.923V135.857C19.3902 136.896 18.549 137.734 17.5132 137.734Z" fill="#FCECD2"/>
<path d="M11.7667 139.746H0V96.9211H11.7667C12.4793 96.9211 13.0565 97.4984 13.0565 98.211V138.459C13.0565 139.169 12.4793 139.746 11.7667 139.746Z" fill="#3C3C3B"/>
</svg>
