<svg width="221" height="143" viewBox="0 0 221 143" fill="none" xmlns="http://www.w3.org/2000/svg">
<path d="M48.4098 110.557C44.019 98.6699 45.5885 84.9859 53.4462 74.7832C64.5886 60.3215 87.8338 61.0594 102.013 50.7079C113.393 42.3982 116.453 28.221 128.546 20.6162C143.102 11.4626 159.99 12.8988 173.493 23.5615C188.192 35.1673 190.97 58.7694 188.566 76.1036C186.702 89.556 179.341 105.444 168 113.463C161.609 117.98 152.89 118.777 145.88 115.438C139.059 112.189 132.334 108.032 124.493 108.439C117.182 108.82 111.446 113.191 106.605 118.38C98.4828 127.087 88.1516 133.563 75.7244 131.495C65.7111 129.827 54.774 123.798 50.0985 114.452C49.4594 113.181 48.8965 111.881 48.4098 110.557Z" fill="url(#paint0_linear)" fill-opacity="0.1"/>
<path fill-rule="evenodd" clip-rule="evenodd" d="M107.479 89.7421L117.077 60.5548L103.018 58.1503L100.717 91.5845L107.479 89.7421Z" fill="#3E8B77"/>
<path fill-rule="evenodd" clip-rule="evenodd" d="M110.117 89.4593L104.842 90.0236L117.076 60.5547L124.878 67.2636L110.117 89.4593Z" fill="#5DAA96"/>
<path fill-rule="evenodd" clip-rule="evenodd" d="M110.117 89.4594L124.878 67.2637L129.986 76.4184L113.99 89.4594H110.117Z" fill="#3E8B77"/>
<path fill-rule="evenodd" clip-rule="evenodd" d="M113.99 89.4593L129.986 76.4183L130.154 85.1961L113.597 89.4593H113.99Z" fill="#5DAA96"/>
<path fill-rule="evenodd" clip-rule="evenodd" d="M126.17 89.4594L130.154 85.1962L113.597 89.4594H126.17Z" fill="#9AD8E2"/>
<path fill-rule="evenodd" clip-rule="evenodd" d="M41.4749 133.009C42.3738 134.004 45.3942 139.356 42.9803 140.545C42.3618 140.851 41.3456 139.501 41.088 138.925C40.2642 137.085 39.6033 135.186 40.7565 133.381C40.9293 133.109 41.3673 132.89 41.4749 133.009Z" fill="#703129"/>
<path fill-rule="evenodd" clip-rule="evenodd" d="M35.1385 135.599L35.3939 138.72L36.7601 138.699L36.1058 134.308L35.1385 135.599Z" fill="#703129"/>
<path fill-rule="evenodd" clip-rule="evenodd" d="M43.4302 140.818L36.2819 139.416L36.3417 141.1C37.8611 142.562 41.2369 142.647 43.4009 142.139L43.4302 140.818Z" fill="#703129"/>
<path fill-rule="evenodd" clip-rule="evenodd" d="M35.5059 126.011C35.4537 126.743 34.9679 127.439 35.0233 128.25C35.095 129.292 34.9983 131.26 35.0331 132.464C35.0515 133.092 35.1983 138.607 35.395 138.72C35.6624 138.875 35.5167 133.9 36.0439 136.154C36.2254 136.933 36.0602 139.755 36.5547 140.165C38.1698 141.504 43.4618 141.801 43.4324 140.78C43.3759 138.846 41.8054 136.71 40.4772 135.368C39.0186 133.894 37.5383 130.571 37.2644 128.55C37.1992 128.068 36.4808 126.443 36.2612 126.399C36.1982 126.162 35.5124 125.912 35.5059 126.011Z" fill="#BC5B40"/>
<path fill-rule="evenodd" clip-rule="evenodd" d="M39.9664 99.2921C40.763 103.526 38.5817 120.461 38.7817 127.328C38.8915 131.087 40.4555 133.386 41.2402 136.743C41.5184 137.933 38.6719 137.823 37.6122 137.673C37.8937 137.432 35.1907 128.501 35.1287 126.35C34.8287 116.06 32.0996 112.035 33.1767 100.609C33.2386 99.9496 31.4942 86.8729 31.5757 86.8685C35.7493 86.6541 37.0796 86.2793 40.3381 87.8683C40.6391 88.0156 39.9077 98.9769 39.9664 99.2921Z" fill="#ED9689"/>
<path fill-rule="evenodd" clip-rule="evenodd" d="M52.4697 86.81C54.6391 88.8008 57.4737 101.975 55.5108 105.935C52.8034 111.395 42.5966 125.859 41.9945 129.469C41.5043 132.409 43.0226 138.648 39.2599 135.185C38.5828 134.561 38.4078 126.858 38.9034 126.389C41.113 124.3 42.814 117.254 43.2128 114.028C44.1986 106.035 50.3416 106.134 49.2624 101.222C48.382 97.2157 42.114 86.7017 47.5777 86.7017C48.2005 86.7028 52.2469 86.6053 52.4697 86.81Z" fill="#ED9689"/>
<path fill-rule="evenodd" clip-rule="evenodd" d="M49.1211 57.1667C52.5295 66.5531 55.9292 72.7259 60.3593 81.3737C60.7527 82.1416 64.1655 87.54 63.984 87.6364C62.9178 88.2061 61.8255 93.2026 55.0358 94.6464C51.961 95.3006 47.4462 93.3542 44.2345 95.8476C42.2303 97.403 38.7871 97.598 36.6427 96.4737C34.7244 95.4674 30.3726 94.9616 28.401 95.761C24.8208 97.2113 29.5183 57.5382 36.0569 56.2764C39.2066 55.6687 42.8357 56.8699 46.5473 56.8699C46.9973 56.8688 49.0906 57.0822 49.1211 57.1667Z" fill="#BC5B40"/>
<path fill-rule="evenodd" clip-rule="evenodd" d="M45.5474 14.3785C46.0289 16.209 45.9789 17.4773 49.0287 19.2959C51.9904 21.0647 53.5414 28.8037 49.7167 30.7718C40.1989 35.6643 46.0615 40.9013 44.0171 39.8463C34.3418 34.8595 45.7279 35.869 36.8894 53.2187C35.3417 56.2558 19.3006 55.8702 16.5487 52.884C15.3248 51.5572 16.9693 52.285 17.3845 52.2644C23.3362 51.972 6.59402 30.4252 18.2583 27.5104C21.0722 26.8075 25.0882 26.5865 25.9023 24.6228C24.7958 23.1454 23.2851 20.9109 25.0393 16.8491C26.2098 14.1424 28.3238 16.5502 29.5585 11.7161C30.6704 7.35977 50.0797 5.50869 45.6344 14.2334C45.6039 14.2853 45.5779 14.333 45.5474 14.3785Z" fill="#D55147"/>
<path fill-rule="evenodd" clip-rule="evenodd" d="M28.5868 36.0205C27.6304 40.4289 24.3198 47.0057 23.2992 48.2784C17.829 55.0989 13.6717 61.172 7.57874 67.0123C6.89836 67.6643 6.48209 68.0608 6.47122 68.0673C6.22884 68.1756 6.00278 68.2828 5.7941 68.389C4.11271 69.249 1.07382 69.2847 1.20533 69.353C3.57036 70.5628 3.98011 69.9151 3.94207 70.1458C3.93881 70.1675 3.93446 70.1913 3.92903 70.2162C3.54645 70.5444 3.16061 70.8899 2.56718 71.1878C2.09983 71.4228 -0.0902167 73.0129 0.00216724 73.6259C0.0532501 73.9606 2.5737 72.4063 2.83346 72.2785C3.31603 72.0413 3.71165 71.8106 3.14213 72.5774C2.85955 72.9576 -0.17934 75.1282 0.345618 75.2257C1.29554 75.4012 2.13243 74.6538 2.84107 74.1317C7.39832 70.7762 0.322794 77.1461 2.26503 76.4388C3.03236 76.1594 5.36696 73.5469 5.1898 74.0169C3.11931 79.5041 6.25493 74.7231 7.77003 72.2189C15.1184 64.6175 24.3817 58.344 30.4182 49.4362C32.3724 46.5529 35.7461 40.3531 37.9383 34.3189C34.6385 33.7546 31.341 34.2019 28.5868 36.0205Z" fill="#F5988A"/>
<path fill-rule="evenodd" clip-rule="evenodd" d="M53.8294 41.7103C53.2697 40.1462 55.0369 46.6688 55.076 46.7122C55.1304 46.7717 57.2574 53.2012 58.0041 54.4306C59.717 57.2478 60.068 57.8381 61.0636 61.0117C61.6679 62.9375 63.9134 72.8601 65.8067 72.8601C68.4619 72.8601 70.0162 75.0979 67.9109 75.0979C66.2838 75.0979 61.8831 74.6332 65.4698 76.7475C66.0599 77.0952 62.6722 77.4808 62.532 75.881C62.382 74.1588 62.4613 73.6129 62.3907 73.2706C60.8517 71.8647 51.5698 59.5007 51.6893 56.6954C51.9698 50.1652 45.1236 45.4189 50.4818 40.6044C51.0177 40.1245 53.3403 40.3433 53.8294 41.7103Z" fill="#F5988A"/>
<path d="M44.7627 14.9872C47.0082 19.167 48.1342 23.336 44.379 26.0178C44.5377 28.0563 44.891 29.3225 45.3137 30.0958C45.9485 31.3187 48.5852 30.1955 48.5852 30.6872C48.5852 31.5158 48.069 33.2456 47.1321 33.5435C44.0551 37.4991 31.4453 37.0474 29.4944 34.4999C29.0835 30.8714 43.0639 36.1506 38.4697 25.708C38.4513 25.6463 36.0699 23.0587 35.9515 22.984C33.6016 21.4762 35.5895 18.1607 37.7404 20.1732C39.1262 21.4741 37.2003 19.4313 38.611 18.75C40.3837 17.8921 39.199 18.3124 40.0077 17.0278C40.7261 15.8818 44.5682 14.5366 44.7627 14.9872Z" fill="#F7AC9F"/>
<path fill-rule="evenodd" clip-rule="evenodd" d="M41.6673 25.7795C41.2782 25.5693 40.6348 25.0267 41.0902 25.682C41.5304 26.321 44.4128 28.5198 44.9769 28.6162C43.9834 23.1139 47.3245 27.0716 41.6673 25.7795Z" fill="#D07A5F"/>
<path d="M43.6172 18.6591C43.5683 18.5031 43.6596 18.3363 43.8161 18.2909C43.9726 18.2432 44.14 18.3331 44.1845 18.4901C44.228 18.6288 44.3715 18.9602 44.5236 19.3014C44.7008 19.6849 44.8866 20.0769 44.9736 20.2264C45.1344 20.4907 45.3268 20.9965 45.1442 21.2846C44.9801 21.537 44.8084 21.6941 44.5867 21.7861C44.3802 21.8728 44.1497 21.8923 43.8563 21.8728C43.6933 21.862 43.5683 21.7222 43.577 21.5587C43.59 21.3951 43.7291 21.2706 43.8922 21.2814C44.0987 21.2944 44.2465 21.2857 44.3595 21.2392C44.7606 21.0669 44.6334 20.8221 44.4638 20.5221C44.3628 20.3553 44.1628 19.9416 43.9835 19.543C43.8172 19.1769 43.6628 18.8173 43.6172 18.6591Z" fill="#D07A5F"/>
<path fill-rule="evenodd" clip-rule="evenodd" d="M42.1956 17.9462C42.3814 17.8899 42.6075 18.0751 42.6912 18.3611C42.7781 18.6459 42.6955 18.9232 42.5053 18.9796C42.3151 19.0359 42.089 18.8507 42.0064 18.5647C41.9217 18.2788 42.0043 18.0015 42.1956 17.9462Z" fill="#212C3D"/>
<path fill-rule="evenodd" clip-rule="evenodd" d="M44.5812 17.1189C44.7714 17.0625 44.9932 17.2477 45.0801 17.5337C45.1671 17.8186 45.0801 18.0958 44.8942 18.1522C44.704 18.2085 44.478 18.0233 44.3954 17.7373C44.3073 17.4525 44.3943 17.1741 44.5812 17.1189Z" fill="#212C3D"/>
<path fill-rule="evenodd" clip-rule="evenodd" d="M45.4083 22.2616C44.6725 23.0631 41.9684 22.8205 41.9738 22.8346C42.4086 24.5654 45.1431 24.7702 45.442 22.2529L45.4083 22.2616Z" fill="#D6EDFB"/>
<path fill-rule="evenodd" clip-rule="evenodd" d="M47.719 30.6061C46.3191 32.5655 45.3442 33.8078 43.0009 34.9278C36.3656 38.0981 31.5812 33.7093 29.4748 33.875C27.3598 34.3905 24.3535 40.7897 24.3111 41.8739C24.3524 41.9519 28.864 49.5913 32.5474 46.9918C33.3952 46.3928 35.8113 52.0674 34.6951 54.0722C29.5281 63.3471 51.5502 58.9063 49.4656 56.9664C48.4179 53.9488 53.0208 39.4131 56.4716 39.4131C56.4716 36.8049 52.7023 32.5384 50.4297 31.0978C49.3417 30.4078 48.4385 29.5987 47.719 30.6061Z" fill="#60C6D0"/>
<path fill-rule="evenodd" clip-rule="evenodd" d="M37.9915 31.1617C38.4491 31.1617 38.8197 31.4997 38.8197 31.9167C38.8197 32.3337 38.4491 32.6716 37.9915 32.6716C37.534 32.6716 37.1633 32.3337 37.1633 31.9167C37.1633 31.4997 37.534 31.1617 37.9915 31.1617Z" fill="#D6EFFD"/>
<path fill-rule="evenodd" clip-rule="evenodd" d="M38.9458 32.7561C39.4034 32.7561 39.774 33.094 39.774 33.5111C39.774 33.9281 39.4034 34.266 38.9458 34.266C38.4882 34.266 38.1176 33.9281 38.1176 33.5111C38.1176 33.094 38.4882 32.7561 38.9458 32.7561Z" fill="#D6EFFD"/>
<path fill-rule="evenodd" clip-rule="evenodd" d="M40.6435 33.7904C41.1011 33.7904 41.4717 34.1283 41.4717 34.5454C41.4717 34.9624 41.1011 35.3003 40.6435 35.3003C40.1859 35.3003 39.8153 34.9624 39.8153 34.5454C39.8153 34.1283 40.1859 33.7904 40.6435 33.7904Z" fill="#D6EFFD"/>
<path fill-rule="evenodd" clip-rule="evenodd" d="M42.664 33.9302C43.1215 33.9302 43.4922 34.2681 43.4922 34.6851C43.4922 35.1021 43.1215 35.4401 42.664 35.4401C42.2064 35.4401 41.8358 35.1021 41.8358 34.6851C41.8358 34.2681 42.2064 33.9302 42.664 33.9302Z" fill="#D6EFFD"/>
<path fill-rule="evenodd" clip-rule="evenodd" d="M44.6171 33.2402C45.0746 33.2402 45.4453 33.5782 45.4453 33.9952C45.4453 34.4122 45.0746 34.7501 44.6171 34.7501C44.1595 34.7501 43.7889 34.4122 43.7889 33.9952C43.79 33.5782 44.1606 33.2402 44.6171 33.2402Z" fill="#D6EFFD"/>
<path fill-rule="evenodd" clip-rule="evenodd" d="M45.8072 31.4973C46.2648 31.4973 46.6354 31.8353 46.6354 32.2523C46.6354 32.6693 46.2648 33.0072 45.8072 33.0072C45.3496 33.0072 44.979 32.6693 44.979 32.2523C44.979 31.8353 45.3496 31.4973 45.8072 31.4973Z" fill="#D6EFFD"/>
<path fill-rule="evenodd" clip-rule="evenodd" d="M46.0963 29.5381C46.5539 29.5381 46.9245 29.876 46.9245 30.293C46.9245 30.71 46.5539 31.048 46.0963 31.048C45.6387 31.048 45.2681 30.71 45.2681 30.293C45.2692 29.876 45.6398 29.5381 46.0963 29.5381Z" fill="#D6EFFD"/>
<path d="M46.2963 46.9126C46.4626 46.7263 46.7484 46.7101 46.9354 46.8758C47.1223 47.0415 47.1386 47.3264 46.9723 47.5127L40.5913 54.643C40.425 54.8293 40.1392 54.8456 39.9522 54.6798C39.7653 54.5141 39.749 54.2292 39.9153 54.0429L46.2963 46.9126Z" fill="#41809F"/>
<path d="M46.3528 48.9263C46.5191 48.74 46.805 48.7238 46.9919 48.8895C47.1788 49.0552 47.1952 49.3401 47.0289 49.5264L43.7737 53.1625C43.6074 53.3488 43.3215 53.365 43.1346 53.1993C42.9477 53.0336 42.9314 52.7487 43.0976 52.5624L46.3528 48.9263Z" fill="#41809F"/>
<path fill-rule="evenodd" clip-rule="evenodd" d="M89.2939 127.525H117.694V126.07H89.2939V127.525Z" fill="#895737"/>
<path d="M111.36 105.722C111.529 105.54 111.816 105.529 111.999 105.699C112.181 105.868 112.191 106.154 112.021 106.336L92.0405 127.814C91.8709 127.996 91.584 128.006 91.4014 127.837C91.2188 127.668 91.209 127.382 91.3786 127.2L111.36 105.722Z" fill="#895737"/>
<path d="M84.8095 104.762C84.64 104.58 84.353 104.57 84.1705 104.739C83.9879 104.908 83.9781 105.194 84.1476 105.376L102.625 116.435C102.795 116.617 103.082 116.627 103.263 116.458C103.446 116.289 103.456 116.003 103.286 115.821L84.8095 104.762Z" fill="#895737"/>
<path d="M119.064 105.183C119.226 105.001 119.499 104.992 119.673 105.161C119.847 105.33 119.857 105.615 119.695 105.797L102.927 116.227C102.765 116.409 102.492 116.419 102.318 116.25C102.144 116.081 102.134 115.795 102.296 115.613L119.064 105.183Z" fill="#895737"/>
<path fill-rule="evenodd" clip-rule="evenodd" d="M84.3911 117.32C91.5036 117.32 97.2694 123.066 97.2694 130.153C97.2694 137.241 91.5036 142.986 84.3911 142.986C77.2786 142.986 71.5139 137.24 71.5139 130.153C71.5139 123.066 77.2786 117.32 84.3911 117.32Z" fill="black"/>
<path fill-rule="evenodd" clip-rule="evenodd" d="M84.3911 119.767C90.1471 119.767 94.8131 124.416 94.8131 130.153C94.8131 135.889 90.1471 140.539 84.3911 140.539C78.635 140.539 73.9691 135.889 73.9691 130.153C73.9691 124.418 78.635 119.767 84.3911 119.767Z" fill="white"/>
<path fill-rule="evenodd" clip-rule="evenodd" d="M84.3911 126.877C86.2061 126.877 87.6778 128.344 87.6778 130.153C87.6778 131.962 86.2061 133.428 84.3911 133.428C82.576 133.428 81.1044 131.962 81.1044 130.153C81.1044 128.344 82.576 126.877 84.3911 126.877Z" fill="black"/>
<path fill-rule="evenodd" clip-rule="evenodd" d="M84.0194 106.252L79.5295 93.9468H124.767L119.772 106.084L84.0194 106.252Z" fill="#5DAA96"/>
<path fill-rule="evenodd" clip-rule="evenodd" d="M78.4622 86.34C96.3891 91.2498 115.635 88.5225 130.154 85.1962L126.218 94.1429C110.752 99.1307 94.9946 98.1299 79.5284 93.9468L78.4622 86.34Z" fill="#3E8B77"/>
<path d="M68.801 76.4509C68.6402 76.2614 68.6641 75.9765 68.8543 75.8162C69.0445 75.6559 69.3303 75.6797 69.4912 75.8693L111.699 125.762C111.86 125.951 111.836 126.236 111.645 126.396C111.455 126.557 111.169 126.533 111.009 126.343L68.801 76.4509Z" fill="#895737"/>
<path fill-rule="evenodd" clip-rule="evenodd" d="M64.8111 74.7611H71.0976C71.6921 74.7611 72.1779 75.2453 72.1779 75.8377C72.1779 76.4302 71.6921 76.9144 71.0976 76.9144H64.8111C64.2166 76.9144 63.7308 76.4302 63.7308 75.8377C63.7308 75.2464 64.2166 74.7611 64.8111 74.7611Z" fill="#2D9B4E"/>
<path fill-rule="evenodd" clip-rule="evenodd" d="M117.116 117.958C124.054 117.958 129.68 123.564 129.68 130.479C129.68 137.394 124.054 143 117.116 143C110.177 143 104.551 137.394 104.551 130.479C104.551 123.564 110.177 117.958 117.116 117.958Z" fill="black"/>
<path fill-rule="evenodd" clip-rule="evenodd" d="M117.116 120.345C122.732 120.345 127.284 124.882 127.284 130.479C127.284 136.075 122.732 140.613 117.116 140.613C111.5 140.613 106.947 136.075 106.947 130.479C106.947 124.882 111.5 120.345 117.116 120.345Z" fill="white"/>
<path fill-rule="evenodd" clip-rule="evenodd" d="M117.116 127.282C118.887 127.282 120.323 128.713 120.323 130.479C120.323 132.244 118.887 133.675 117.116 133.675C115.344 133.675 113.908 132.244 113.908 130.479C113.908 128.713 115.344 127.282 117.116 127.282Z" fill="black"/>
<path fill-rule="evenodd" clip-rule="evenodd" d="M149.442 9.82232C152.296 8.3958 156.201 10.4007 158.164 14.2995C160.125 18.1983 161.794 31.3079 158.94 32.7344C156.086 34.1609 149.789 23.3638 147.827 19.465C145.864 15.5662 146.587 11.2488 149.442 9.82232Z" fill="#00203F"/>
<path fill-rule="evenodd" clip-rule="evenodd" d="M147.731 10.5674C150.587 9.14092 154.491 11.1458 156.453 15.0446C158.414 18.9445 157.69 23.2607 154.836 24.6872C151.981 26.1138 148.078 24.1089 146.115 20.2101C144.153 16.3113 144.876 11.994 147.731 10.5674Z" fill="#D55147"/>
<path fill-rule="evenodd" clip-rule="evenodd" d="M145.033 18.8123C143.781 18.4082 143.403 15.0534 144.416 13.6934C148.376 8.38699 156.625 12.822 157.322 18.4615C157.374 18.8878 159.317 26.0381 159.536 26.6487C161.125 31.0659 165.378 36.439 162.044 40.4122C160.207 42.6014 157.523 43.7881 154.987 45.0403C152.309 46.3614 149.664 45.8796 147.796 43.5283C145.945 41.1982 146.612 36.8253 145.956 33.6148C145.558 31.6699 144.725 28.7469 146.077 26.9995C147.245 25.4908 147.623 17.1104 145.25 18.5469C145.007 18.6968 145.092 18.8311 145.033 18.8123Z" fill="#00203F"/>
<path fill-rule="evenodd" clip-rule="evenodd" d="M181.181 24.0665C181.088 23.5137 181.037 24.1276 180.18 24.7393C173.234 29.696 173.271 47.1319 156.628 46.4791C152.107 46.3015 152.834 49.7729 152.432 53.0356C152.299 54.1224 152.94 57.8036 154.136 57.8036C162.358 57.8036 169.624 57.2274 174.381 49.4021C179.535 40.9229 178.017 36.661 181.311 30.4321C182.294 28.5748 181.499 25.9416 181.181 24.0665Z" fill="#41809F"/>
<path fill-rule="evenodd" clip-rule="evenodd" d="M129.728 55.6109C126.82 55.1724 122.221 55.5942 122 61.3037C121.993 61.4913 130.839 58.555 132.436 58.555C142.444 58.555 146.536 51.8276 147.679 42.5602C148.128 38.9245 150.995 31.7286 146.436 31.7508C133.718 31.8107 144.873 54.664 129.728 55.6109Z" fill="#F5988A"/>
<path fill-rule="evenodd" clip-rule="evenodd" d="M217.604 134.155L217.675 133.773L217.2 127.15L213.946 127.694L214.484 132.673L217.604 134.155Z" fill="#ED9689"/>
<path fill-rule="evenodd" clip-rule="evenodd" d="M178.095 134.958L178.167 134.575L177.522 127.868L174.268 128.412L174.806 133.392L178.095 134.958Z" fill="#ED9689"/>
<path fill-rule="evenodd" clip-rule="evenodd" d="M178.453 136.039C178.647 136.649 178.562 137.507 178.652 137.834C178.836 138.509 176.031 138.338 175.964 138.28C174.936 137.38 173.452 138.569 172.426 138.536C172.25 138.531 164.782 138.926 164.782 138.418C164.782 138.085 164.351 137.29 165.301 137.075C166.73 136.752 167.294 136.548 168.923 136.512C169.576 136.498 173.886 136.362 174.364 136.249C175.448 135.992 176.048 135.825 177.169 135.825C177.224 135.825 177.97 136.016 178.296 136.006C178.311 136.006 178.452 136.034 178.453 136.039Z" fill="#010203"/>
<path fill-rule="evenodd" clip-rule="evenodd" d="M178.032 132.948C178.58 133.819 178.91 135.53 178.541 136.411C178.476 136.567 172.993 137.641 172.9 137.647C172.12 137.697 164.759 137.78 164.759 137.43C164.759 135.257 172.376 135.055 172.983 133.866C173.39 133.069 174.286 132.425 175.507 132.673C176.332 132.842 176.347 133.88 176.992 133.662C177.101 133.626 177.937 132.797 178.032 132.948Z" fill="#656666"/>
<path fill-rule="evenodd" clip-rule="evenodd" d="M218.155 135.644C218.349 136.255 218.22 136.992 218.31 137.319C218.495 137.994 215.689 137.822 215.622 137.764C214.594 136.865 213.111 138.054 212.084 138.021C211.908 138.015 204.439 138.409 204.439 137.904C204.439 137.571 204.01 136.775 204.958 136.561C206.389 136.237 206.951 136.033 208.583 135.997C209.234 135.984 213.543 135.848 214.023 135.734C215.107 135.476 215.705 135.31 216.828 135.31C216.881 135.31 217.67 135.621 217.997 135.612C218.011 135.61 218.154 135.637 218.155 135.644Z" fill="#010203"/>
<path fill-rule="evenodd" clip-rule="evenodd" d="M217.692 132.431C218.24 133.303 218.569 135.012 218.2 135.895C218.134 136.05 212.652 137.125 212.558 137.131C211.779 137.181 204.419 137.264 204.419 136.914C204.419 134.742 212.035 134.538 212.642 133.349C213.049 132.552 213.946 131.909 215.165 132.157C215.993 132.326 216.006 133.364 216.652 133.146C216.758 133.11 217.597 132.28 217.692 132.431Z" fill="#656666"/>
<path d="M173.336 131.795C176.327 132.365 183.879 132.68 184.067 130.702L192.799 76.968C194.006 84.4847 194.97 92.0248 195.863 99.5704H195.92C199.884 109.405 205.401 118.577 209.518 128.346C209.781 128.971 210.048 129.598 210.326 130.216C210.515 130.634 210.766 131.374 211.359 131.186C212.807 130.725 219.951 129.933 219.708 127.36C219.111 121.017 214.82 106.68 211.625 96.1067C211.586 94.2606 211.558 92.642 211.552 91.3554C211.534 86.6295 211.437 81.8981 211.212 77.1778C210.92 71.0499 210.222 60.1117 208.017 54.2058C207.424 52.6194 206.297 50.2037 204.314 50.1127C203.017 50.0527 201.677 50.0683 200.378 50.0649C198.218 50.0594 196.057 50.0638 193.896 50.0727C191.451 50.0827 189.007 50.0971 186.563 50.1227C185.753 50.1316 184.946 50.1404 184.138 50.1549C183.734 50.1626 182.891 50.0661 182.683 50.5379C178.935 58.9927 170.552 126.855 173.336 131.795Z" fill="#3A5578"/>
<path d="M192.62 78.4414C192.641 78.5513 192.747 78.6246 192.858 78.6046C192.969 78.5846 193.041 78.4781 193.022 78.3682L191.445 68.6012C191.425 68.4913 191.318 68.418 191.209 68.438C191.098 68.458 191.024 68.5645 191.044 68.6744L192.62 78.4414Z" fill="#437D98"/>
<path fill-rule="evenodd" clip-rule="evenodd" d="M180.286 62.3019L180.171 58.4652L200.407 60.9486L201.293 61.5536C195.835 63.7573 188.752 63.5674 180.286 62.3019Z" fill="#865638"/>
<path d="M186.76 8.01281C185.227 11.754 184.639 15.3874 188.062 17.3313C187.884 18.2694 187.47 20.2798 186.532 20.9181C185.246 21.7918 179.586 24.5294 180.748 24.8458C183.454 27.8343 198.007 27.7754 199.684 23.9444C199.267 23.1884 192.246 20.6373 193.046 16.5498C193.222 15.6517 194.102 15.8282 194.667 15.0311L196.012 13.1305L195.042 9.22952C194.354 6.46528 188.874 2.8529 186.76 8.01281Z" fill="#ED9689"/>
<path fill-rule="evenodd" clip-rule="evenodd" d="M190.34 16.8919C190.652 16.6798 191.148 16.1636 190.822 16.7586C190.629 17.1072 190.247 17.4891 189.914 17.73C189.593 17.9643 188.348 18.8568 187.498 19.0955C187.656 14.8725 186.394 18.5615 190.34 16.8919Z" fill="#D07A5F"/>
<path d="M188.898 11.0314C188.924 10.8938 188.832 10.7617 188.695 10.7361C188.557 10.7106 188.424 10.8005 188.398 10.9382C188.375 11.0592 188.285 11.3534 188.184 11.6553C188.07 11.9961 187.942 12.3447 187.882 12.4802C187.773 12.72 187.651 13.1651 187.833 13.3927C187.994 13.5925 188.155 13.7102 188.349 13.769C188.533 13.8257 188.731 13.8201 188.975 13.779C189.114 13.7568 189.206 13.6258 189.184 13.4882C189.162 13.3505 189.03 13.2573 188.892 13.2795C188.35 13.3705 188.104 13.2006 188.344 12.6867C188.411 12.5368 188.545 12.1682 188.664 11.8141C188.773 11.4877 188.871 11.1691 188.898 11.0314Z" fill="#D07A5F"/>
<path fill-rule="evenodd" clip-rule="evenodd" d="M190.376 10.3041C190.209 10.273 190.036 10.4506 189.99 10.6993C189.944 10.9491 190.039 11.1766 190.206 11.2077C190.372 11.2388 190.545 11.0623 190.591 10.8125C190.637 10.5627 190.541 10.3352 190.376 10.3041Z" fill="#212C3D"/>
<path fill-rule="evenodd" clip-rule="evenodd" d="M187.558 10.1389C187.391 10.1078 187.22 10.2844 187.172 10.5341C187.124 10.7828 187.221 11.0104 187.386 11.0415C187.552 11.0725 187.726 10.896 187.773 10.6463C187.818 10.3976 187.724 10.17 187.558 10.1389Z" fill="#212C3D"/>
<path fill-rule="evenodd" clip-rule="evenodd" d="M194.792 14.8525C196.574 12.3946 194.602 11.1224 193.299 13.8988C193.449 13.1029 192.09 13.5014 192.628 13.2572C193.983 12.6444 194.716 9.2385 193.442 7.65323C192.689 6.71849 191.088 6.40765 190.163 7.11481C187.758 8.94875 187.53 5.22092 185.73 11.2467C185.645 11.5331 185.421 11.0536 185.409 11.0092C185.169 10.1555 185.153 9.28291 185.347 8.46585C183.799 7.97517 183.195 6.74514 183.195 5.18318C183.195 3.78107 183.393 4.97669 183.967 4.97669C183.996 4.86124 183.823 -0.76493 185.047 0.976873C186.683 3.30927 197.263 -0.152135 199.2 2.93071C203.589 9.92567 194.79 14.8558 194.792 14.8525Z" fill="black"/>
<path fill-rule="evenodd" clip-rule="evenodd" d="M179.568 59.1969C186.109 60.6135 201.837 61.7514 208.674 60.2316C212.634 58.2289 205.325 35.1014 205.425 30.5299C201.974 28.8625 201.283 24.0001 196.555 22.0596C192.255 27.618 185.222 26.0483 186.247 21.1115L186.262 21.0826L179.472 26.1704C179.248 26.58 178.996 27.3305 178.706 28.2275C178.312 33.0577 178.312 38.8815 178.713 42.1286C179.584 49.1669 179.568 52.6849 179.568 59.1969Z" fill="#D6EDFB"/>
<path fill-rule="evenodd" clip-rule="evenodd" d="M190.535 13.7909C190.139 14.5447 187.65 14.83 187.074 14.3082C186.996 14.2372 188.099 15.969 189.092 15.6271C189.674 15.4261 190.516 14.346 190.53 13.8087L190.535 13.7909Z" fill="#D6EDFB"/>
<path fill-rule="evenodd" clip-rule="evenodd" d="M196.639 21.9994C208.213 24.4905 210.604 35.0168 210.604 45.673C210.604 49.7961 214.494 58.4718 221 57.9167C221 62.2595 200.449 69.7718 198.726 65.8408C192.607 51.8587 181.548 34.6527 196.639 21.9994Z" fill="#41809F"/>
<path fill-rule="evenodd" clip-rule="evenodd" d="M185.978 21.36C182.71 23.9422 178.944 62.4617 181.81 64.3722C173.676 66.0485 174.353 67.2275 174.353 60.6078C174.353 49.5153 170.561 25.6429 184.809 21.5754C185.654 21.3334 186.798 20.7128 185.978 21.36Z" fill="#41809F"/>
<path fill-rule="evenodd" clip-rule="evenodd" d="M193.321 57.8668C191.243 59.1735 182.855 64.0203 188.634 58.8882C189.068 58.5018 185.232 59.8851 184.275 59.7407C181.852 59.3766 192.666 56.7878 186.094 57.6837C185.073 57.8235 183.795 58.1222 182.885 57.4072C182.381 57.0109 186.729 56.4814 187.227 56.2494C188.231 55.7776 187.691 55.7931 187.059 55.7654C186.716 55.7498 183.239 55.9352 183.361 55.56C183.585 54.8761 186.732 54.4676 187.348 54.4887C188.131 54.5165 188.721 54.3766 189.297 54.2534C189.316 54.2312 189.332 54.2078 189.347 54.1879C189.508 53.9725 188.735 54.4099 186.875 51.8277C186.771 51.6834 189.997 53.3575 192.224 53.4185C192.409 53.423 192.603 53.433 192.804 53.4452C195.083 52.2984 205.856 49.1034 210.325 48.545C209.576 55.8841 202.669 58.4696 193.321 57.8668Z" fill="#F2AB9E"/>
<path fill-rule="evenodd" clip-rule="evenodd" d="M146.606 102.07C147.15 109.595 148.568 118.044 148.313 124.838C148.196 127.92 143.712 132.397 143.777 133.524C144.755 133.179 146.014 132.841 146.729 132.237C147.903 131.248 149.86 128.006 150.796 126.527C151.311 126.443 151.735 126.073 151.828 125.32C152.364 120.987 154.343 107.906 153.874 105.301C153.664 104.142 154.11 101.893 154.861 99.0141L154.772 99.1362C153.041 101.487 150.02 92.3533 146.335 91.8937L146.606 102.07Z" fill="#F5988A"/>
<path fill-rule="evenodd" clip-rule="evenodd" d="M150.839 104.348C154.18 110.425 159.295 115.149 161.689 120.92C162.774 123.538 160.748 128.985 161.234 129.902C161.919 129.242 162.839 128.479 163.205 127.703C163.806 126.43 164.198 122.977 164.41 121.385C164.808 121.119 165.021 120.648 164.811 119.984C163.597 116.161 160.505 105.891 159.113 103.894C158.493 103.006 155.525 99.3992 155.048 96.7082L152.623 96.5417C152.079 99.1638 150.182 93.3445 146.928 94.3636L150.839 104.348Z" fill="#F5988A"/>
<path fill-rule="evenodd" clip-rule="evenodd" d="M143.776 133.523C144.754 133.177 146.013 132.84 146.728 132.236C148.178 131.013 150.827 126.348 151.26 125.824L151.694 125.418C151.712 125.344 151.78 125.348 151.825 125.319C151.978 125.956 152.448 126.864 152.686 127.582C153.306 129.453 153.047 128.83 152.598 130.056L151.688 135.452L151.338 135.486L151.141 131.056C149.695 131.541 148.754 134.213 148.164 135.711L139.275 136.339C139.843 135.633 142.549 133.942 143.776 133.523Z" fill="#E78543"/>
<path fill-rule="evenodd" clip-rule="evenodd" d="M157.795 132.704L162.872 128.237C163.006 128.061 163.121 127.882 163.205 127.702C163.947 126.128 164.371 121.223 164.531 120.62L164.737 120.116C164.724 120.048 164.783 120.026 164.811 119.982C165.183 120.456 165.922 121.036 166.397 121.544C167.631 122.871 167.177 122.449 167.273 123.644L168.584 128.496L168.303 128.659L166.439 125.033C165.418 125.99 165.656 128.58 165.738 130.056C163.547 131.361 161.627 131.983 157.795 132.704Z" fill="#E78543"/>
<path fill-rule="evenodd" clip-rule="evenodd" d="M145.694 15.7027C144.465 20.1067 144.285 24.2641 148.386 25.9993C149.329 34.7405 146.027 30.623 145.39 32.2105C146.63 36.7809 161.386 39.796 162.918 36.4912C161.663 28.4793 151.8 35.6097 153.879 24.4673C153.885 24.4051 155.58 21.471 155.673 21.3767C157.568 19.465 154.994 16.7629 153.399 19.1075C150.353 11.7318 147.103 14.7935 145.698 15.6894L145.694 15.7027Z" fill="#F5988A"/>
<path fill-rule="evenodd" clip-rule="evenodd" d="M148.186 25.9107C149.092 25.9418 150.434 25.5998 150.887 25.2057C151.208 24.9271 151.697 24.2821 151.41 24.9926C151.112 25.7231 149.161 27.9067 148.546 28.1598C148.555 27.688 148.425 26.6789 148.386 25.9984C148.318 25.9706 148.253 25.9407 148.186 25.9107Z" fill="#D07A5F"/>
<path d="M147.803 18.8889C147.812 18.7313 147.694 18.5947 147.536 18.5836C147.377 18.5725 147.24 18.6913 147.229 18.8489C147.22 18.9877 147.155 19.3296 147.083 19.6826C146.998 20.0812 146.906 20.4897 146.854 20.6473C146.763 20.9315 146.684 21.4466 146.919 21.6787C147.127 21.8829 147.323 21.9939 147.549 22.0339C147.761 22.0728 147.983 22.0417 148.253 21.9629C148.406 21.9185 148.492 21.7608 148.45 21.6087C148.406 21.4577 148.247 21.37 148.095 21.4145C147.905 21.4688 147.765 21.4933 147.649 21.4722C147.237 21.3978 147.303 21.1358 147.399 20.8194C147.457 20.6418 147.558 20.2111 147.647 19.797C147.723 19.4173 147.789 19.0465 147.803 18.8889Z" fill="#D07A5F"/>
<path fill-rule="evenodd" clip-rule="evenodd" d="M146.624 22.6822C147.483 23.2828 149.977 22.4869 149.977 22.5013C149.934 24.2209 147.402 24.9869 146.59 22.6822H146.624Z" fill="white"/>
<path d="M148.587 18.7933C148.518 18.8677 148.403 18.8721 148.329 18.8033C148.254 18.7345 148.249 18.619 148.318 18.5447C148.425 18.4281 148.539 18.3326 148.656 18.256C148.972 18.0484 149.305 17.984 149.621 18.0285C149.934 18.0717 150.228 18.2216 150.47 18.4436C150.578 18.5435 150.678 18.659 150.763 18.7889C150.818 18.8733 150.795 18.9865 150.711 19.0409C150.626 19.0964 150.512 19.0731 150.456 18.9887C150.391 18.8877 150.311 18.7933 150.221 18.7112C150.034 18.5391 149.809 18.4225 149.572 18.3904C149.339 18.3582 149.093 18.4059 148.86 18.5602C148.766 18.6213 148.676 18.6979 148.587 18.7933Z" fill="black"/>
<path d="M145.654 18.4172C145.603 18.5038 145.488 18.5338 145.401 18.4816C145.314 18.4305 145.284 18.3184 145.338 18.2307C145.475 17.9976 145.635 17.8488 145.801 17.7722C145.919 17.719 146.036 17.7001 146.153 17.7112H146.158C146.271 17.7223 146.381 17.7611 146.483 17.8211C146.719 17.9587 146.929 18.2185 147.081 18.546C147.121 18.6381 147.082 18.7469 146.992 18.788C146.899 18.8302 146.789 18.7902 146.747 18.6992C146.626 18.4383 146.467 18.2363 146.295 18.1364C146.239 18.1019 146.18 18.0797 146.123 18.0742H146.118C146.065 18.0686 146.009 18.0786 145.955 18.1031C145.853 18.1497 145.751 18.2507 145.654 18.4172Z" fill="black"/>
<path d="M146.437 31.7498C146.836 31.7675 147.023 31.7209 147.222 31.8441C149.766 33.4072 156.868 33.6159 158.077 31.833C158.235 31.5999 160.312 32.0584 161.942 33.3162C159.048 35.7951 157.714 40.5787 159.405 43.9812C159.242 44.795 157.9 49.5563 157.753 49.573L168.335 93.9151C162.75 96.1121 144.005 101.605 136.68 94.6633C133.522 91.0909 136.211 38.385 146.437 31.7498Z" fill="#703129"/>
<path fill-rule="evenodd" clip-rule="evenodd" d="M155.409 30.8795C155.123 30.9105 154.918 31.1748 154.95 31.4701C154.982 31.7654 155.241 31.9796 155.526 31.9485C155.812 31.9174 156.017 31.6532 155.985 31.3579C155.952 31.0626 155.695 30.8484 155.409 30.8795Z" fill="#D55147"/>
<path fill-rule="evenodd" clip-rule="evenodd" d="M153.728 32.8467C153.442 32.8778 153.237 33.142 153.269 33.4373C153.301 33.7326 153.559 33.9469 153.845 33.9158C154.131 33.8847 154.336 33.6205 154.304 33.3252C154.271 33.0299 154.013 32.8157 153.728 32.8467Z" fill="#D55147"/>
<path fill-rule="evenodd" clip-rule="evenodd" d="M152.477 33.7282C152.191 33.7593 151.986 34.0235 152.018 34.3188C152.05 34.6141 152.309 34.8284 152.594 34.7973C152.88 34.7662 153.085 34.502 153.053 34.2067C153.021 33.9114 152.762 33.6971 152.477 33.7282Z" fill="#D55147"/>
<path fill-rule="evenodd" clip-rule="evenodd" d="M150.925 34.1447C150.639 34.1758 150.434 34.44 150.465 34.7353C150.497 35.0306 150.756 35.2449 151.041 35.2138C151.327 35.1827 151.532 34.9185 151.5 34.6232C151.469 34.3279 151.211 34.1136 150.925 34.1447Z" fill="#D55147"/>
<path fill-rule="evenodd" clip-rule="evenodd" d="M149.525 33.8868C149.239 33.9179 149.034 34.1821 149.066 34.4774C149.098 34.7727 149.357 34.9869 149.642 34.9559C149.928 34.9248 150.133 34.6606 150.101 34.3653C150.068 34.07 149.81 33.8557 149.525 33.8868Z" fill="#D55147"/>
<path fill-rule="evenodd" clip-rule="evenodd" d="M148.369 33.2408C148.082 33.2719 147.877 33.5361 147.91 33.8314C147.942 34.1267 148.199 34.3409 148.486 34.3099C148.772 34.2788 148.978 34.0146 148.945 33.7193C148.912 33.424 148.655 33.2097 148.369 33.2408Z" fill="#D55147"/>
<path fill-rule="evenodd" clip-rule="evenodd" d="M147.622 32.2282C147.336 32.2593 147.131 32.5235 147.163 32.8188C147.196 33.1141 147.454 33.3284 147.739 33.2973C148.025 33.2662 148.23 33.002 148.198 32.7067C148.166 32.4114 147.907 32.1971 147.622 32.2282Z" fill="#D55147"/>
<path fill-rule="evenodd" clip-rule="evenodd" d="M147.43 31.0429C147.143 31.074 146.938 31.3382 146.971 31.6335C147.003 31.9288 147.261 32.1431 147.546 32.112C147.833 32.0809 148.038 31.8167 148.005 31.5214C147.974 31.2261 147.716 31.0118 147.43 31.0429Z" fill="#D55147"/>
<path fill-rule="evenodd" clip-rule="evenodd" d="M154.667 31.9674C154.381 31.9984 154.176 32.2626 154.208 32.5579C154.24 32.8532 154.499 33.0675 154.784 33.0364C155.07 33.0053 155.275 32.7411 155.243 32.4458C155.211 32.1505 154.953 31.9363 154.667 31.9674Z" fill="#D55147"/>
<path fill-rule="evenodd" clip-rule="evenodd" d="M194.589 51.5226L197.381 59.57C232.854 54.8264 214.333 23.4661 199.143 22.799C202.614 40.2025 209.696 46.7113 194.589 51.5226Z" fill="#41809F"/>
<path d="M211.59 54.4532C211.704 54.3588 211.872 54.3744 211.967 54.4876C212.062 54.6008 212.046 54.7685 211.932 54.8617C209.935 56.5225 207.659 57.6448 205.2 58.4119C202.752 59.1757 200.122 59.5887 197.405 59.834C197.28 59.8451 197.168 59.7696 197.129 59.6564L193.989 50.7154C193.941 50.5799 194.011 50.4312 194.144 50.379C196.35 49.5186 198.201 48.8626 199.733 48.3186C203.282 47.0586 205.103 46.4136 205.622 45.3012C206.168 44.1312 205.351 42.275 203.676 38.4639C203.123 37.2072 202.479 35.7441 201.774 34.0522C201.717 33.9157 201.782 33.7603 201.919 33.7036C202.056 33.647 202.212 33.7114 202.269 33.848C202.986 35.5665 203.621 37.0119 204.166 38.2508C205.907 42.2095 206.755 44.1389 206.107 45.5244C205.494 46.841 203.601 47.5115 199.912 48.8215C198.437 49.3455 196.668 49.9727 194.579 50.782L197.564 59.2834C200.171 59.0392 202.693 58.634 205.04 57.9013C207.438 57.1542 209.653 56.064 211.59 54.4532Z" fill="#39577B"/>
<path fill-rule="evenodd" clip-rule="evenodd" d="M157.068 37.9888C157.068 57.4872 148.801 57.3307 142.696 57.1997C139.789 56.7612 135.189 57.1831 134.969 62.8925C134.962 63.0801 143.808 60.1438 145.404 60.1438C155.413 60.1438 161.997 52.324 163.141 43.0566C163.59 39.4209 164.137 32.8289 159.669 31.9208C157.807 31.5423 157.068 36.9386 157.068 37.9888Z" fill="#F5988A"/>
<defs>
<linearGradient id="paint0_linear" x1="148.415" y1="28.522" x2="22.8207" y2="143.945" gradientUnits="userSpaceOnUse">
<stop stop-color="#8B3BF5"/>
<stop offset="1" stop-color="#8B3BF5" stop-opacity="0"/>
</linearGradient>
</defs>
</svg>
